# Blender 4.3.2
# www.blender.org
mtllib untitled.mtl
o Cylinder
v -0.109921 0.677721 -1.656364
v -0.109921 2.677721 -0.777328
v 0.256661 0.677721 -1.620259
v 0.085170 2.677721 -0.758113
v 0.609156 0.677721 -1.513331
v 0.272763 2.677721 -0.701208
v 0.934016 0.677721 -1.339689
v 0.445650 2.677721 -0.608798
v 1.218759 0.677721 -1.106007
v 0.597186 2.677721 -0.484435
v 1.452441 0.677721 -0.821265
v 0.721549 2.677721 -0.332898
v 1.626082 0.677721 -0.496404
v 0.813959 2.677721 -0.160012
v 1.733010 0.677721 -0.143910
v 0.870865 2.677721 0.027582
v 1.769116 0.677721 0.222672
v 0.890079 2.677721 0.222672
v 1.733010 0.677721 0.589254
v 0.870865 2.677721 0.417762
v 1.626082 0.677721 0.941748
v 0.813959 2.677721 0.605355
v 1.452441 0.677721 1.266608
v 0.721549 2.677721 0.778242
v 1.218759 0.677721 1.551351
v 0.597186 2.677721 0.929779
v 0.934016 0.677721 1.785033
v 0.445650 2.677721 1.054142
v 0.609156 0.677721 1.958675
v 0.272763 2.677721 1.146551
v 0.256661 0.677721 2.065603
v 0.085170 2.677721 1.203457
v -0.109921 0.677721 2.101708
v -0.109921 2.677721 1.222672
v -0.476502 0.677721 2.065603
v -0.305011 2.677721 1.203457
v -0.828997 0.677721 1.958675
v -0.492604 2.677721 1.146551
v -1.153857 0.677721 1.785033
v -0.665491 2.677721 1.054142
v -1.438600 0.677721 1.551351
v -0.817027 2.677721 0.929779
v -1.672282 0.677721 1.266608
v -0.941390 2.677721 0.778242
v -1.845923 0.677721 0.941748
v -1.033800 2.677721 0.605355
v -1.952851 0.677721 0.589254
v -1.090706 2.677721 0.417762
v -1.988957 0.677721 0.222672
v -1.109921 2.677721 0.222672
v -1.952851 0.677721 -0.143910
v -1.090706 2.677721 0.027582
v -1.845923 0.677721 -0.496404
v -1.033800 2.677721 -0.160012
v -1.672282 0.677721 -0.821265
v -0.941390 2.677721 -0.332898
v -1.438600 0.677721 -1.106007
v -0.817027 2.677721 -0.484435
v -1.153857 0.677721 -1.339689
v -0.665491 2.677721 -0.608798
v -0.828997 0.677721 -1.513331
v -0.492604 2.677721 -0.701208
v -0.476502 0.677721 -1.620259
v -0.305011 2.677721 -0.758113
v 0.813959 2.677721 -0.160012
v 0.870865 2.677721 0.027582
v -1.033800 2.677721 0.605355
v -1.090706 2.677721 0.417762
vn 0.0898 0.4007 -0.9118
vn 0.2660 0.4007 -0.8767
vn 0.4319 0.4007 -0.8080
vn 0.5812 0.4007 -0.7082
vn 0.7082 0.4007 -0.5812
vn 0.8080 0.4007 -0.4319
vn 0.8767 0.4007 -0.2660
vn 0.9118 0.4007 -0.0898
vn 0.9118 0.4007 0.0898
vn 0.8767 0.4007 0.2660
vn 0.8080 0.4007 0.4319
vn 0.7082 0.4007 0.5812
vn 0.5812 0.4007 0.7082
vn 0.4319 0.4007 0.8080
vn 0.2660 0.4007 0.8767
vn 0.0898 0.4007 0.9118
vn -0.0898 0.4007 0.9118
vn -0.2660 0.4007 0.8767
vn -0.4319 0.4007 0.8080
vn -0.5812 0.4007 0.7082
vn -0.7082 0.4007 0.5812
vn -0.8080 0.4007 0.4319
vn -0.8767 0.4007 0.2660
vn -0.9118 0.4007 0.0898
vn -0.9118 0.4007 -0.0898
vn -0.8767 0.4007 -0.2660
vn -0.8080 0.4007 -0.4319
vn -0.7082 0.4007 -0.5812
vn -0.5812 0.4007 -0.7082
vn -0.4319 0.4007 -0.8080
vn -0.2660 0.4007 -0.8767
vn -0.0898 0.4007 -0.9118
vn -0.0000 1.0000 -0.0000
vt 1.000000 0.500000
vt 1.000000 1.000000
vt 0.968750 1.000000
vt 0.968750 0.500000
vt 0.937500 1.000000
vt 0.937500 0.500000
vt 0.906250 1.000000
vt 0.906250 0.500000
vt 0.875000 1.000000
vt 0.875000 0.500000
vt 0.843750 1.000000
vt 0.843750 0.500000
vt 0.812500 1.000000
vt 0.812500 0.500000
vt 0.781250 1.000000
vt 0.781250 0.500000
vt 0.750000 1.000000
vt 0.750000 0.500000
vt 0.718750 1.000000
vt 0.718750 0.500000
vt 0.687500 1.000000
vt 0.687500 0.500000
vt 0.656250 1.000000
vt 0.656250 0.500000
vt 0.625000 1.000000
vt 0.625000 0.500000
vt 0.593750 1.000000
vt 0.593750 0.500000
vt 0.562500 1.000000
vt 0.562500 0.500000
vt 0.531250 1.000000
vt 0.531250 0.500000
vt 0.500000 1.000000
vt 0.500000 0.500000
vt 0.468750 1.000000
vt 0.468750 0.500000
vt 0.437500 1.000000
vt 0.437500 0.500000
vt 0.406250 1.000000
vt 0.406250 0.500000
vt 0.375000 1.000000
vt 0.375000 0.500000
vt 0.343750 1.000000
vt 0.343750 0.500000
vt 0.312500 1.000000
vt 0.312500 0.500000
vt 0.281250 1.000000
vt 0.281250 0.500000
vt 0.250000 1.000000
vt 0.250000 0.500000
vt 0.218750 1.000000
vt 0.218750 0.500000
vt 0.187500 1.000000
vt 0.187500 0.500000
vt 0.156250 1.000000
vt 0.156250 0.500000
vt 0.125000 1.000000
vt 0.125000 0.500000
vt 0.093750 1.000000
vt 0.093750 0.500000
vt 0.062500 1.000000
vt 0.062500 0.500000
vt 0.031250 1.000000
vt 0.031250 0.500000
vt 0.000000 1.000000
vt 0.000000 0.500000
s 0
f 1/1/1 2/2/1 4/3/1 3/4/1
f 3/4/2 4/3/2 6/5/2 5/6/2
f 5/6/3 6/5/3 8/7/3 7/8/3
f 7/8/4 8/7/4 10/9/4 9/10/4
f 9/10/5 10/9/5 12/11/5 11/12/5
f 11/12/6 12/11/6 14/13/6 13/14/6
f 13/14/7 14/13/7 16/15/7 15/16/7
f 15/16/8 16/15/8 18/17/8 17/18/8
f 17/18/9 18/17/9 20/19/9 19/20/9
f 19/20/10 20/19/10 22/21/10 21/22/10
f 21/22/11 22/21/11 24/23/11 23/24/11
f 23/24/12 24/23/12 26/25/12 25/26/12
f 25/26/13 26/25/13 28/27/13 27/28/13
f 27/28/14 28/27/14 30/29/14 29/30/14
f 29/30/15 30/29/15 32/31/15 31/32/15
f 31/32/16 32/31/16 34/33/16 33/34/16
f 33/34/17 34/33/17 36/35/17 35/36/17
f 35/36/18 36/35/18 38/37/18 37/38/18
f 37/38/19 38/37/19 40/39/19 39/40/19
f 39/40/20 40/39/20 42/41/20 41/42/20
f 41/42/21 42/41/21 44/43/21 43/44/21
f 43/44/22 44/43/22 46/45/22 45/46/22
f 45/46/23 46/45/23 48/47/23 47/48/23
f 47/48/24 48/47/24 50/49/24 49/50/24
f 49/50/25 50/49/25 52/51/25 51/52/25
f 51/52/26 52/51/26 54/53/26 53/54/26
f 53/54/27 54/53/27 56/55/27 55/56/27
f 55/56/28 56/55/28 58/57/28 57/58/28
f 57/58/29 58/57/29 60/59/29 59/60/29
f 59/60/30 60/59/30 62/61/30 61/62/30
f 61/62/31 62/61/31 64/63/31 63/64/31
f 63/64/32 64/63/32 2/65/32 1/66/32
f 48/47/33 46/45/33 67/45/33 68/47/33
f 16/15/33 14/13/33 65/13/33 66/15/33
f 66/15/33 65/13/33 68/47/33 67/45/33
f 32/31/33 30/29/33 64/63/33 62/61/33
o Cylinder.001
v -0.092476 -4.154090 0.447327
v -0.142512 -4.154090 0.442398
v -0.190625 -4.154090 0.427803
v -0.234966 -4.154090 0.404103
v -0.273832 -4.154090 0.372207
v -0.305728 -4.154090 0.333341
v -0.329429 -4.154090 0.289000
v -0.344023 -4.154090 0.240887
v -0.348952 -4.154090 0.190851
v -0.344023 -4.154090 0.140815
v -0.329429 -4.154090 0.092702
v -0.305728 -4.154090 0.048361
v -0.273832 -4.154090 0.009496
v -0.234966 -4.154090 -0.022400
v -0.190625 -4.154090 -0.046101
v -0.142512 -4.154090 -0.060696
v -0.092476 -4.154090 -0.065624
v -0.042441 -4.154090 -0.060696
v 0.005672 -4.154090 -0.046101
v 0.050014 -4.154090 -0.022400
v 0.088879 -4.154090 0.009496
v 0.120775 -4.154090 0.048361
v 0.144476 -4.154090 0.092702
v 0.159071 -4.154090 0.140815
v 0.163999 -4.154090 0.190851
v 0.159071 -4.154090 0.240887
v 0.144476 -4.154090 0.289000
v 0.120775 -4.154090 0.333341
v 0.088879 -4.154090 0.372207
v 0.050014 -4.154090 0.404103
v 0.005672 -4.154090 0.427803
v -0.042441 -4.154090 0.442398
v -0.142512 2.685606 0.442398
v -0.092476 2.685606 0.447327
v -0.190625 2.685606 0.427803
v -0.234966 2.685606 0.404103
v -0.273832 2.685606 0.372207
v -0.305728 2.685606 0.333341
v -0.329429 2.685606 0.289000
v -0.344023 2.685606 0.240887
v -0.348952 2.685606 0.190851
v -0.344023 2.685606 0.140815
v -0.329429 2.685606 0.092702
v -0.305728 2.685606 0.048361
v -0.273832 2.685606 0.009496
v -0.234966 2.685606 -0.022400
v -0.190625 2.685606 -0.046101
v -0.142512 2.685606 -0.060696
v -0.092476 2.685606 -0.065624
v -0.042441 2.685606 -0.060696
v 0.005672 2.685606 -0.046101
v 0.050014 2.685606 -0.022400
v 0.088879 2.685606 0.009496
v 0.120775 2.685606 0.048361
v 0.144476 2.685606 0.092702
v 0.159071 2.685606 0.140815
v 0.163999 2.685606 0.190851
v 0.159071 2.685606 0.240887
v 0.144476 2.685606 0.289000
v 0.120775 2.685606 0.333341
v 0.088879 2.685606 0.372207
v 0.050014 2.685606 0.404103
v 0.005672 2.685606 0.427803
v -0.042441 2.685606 0.442398
vn 0.9569 -0.0000 0.2903
vn -0.0000 -1.0000 -0.0000
vn -0.4714 -0.0000 0.8819
vn -0.7730 -0.0000 -0.6344
vn 0.8819 -0.0000 -0.4714
vn 0.2903 -0.0000 0.9569
vn -0.9952 -0.0000 0.0980
vn 0.2903 -0.0000 -0.9569
vn 0.8819 -0.0000 0.4714
vn -0.6344 -0.0000 0.7730
vn -0.6344 -0.0000 -0.7730
vn 0.9569 -0.0000 -0.2903
vn 0.0980 -0.0000 0.9952
vn -0.9952 -0.0000 -0.0980
vn 0.4714 -0.0000 -0.8819
vn 0.7730 -0.0000 0.6344
vn -0.7730 -0.0000 0.6344
vn -0.4714 -0.0000 -0.8819
vn 0.9952 -0.0000 -0.0980
vn -0.0980 -0.0000 0.9952
vn -0.9569 -0.0000 -0.2903
vn 0.6344 -0.0000 -0.7730
vn 0.6344 -0.0000 0.7730
vn -0.8819 -0.0000 0.4714
vn -0.2903 -0.0000 -0.9569
vn 0.9952 -0.0000 0.0980
vn -0.2903 -0.0000 0.9569
vn -0.8819 -0.0000 -0.4714
vn 0.7730 -0.0000 -0.6344
vn 0.4714 -0.0000 0.8819
vn -0.9569 -0.0000 0.2903
vn 0.0980 -0.0000 -0.9952
vn -0.0980 -0.0000 -0.9952
vt 0.687500 1.000000
vt 0.718750 1.000000
vt 0.296822 0.485388
vt 0.250000 0.490000
vt 0.203178 0.485388
vt 0.158156 0.471731
vt 0.116663 0.449553
vt 0.080294 0.419706
vt 0.050447 0.383337
vt 0.028269 0.341844
vt 0.014612 0.296822
vt 0.010000 0.250000
vt 0.014612 0.203178
vt 0.028269 0.158156
vt 0.050447 0.116663
vt 0.080294 0.080294
vt 0.116663 0.050447
vt 0.158156 0.028269
vt 0.203178 0.014612
vt 0.250000 0.010000
vt 0.296822 0.014612
vt 0.341844 0.028269
vt 0.383337 0.050447
vt 0.419706 0.080294
vt 0.449553 0.116663
vt 0.471731 0.158156
vt 0.485388 0.203178
vt 0.490000 0.250000
vt 0.485388 0.296822
vt 0.471731 0.341844
vt 0.449553 0.383337
vt 0.419706 0.419706
vt 0.383337 0.449553
vt 0.341844 0.471731
vt 0.406250 1.000000
vt 0.437500 1.000000
vt 0.125000 1.000000
vt 0.156250 1.000000
vt 0.812500 1.000000
vt 0.843750 1.000000
vt 0.531250 1.000000
vt 0.562500 1.000000
vt 0.250000 1.000000
vt 0.281250 1.000000
vt 0.937500 1.000000
vt 0.968750 1.000000
vt 0.656250 1.000000
vt 0.375000 1.000000
vt 0.093750 1.000000
vt 0.781250 1.000000
vt 0.500000 1.000000
vt 0.218750 1.000000
vt 0.906250 1.000000
vt 0.625000 1.000000
vt 0.343750 1.000000
vt 0.062500 1.000000
vt 0.750000 1.000000
vt 0.468750 1.000000
vt 0.187500 1.000000
vt 0.875000 1.000000
vt 0.593750 1.000000
vt 0.312500 1.000000
vt 0.031250 1.000000
vt 1.000000 1.000000
vt 0.000000 1.000000
s 0
f 79/67/34 111/67/34 110/68/34 78/68/34
f 101/69/35 103/100/35 104/99/35 105/98/35 106/97/35 107/96/35 108/95/35 109/94/35 110/93/35 111/92/35 112/91/35 113/90/35 114/89/35 115/88/35 116/87/35 117/86/35 118/85/35 119/84/35 120/83/35 121/82/35 122/81/35 123/80/35 124/79/35 125/78/35 126/77/35 127/76/35 128/75/35 129/74/35 130/73/35 131/72/35 132/71/35 102/70/35
f 88/101/36 120/101/36 119/102/36 87/102/36
f 97/103/37 129/103/37 128/104/37 96/104/37
f 75/105/38 107/105/38 106/106/38 74/106/38
f 84/107/39 116/107/39 115/108/39 83/108/39
f 93/109/40 125/109/40 124/110/40 92/110/40
f 71/111/41 103/111/41 101/112/41 70/112/41
f 80/113/42 112/113/42 111/67/42 79/67/42
f 89/114/43 121/114/43 120/101/43 88/101/43
f 98/115/44 130/115/44 129/103/44 97/103/44
f 76/116/45 108/116/45 107/105/45 75/105/45
f 85/117/46 117/117/46 116/107/46 84/107/46
f 94/118/47 126/118/47 125/109/47 93/109/47
f 72/119/48 104/119/48 103/111/48 71/111/48
f 81/120/49 113/120/49 112/113/49 80/113/49
f 90/121/50 122/121/50 121/114/50 89/114/50
f 99/122/51 131/122/51 130/115/51 98/115/51
f 77/123/52 109/123/52 108/116/52 76/116/52
f 86/124/53 118/124/53 117/117/53 85/117/53
f 95/125/54 127/125/54 126/118/54 94/118/54
f 73/126/55 105/126/55 104/119/55 72/119/55
f 82/127/56 114/127/56 113/120/56 81/120/56
f 91/128/57 123/128/57 122/121/57 90/121/57
f 100/129/58 132/129/58 131/122/58 99/122/58
f 78/68/59 110/68/59 109/123/59 77/123/59
f 87/102/60 119/102/60 118/124/60 86/124/60
f 96/104/61 128/104/61 127/125/61 95/125/61
f 74/106/62 106/106/62 105/126/62 73/126/62
f 83/108/63 115/108/63 114/127/63 82/127/63
f 92/110/64 124/110/64 123/128/64 91/128/64
f 70/112/65 101/112/65 102/130/65 69/130/65
f 69/131/66 102/131/66 132/129/66 100/129/66
o Cylinder.002
v -0.080366 -4.286999 -0.849894
v -0.080366 -3.714232 -0.384029
v 0.114724 -4.286999 -0.830679
v 0.023838 -3.714232 -0.373766
v 0.302317 -4.286999 -0.773774
v 0.124038 -3.714232 -0.343370
v 0.475204 -4.286999 -0.681364
v 0.216383 -3.714232 -0.294011
v 0.626740 -4.286999 -0.557001
v 0.297324 -3.714232 -0.227584
v 0.751103 -4.286999 -0.405464
v 0.363750 -3.714232 -0.146644
v 0.843513 -4.286999 -0.232578
v 0.413110 -3.714232 -0.054299
v 0.900419 -4.286999 -0.044984
v 0.443505 -3.714232 0.045901
v 0.919634 -4.286999 0.150106
v 0.453768 -3.714232 0.150106
v 0.900419 -4.286999 0.345196
v 0.443505 -3.714232 0.254310
v 0.843513 -4.286999 0.532789
v 0.413110 -3.714232 0.354510
v 0.751103 -4.286999 0.705676
v 0.363750 -3.714232 0.446855
v 0.626740 -4.286999 0.857213
v 0.297324 -3.714232 0.527796
v 0.475204 -4.286999 0.981575
v 0.216383 -3.714232 0.594223
v 0.302317 -4.286999 1.073985
v 0.124038 -3.714232 0.643582
v 0.114724 -4.286999 1.130891
v 0.023838 -3.714232 0.673977
v -0.080366 -4.286999 1.150106
v -0.080366 -3.714232 0.684241
v -0.275457 -4.286999 1.130891
v -0.184571 -3.714232 0.673977
v -0.463050 -4.286999 1.073985
v -0.284771 -3.714232 0.643582
v -0.635937 -4.286999 0.981575
v -0.377116 -3.714232 0.594223
v -0.787473 -4.286999 0.857213
v -0.458057 -3.714232 0.527796
v -0.911836 -4.286999 0.705676
v -0.524483 -3.714232 0.446855
v -1.004246 -4.286999 0.532789
v -0.573843 -3.714232 0.354510
v -1.061152 -4.286999 0.345196
v -0.604238 -3.714232 0.254310
v -1.080366 -4.286999 0.150106
v -0.614501 -3.714232 0.150106
v -1.061152 -4.286999 -0.044984
v -0.604238 -3.714232 0.045901
v -1.004246 -4.286999 -0.232578
v -0.573843 -3.714232 -0.054299
v -0.911836 -4.286999 -0.405464
v -0.524483 -3.714232 -0.146644
v -0.787473 -4.286999 -0.557001
v -0.458057 -3.714232 -0.227584
v -0.635937 -4.286999 -0.681364
v -0.377116 -3.714232 -0.294011
v -0.463050 -4.286999 -0.773774
v -0.284771 -3.714232 -0.343370
v -0.275457 -4.286999 -0.830679
v -0.184571 -3.714232 -0.373766
v 0.017179 -4.286999 -0.840287
v -0.028264 -3.714232 -0.378897
v -0.080366 -4.000615 -0.849894
v 0.114724 -4.000615 -0.830679
v 0.208520 -4.286999 -0.802227
v 0.073938 -3.714232 -0.358568
v 0.302317 -4.000615 -0.773774
v 0.388760 -4.286999 -0.727569
v 0.170210 -3.714232 -0.318691
v 0.475204 -4.000615 -0.681364
v 0.550972 -4.286999 -0.619182
v 0.256853 -3.714232 -0.260798
v 0.626740 -4.000615 -0.557001
v 0.688922 -4.286999 -0.481233
v 0.330537 -3.714232 -0.187114
v 0.751103 -4.000615 -0.405464
v 0.797308 -4.286999 -0.319021
v 0.388430 -3.714232 -0.100471
v 0.843513 -4.000615 -0.232578
v 0.871966 -4.286999 -0.138781
v 0.428307 -3.714232 -0.004199
v 0.900419 -4.000615 -0.044984
v 0.910026 -4.286999 0.052561
v 0.448637 -3.714232 0.098004
v 0.919634 -4.000615 0.150106
v 0.910026 -4.286999 0.247651
v 0.448637 -3.714232 0.202208
v 0.900419 -4.000615 0.345196
v 0.871966 -4.286999 0.438993
v 0.428307 -3.714232 0.304410
v 0.843513 -4.000615 0.532789
v 0.797308 -4.286999 0.619233
v 0.388430 -3.714232 0.400683
v 0.751103 -4.000615 0.705676
v 0.688922 -4.286999 0.781444
v 0.330537 -3.714232 0.487326
v 0.626740 -4.000615 0.857213
v 0.550972 -4.286999 0.919394
v 0.256853 -3.714232 0.561009
v 0.475204 -4.000615 0.981575
v 0.388760 -4.286999 1.027780
v 0.170210 -3.714232 0.618902
v 0.302317 -4.000615 1.073985
v 0.208520 -4.286999 1.102438
v 0.073938 -3.714232 0.658780
v 0.114724 -4.000615 1.130891
v 0.017179 -4.286999 1.140498
v -0.028264 -3.714232 0.679109
v -0.080366 -4.000615 1.150106
v -0.177912 -4.286999 1.140498
v -0.132469 -3.714232 0.679109
v -0.275457 -4.000615 1.130891
v -0.369253 -4.286999 1.102438
v -0.234671 -3.714232 0.658780
v -0.463050 -4.000615 1.073985
v -0.549493 -4.286999 1.027780
v -0.330943 -3.714232 0.618902
v -0.635937 -4.000615 0.981575
v -0.711705 -4.286999 0.919394
v -0.417586 -3.714232 0.561009
v -0.787473 -4.000615 0.857213
v -0.849655 -4.286999 0.781444
v -0.491270 -3.714232 0.487326
v -0.911836 -4.000615 0.705676
v -0.958041 -4.286999 0.619233
v -0.549163 -3.714232 0.400683
v -1.004246 -4.000615 0.532789
v -1.032699 -4.286999 0.438993
v -0.589040 -3.714232 0.304410
v -1.061152 -4.000615 0.345196
v -1.070759 -4.286999 0.247651
v -0.609370 -3.714232 0.202208
v -1.080366 -4.000615 0.150106
v -1.070759 -4.286999 0.052561
v -0.609370 -3.714232 0.098004
v -1.061152 -4.000615 -0.044984
v -1.032699 -4.286999 -0.138781
v -0.589040 -3.714232 -0.004199
v -1.004246 -4.000615 -0.232578
v -0.958041 -4.286999 -0.319021
v -0.549163 -3.714232 -0.100471
v -0.911836 -4.000615 -0.405464
v -0.849655 -4.286999 -0.481233
v -0.491270 -3.714232 -0.187114
v -0.787473 -4.000615 -0.557001
v -0.711705 -4.286999 -0.619182
v -0.417586 -3.714232 -0.260798
v -0.635937 -4.000615 -0.681364
v -0.549493 -4.286999 -0.727569
v -0.330943 -3.714232 -0.318691
v -0.463050 -4.000615 -0.773774
v -0.369253 -4.286999 -0.802227
v -0.234671 -3.714232 -0.358568
v -0.275457 -4.000615 -0.830679
v -0.177912 -4.286999 -0.840287
v -0.132469 -3.714232 -0.378897
v -0.177912 -4.000615 -0.840287
v -0.369253 -4.000615 -0.802227
v -0.549493 -4.000615 -0.727569
v -0.711705 -4.000615 -0.619182
v -0.849655 -4.000615 -0.481233
v -0.958041 -4.000615 -0.319021
v -1.032699 -4.000615 -0.138781
v -1.070759 -4.000615 0.052561
v -1.070759 -4.000615 0.247651
v -1.032699 -4.000615 0.438993
v -0.958041 -4.000615 0.619233
v -0.849655 -4.000615 0.781444
v -0.711705 -4.000615 0.919394
v -0.549493 -4.000615 1.027780
v -0.369253 -4.000615 1.102438
v -0.177912 -4.000615 1.140498
v 0.017179 -4.000615 1.140498
v 0.208520 -4.000615 1.102438
v 0.388760 -4.000615 1.027780
v 0.550972 -4.000615 0.919394
v 0.688922 -4.000615 0.781444
v 0.797308 -4.000615 0.619233
v 0.871966 -4.000615 0.438993
v 0.910026 -4.000615 0.247651
v 0.910026 -4.000615 0.052561
v 0.871966 -4.000615 -0.138781
v 0.797308 -4.000615 -0.319021
v 0.688922 -4.000615 -0.481233
v 0.550972 -4.000615 -0.619182
v 0.388760 -4.000615 -0.727569
v 0.208520 -4.000615 -0.802227
v 0.017179 -4.000615 -0.840287
v 0.065951 -4.286999 -0.835483
v -0.054315 -3.714232 -0.381463
v -0.080366 -3.857423 -0.849894
v 0.114724 -4.143807 -0.830679
v 0.255419 -4.286999 -0.788000
v 0.048888 -3.714232 -0.366167
v 0.302317 -4.143807 -0.773774
v 0.431982 -4.286999 -0.704466
v 0.147124 -3.714232 -0.331031
v 0.475204 -4.143807 -0.681364
v 0.588856 -4.286999 -0.588092
v 0.236618 -3.714232 -0.277404
v 0.626740 -4.143807 -0.557001
v 0.720012 -4.286999 -0.443349
v 0.313930 -3.714232 -0.207349
v 0.751103 -4.143807 -0.405464
v 0.820411 -4.286999 -0.275799
v 0.376090 -3.714232 -0.123557
v 0.843513 -4.143807 -0.232578
v 0.886192 -4.286999 -0.091883
v 0.420709 -3.714232 -0.029249
v 0.900419 -4.143807 -0.044984
v 0.914830 -4.286999 0.101333
v 0.446071 -3.714232 0.071952
v 0.919634 -4.143807 0.150106
v 0.905222 -4.286999 0.296424
v 0.451203 -3.714232 0.176157
v 0.900419 -4.143807 0.345196
v 0.857739 -4.286999 0.485891
v 0.435906 -3.714232 0.279360
v 0.843513 -4.143807 0.532789
v 0.774206 -4.286999 0.662454
v 0.400770 -3.714232 0.377597
v 0.751103 -4.143807 0.705676
v 0.657831 -4.286999 0.819328
v 0.347144 -3.714232 0.467090
v 0.626740 -4.143807 0.857213
v 0.513088 -4.286999 0.950485
v 0.277089 -3.714232 0.544403
v 0.475204 -4.143807 0.981575
v 0.345539 -4.286999 1.050883
v 0.193297 -3.714232 0.606563
v 0.302317 -4.143807 1.073985
v 0.161622 -4.286999 1.116665
v 0.098988 -3.714232 0.651181
v 0.114724 -4.143807 1.130891
v -0.031594 -4.286999 1.145302
v -0.002213 -3.714232 0.676543
v -0.080366 -4.143807 1.150106
v -0.226684 -4.286999 1.135695
v -0.106418 -3.714232 0.681675
v -0.275457 -4.143807 1.130891
v -0.416152 -4.286999 1.088212
v -0.209621 -3.714232 0.666379
v -0.463050 -4.143807 1.073985
v -0.592715 -4.286999 1.004678
v -0.307857 -3.714232 0.631242
v -0.635937 -4.143807 0.981575
v -0.749589 -4.286999 0.888303
v -0.397351 -3.714232 0.577616
v -0.787473 -4.143807 0.857213
v -0.880745 -4.286999 0.743560
v -0.474663 -3.714232 0.507561
v -0.911836 -4.143807 0.705676
v -0.981144 -4.286999 0.576011
v -0.536823 -3.714232 0.423769
v -1.004246 -4.143807 0.532789
v -1.046925 -4.286999 0.392094
v -0.581442 -3.714232 0.329460
v -1.061152 -4.143807 0.345196
v -1.075563 -4.286999 0.198878
v -0.606804 -3.714232 0.228259
v -1.080366 -4.143807 0.150106
v -1.065955 -4.286999 0.003788
v -0.611935 -3.714232 0.124055
v -1.061152 -4.143807 -0.044984
v -1.018472 -4.286999 -0.185679
v -0.596639 -3.714232 0.020851
v -1.004246 -4.143807 -0.232578
v -0.934939 -4.286999 -0.362243
v -0.561503 -3.714232 -0.077385
v -0.911836 -4.143807 -0.405464
v -0.818564 -4.286999 -0.519117
v -0.507877 -3.714232 -0.166879
v -0.787473 -4.143807 -0.557001
v -0.673821 -4.286999 -0.650273
v -0.437822 -3.714232 -0.244191
v -0.635937 -4.143807 -0.681364
v -0.506272 -4.286999 -0.750671
v -0.354030 -3.714232 -0.306351
v -0.463050 -4.143807 -0.773774
v -0.322355 -4.286999 -0.816453
v -0.259721 -3.714232 -0.350969
v -0.275457 -4.143807 -0.830679
v -0.129139 -4.286999 -0.845091
v -0.158520 -3.714232 -0.376332
v -0.031594 -4.286999 -0.845091
v -0.002213 -3.714232 -0.376332
v -0.080366 -4.143807 -0.849894
v 0.114724 -3.857423 -0.830679
v 0.161622 -4.286999 -0.816453
v 0.098988 -3.714232 -0.350969
v 0.302317 -3.857423 -0.773774
v 0.345539 -4.286999 -0.750671
v 0.193297 -3.714232 -0.306351
v 0.475204 -3.857423 -0.681364
v 0.513088 -4.286999 -0.650273
v 0.277089 -3.714232 -0.244191
v 0.626740 -3.857423 -0.557001
v 0.657831 -4.286999 -0.519117
v 0.347144 -3.714232 -0.166879
v 0.751103 -3.857423 -0.405464
v 0.774206 -4.286999 -0.362243
v 0.400770 -3.714232 -0.077385
v 0.843513 -3.857423 -0.232578
v 0.857739 -4.286999 -0.185679
v 0.435906 -3.714232 0.020851
v 0.900419 -3.857423 -0.044984
v 0.905222 -4.286999 0.003788
v 0.451203 -3.714232 0.124055
v 0.919634 -3.857423 0.150106
v 0.914830 -4.286999 0.198878
v 0.446071 -3.714232 0.228259
v 0.900419 -3.857423 0.345196
v 0.886192 -4.286999 0.392094
v 0.420709 -3.714232 0.329460
v 0.843513 -3.857423 0.532789
v 0.820411 -4.286999 0.576011
v 0.376090 -3.714232 0.423769
v 0.751103 -3.857423 0.705676
v 0.720012 -4.286999 0.743560
v 0.313930 -3.714232 0.507561
v 0.626740 -3.857423 0.857213
v 0.588856 -4.286999 0.888303
v 0.236618 -3.714232 0.577616
v 0.475204 -3.857423 0.981575
v 0.431982 -4.286999 1.004678
v 0.147124 -3.714232 0.631242
v 0.302317 -3.857423 1.073985
v 0.255419 -4.286999 1.088212
v 0.048888 -3.714232 0.666379
v 0.114724 -3.857423 1.130891
v 0.065951 -4.286999 1.135695
v -0.054315 -3.714232 0.681675
v -0.080366 -3.857423 1.150106
v -0.129139 -4.286999 1.145302
v -0.158520 -3.714232 0.676543
v -0.275457 -3.857423 1.130891
v -0.322355 -4.286999 1.116665
v -0.259721 -3.714232 0.651181
v -0.463050 -3.857423 1.073985
v -0.506272 -4.286999 1.050883
v -0.354030 -3.714232 0.606563
v -0.635937 -3.857423 0.981575
v -0.673821 -4.286999 0.950485
v -0.437822 -3.714232 0.544403
v -0.787473 -3.857423 0.857213
v -0.818564 -4.286999 0.819328
v -0.507877 -3.714232 0.467090
v -0.911836 -3.857423 0.705676
v -0.934939 -4.286999 0.662454
v -0.561503 -3.714232 0.377597
v -1.004246 -3.857423 0.532789
v -1.018472 -4.286999 0.485891
v -0.596639 -3.714232 0.279360
v -1.061152 -3.857423 0.345196
v -1.065955 -4.286999 0.296424
v -0.611935 -3.714232 0.176157
v -1.080366 -3.857423 0.150106
v -1.075563 -4.286999 0.101333
v -0.606804 -3.714232 0.071952
v -1.061152 -3.857423 -0.044984
v -1.046925 -4.286999 -0.091883
v -0.581442 -3.714232 -0.029249
v -1.004246 -3.857423 -0.232578
v -0.981144 -4.286999 -0.275799
v -0.536823 -3.714232 -0.123557
v -0.911836 -3.857423 -0.405464
v -0.880745 -4.286999 -0.443349
v -0.474663 -3.714232 -0.207349
v -0.787473 -3.857423 -0.557001
v -0.749589 -4.286999 -0.588092
v -0.397351 -3.714232 -0.277404
v -0.635937 -3.857423 -0.681364
v -0.592715 -4.286999 -0.704466
v -0.307857 -3.714232 -0.331031
v -0.463050 -3.857423 -0.773774
v -0.416152 -4.286999 -0.788000
v -0.209621 -3.714232 -0.366167
v -0.275457 -3.857423 -0.830679
v -0.226684 -4.286999 -0.835483
v -0.106418 -3.714232 -0.381463
v -0.129139 -4.000615 -0.845091
v -0.226684 -4.000615 -0.835483
v -0.177912 -4.143807 -0.840287
v -0.177912 -3.857423 -0.840287
v -0.322355 -4.000615 -0.816453
v -0.416152 -4.000615 -0.788000
v -0.369253 -4.143807 -0.802227
v -0.369253 -3.857423 -0.802227
v -0.506272 -4.000615 -0.750671
v -0.592715 -4.000615 -0.704466
v -0.549493 -4.143807 -0.727569
v -0.549493 -3.857423 -0.727569
v -0.673821 -4.000615 -0.650273
v -0.749589 -4.000615 -0.588092
v -0.711705 -4.143807 -0.619182
v -0.711705 -3.857423 -0.619182
v -0.818564 -4.000615 -0.519117
v -0.880745 -4.000615 -0.443349
v -0.849655 -4.143807 -0.481233
v -0.849655 -3.857423 -0.481233
v -0.934939 -4.000615 -0.362243
v -0.981144 -4.000615 -0.275799
v -0.958041 -4.143807 -0.319021
v -0.958041 -3.857423 -0.319021
v -1.018472 -4.000615 -0.185679
v -1.046925 -4.000615 -0.091883
v -1.032699 -4.143807 -0.138781
v -1.032699 -3.857423 -0.138781
v -1.065955 -4.000615 0.003788
v -1.075563 -4.000615 0.101333
v -1.070759 -4.143807 0.052561
v -1.070759 -3.857423 0.052561
v -1.075563 -4.000615 0.198878
v -1.065955 -4.000615 0.296424
v -1.070759 -4.143807 0.247651
v -1.070759 -3.857423 0.247651
v -1.046925 -4.000615 0.392094
v -1.018472 -4.000615 0.485891
v -1.032699 -4.143807 0.438993
v -1.032699 -3.857423 0.438993
v -0.981144 -4.000615 0.576011
v -0.934939 -4.000615 0.662454
v -0.958041 -4.143807 0.619233
v -0.958041 -3.857423 0.619233
v -0.880745 -4.000615 0.743560
v -0.818564 -4.000615 0.819328
v -0.849655 -4.143807 0.781444
v -0.849655 -3.857423 0.781444
v -0.749589 -4.000615 0.888303
v -0.673821 -4.000615 0.950485
v -0.711705 -4.143807 0.919394
v -0.711705 -3.857423 0.919394
v -0.592715 -4.000615 1.004678
v -0.506272 -4.000615 1.050883
v -0.549493 -4.143807 1.027780
v -0.549493 -3.857423 1.027780
v -0.416152 -4.000615 1.088212
v -0.322355 -4.000615 1.116665
v -0.369253 -4.143807 1.102438
v -0.369253 -3.857423 1.102438
v -0.226684 -4.000615 1.135695
v -0.129139 -4.000615 1.145302
v -0.177912 -4.143807 1.140498
v -0.177912 -3.857423 1.140498
v -0.031594 -4.000615 1.145302
v 0.065951 -4.000615 1.135695
v 0.017179 -4.143807 1.140498
v 0.017179 -3.857423 1.140498
v 0.161622 -4.000615 1.116665
v 0.255419 -4.000615 1.088212
v 0.208520 -4.143807 1.102438
v 0.208520 -3.857423 1.102438
v 0.345539 -4.000615 1.050883
v 0.431982 -4.000615 1.004678
v 0.388760 -4.143807 1.027780
v 0.388760 -3.857423 1.027780
v 0.513088 -4.000615 0.950485
v 0.588856 -4.000615 0.888303
v 0.550972 -4.143807 0.919394
v 0.550972 -3.857423 0.919394
v 0.657831 -4.000615 0.819328
v 0.720012 -4.000615 0.743560
v 0.688922 -4.143807 0.781444
v 0.688922 -3.857423 0.781444
v 0.774206 -4.000615 0.662454
v 0.820411 -4.000615 0.576011
v 0.797308 -4.143807 0.619233
v 0.797308 -3.857423 0.619233
v 0.857739 -4.000615 0.485891
v 0.886192 -4.000615 0.392094
v 0.871966 -4.143807 0.438993
v 0.871966 -3.857423 0.438993
v 0.905222 -4.000615 0.296424
v 0.914830 -4.000615 0.198878
v 0.910026 -4.143807 0.247651
v 0.910026 -3.857423 0.247651
v 0.914830 -4.000615 0.101333
v 0.905222 -4.000615 0.003788
v 0.910026 -4.143807 0.052561
v 0.910026 -3.857423 0.052561
v 0.886192 -4.000615 -0.091883
v 0.857739 -4.000615 -0.185679
v 0.871966 -4.143807 -0.138781
v 0.871966 -3.857423 -0.138781
v 0.820411 -4.000615 -0.275799
v 0.774206 -4.000615 -0.362243
v 0.797308 -4.143807 -0.319021
v 0.797308 -3.857423 -0.319021
v 0.720012 -4.000615 -0.443349
v 0.657831 -4.000615 -0.519117
v 0.688922 -4.143807 -0.481233
v 0.688922 -3.857423 -0.481233
v 0.588856 -4.000615 -0.588092
v 0.513088 -4.000615 -0.650273
v 0.550972 -4.143807 -0.619182
v 0.550972 -3.857423 -0.619182
v 0.431982 -4.000615 -0.704466
v 0.345539 -4.000615 -0.750671
v 0.388760 -4.143807 -0.727569
v 0.388760 -3.857423 -0.727569
v 0.255419 -4.000615 -0.788000
v 0.161622 -4.000615 -0.816453
v 0.208520 -4.143807 -0.802227
v 0.208520 -3.857423 -0.802227
v 0.065951 -4.000615 -0.835483
v -0.031594 -4.000615 -0.845091
v 0.017179 -4.143807 -0.840287
v 0.017179 -3.857423 -0.840287
v -0.031594 -3.857423 -0.845091
v -0.031594 -4.143807 -0.845091
v 0.065951 -4.143807 -0.835483
v 0.161622 -3.857423 -0.816453
v 0.161622 -4.143807 -0.816453
v 0.255419 -4.143807 -0.788000
v 0.345539 -3.857423 -0.750671
v 0.345539 -4.143807 -0.750671
v 0.431982 -4.143807 -0.704466
v 0.513088 -3.857423 -0.650273
v 0.513088 -4.143807 -0.650273
v 0.588856 -4.143807 -0.588092
v 0.657831 -3.857423 -0.519117
v 0.657831 -4.143807 -0.519117
v 0.720012 -4.143807 -0.443349
v 0.774206 -3.857423 -0.362243
v 0.774206 -4.143807 -0.362243
v 0.820411 -4.143807 -0.275799
v 0.857739 -3.857423 -0.185679
v 0.857739 -4.143807 -0.185679
v 0.886192 -4.143807 -0.091883
v 0.905222 -3.857423 0.003788
v 0.905222 -4.143807 0.003788
v 0.914830 -4.143807 0.101333
v 0.914830 -3.857423 0.198878
v 0.914830 -4.143807 0.198878
v 0.905222 -4.143807 0.296424
v 0.886192 -3.857423 0.392094
v 0.886192 -4.143807 0.392094
v 0.857739 -4.143807 0.485891
v 0.820411 -3.857423 0.576011
v 0.820411 -4.143807 0.576011
v 0.774206 -4.143807 0.662454
v 0.720012 -3.857423 0.743560
v 0.720012 -4.143807 0.743560
v 0.657831 -4.143807 0.819328
v 0.588856 -3.857423 0.888303
v 0.588856 -4.143807 0.888303
v 0.513088 -4.143807 0.950485
v 0.431982 -3.857423 1.004678
v 0.431982 -4.143807 1.004678
v 0.345539 -4.143807 1.050883
v 0.255419 -3.857423 1.088212
v 0.255419 -4.143807 1.088212
v 0.161622 -4.143807 1.116665
v 0.065951 -3.857423 1.135695
v 0.065951 -4.143807 1.135695
v -0.031594 -4.143807 1.145302
v -0.129139 -3.857423 1.145302
v -0.129139 -4.143807 1.145302
v -0.226684 -4.143807 1.135695
v -0.322355 -3.857423 1.116665
v -0.322355 -4.143807 1.116665
v -0.416152 -4.143807 1.088212
v -0.506272 -3.857423 1.050883
v -0.506272 -4.143807 1.050883
v -0.592715 -4.143807 1.004678
v -0.673821 -3.857423 0.950485
v -0.673821 -4.143807 0.950485
v -0.749589 -4.143807 0.888303
v -0.818564 -3.857423 0.819328
v -0.818564 -4.143807 0.819328
v -0.880745 -4.143807 0.743560
v -0.934939 -3.857423 0.662454
v -0.934939 -4.143807 0.662454
v -0.981144 -4.143807 0.576011
v -1.018472 -3.857423 0.485891
v -1.018472 -4.143807 0.485891
v -1.046925 -4.143807 0.392094
v -1.065955 -3.857423 0.296424
v -1.065955 -4.143807 0.296424
v -1.075563 -4.143807 0.198878
v -1.075563 -3.857423 0.101333
v -1.075563 -4.143807 0.101333
v -1.065955 -4.143807 0.003788
v -1.046925 -3.857423 -0.091883
v -1.046925 -4.143807 -0.091883
v -1.018472 -4.143807 -0.185679
v -0.981144 -3.857423 -0.275799
v -0.981144 -4.143807 -0.275799
v -0.934939 -4.143807 -0.362243
v -0.880745 -3.857423 -0.443349
v -0.880745 -4.143807 -0.443349
v -0.818564 -4.143807 -0.519117
v -0.749589 -3.857423 -0.588092
v -0.749589 -4.143807 -0.588092
v -0.673821 -4.143807 -0.650273
v -0.592715 -3.857423 -0.704466
v -0.592715 -4.143807 -0.704466
v -0.506272 -4.143807 -0.750671
v -0.416152 -3.857423 -0.788000
v -0.416152 -4.143807 -0.788000
v -0.322355 -4.143807 -0.816453
v -0.226684 -3.857423 -0.835483
v -0.226684 -4.143807 -0.835483
v -0.129139 -4.143807 -0.845091
v -0.129139 -3.857423 -0.845091
v -0.322355 -3.857423 -0.816453
v -0.506272 -3.857423 -0.750671
v -0.673821 -3.857423 -0.650273
v -0.818564 -3.857423 -0.519117
v -0.934939 -3.857423 -0.362243
v -1.018472 -3.857423 -0.185679
v -1.065955 -3.857423 0.003788
v -1.075563 -3.857423 0.198878
v -1.046925 -3.857423 0.392094
v -0.981144 -3.857423 0.576011
v -0.880745 -3.857423 0.743560
v -0.749589 -3.857423 0.888303
v -0.592715 -3.857423 1.004678
v -0.416152 -3.857423 1.088212
v -0.226684 -3.857423 1.135695
v -0.031594 -3.857423 1.145302
v 0.161622 -3.857423 1.116665
v 0.345539 -3.857423 1.050883
v 0.513088 -3.857423 0.950485
v 0.657831 -3.857423 0.819328
v 0.774206 -3.857423 0.662454
v 0.857739 -3.857423 0.485891
v 0.905222 -3.857423 0.296424
v 0.914830 -3.857423 0.101333
v 0.886192 -3.857423 -0.091883
v 0.820411 -3.857423 -0.275799
v 0.720012 -3.857423 -0.443349
v 0.588856 -3.857423 -0.588092
v 0.431982 -3.857423 -0.704466
v 0.255419 -3.857423 -0.788000
v 0.065951 -3.857423 -0.835483
vn 0.0289 0.9555 -0.2937
vn 0.0857 0.9555 -0.2824
vn 0.1391 0.9555 -0.2603
vn 0.1872 0.9555 -0.2281
vn 0.2281 0.9555 -0.1872
vn 0.2603 0.9555 -0.1391
vn 0.2824 0.9555 -0.0857
vn 0.2937 0.9555 -0.0289
vn 0.2937 0.9555 0.0289
vn 0.2824 0.9555 0.0857
vn 0.2603 0.9555 0.1391
vn 0.2281 0.9555 0.1872
vn 0.1872 0.9555 0.2281
vn 0.1391 0.9555 0.2603
vn 0.0857 0.9555 0.2824
vn 0.0289 0.9555 0.2937
vn -0.0289 0.9555 0.2937
vn -0.0857 0.9555 0.2824
vn -0.1391 0.9555 0.2603
vn -0.1872 0.9555 0.2281
vn -0.2281 0.9555 0.1872
vn -0.2603 0.9555 0.1391
vn -0.2824 0.9555 0.0857
vn -0.2937 0.9555 0.0289
vn -0.2937 0.9555 -0.0289
vn -0.2824 0.9555 -0.0857
vn -0.2603 0.9555 -0.1391
vn -0.2281 0.9555 -0.1872
vn -0.1872 0.9555 -0.2281
vn -0.1391 0.9555 -0.2603
vn -0.0000 1.0000 -0.0000
vn -0.0857 0.9555 -0.2824
vn -0.0289 0.9555 -0.2937
vn -0.0000 -1.0000 -0.0000
vn -0.0980 -0.0000 -0.9952
vn -0.2903 -0.0000 -0.9569
vn -0.4714 -0.0000 -0.8819
vn -0.6344 -0.0000 -0.7730
vn -0.7730 -0.0000 -0.6344
vn -0.8819 -0.0000 -0.4714
vn -0.9569 -0.0000 -0.2903
vn -0.9952 -0.0000 -0.0980
vn -0.9952 -0.0000 0.0980
vn -0.9569 -0.0000 0.2903
vn -0.8819 -0.0000 0.4714
vn -0.7730 -0.0000 0.6344
vn -0.6344 -0.0000 0.7730
vn -0.4714 -0.0000 0.8819
vn -0.2903 -0.0000 0.9569
vn -0.0980 -0.0000 0.9952
vn 0.0980 -0.0000 0.9952
vn 0.2903 -0.0000 0.9569
vn 0.4714 -0.0000 0.8819
vn 0.6344 -0.0000 0.7730
vn 0.7730 -0.0000 0.6344
vn 0.8819 -0.0000 0.4714
vn 0.9569 -0.0000 0.2903
vn 0.9952 -0.0000 0.0980
vn 0.9952 -0.0000 -0.0980
vn 0.9569 -0.0000 -0.2903
vn 0.8819 -0.0000 -0.4714
vn 0.7730 -0.0000 -0.6344
vn 0.6344 -0.0000 -0.7730
vn 0.4714 -0.0000 -0.8819
vn 0.2903 -0.0000 -0.9569
vn 0.0980 -0.0000 -0.9952
vt 0.976562 0.875000
vt 0.976562 1.000000
vt 0.968750 1.000000
vt 0.968750 0.875000
vt 0.945312 0.875000
vt 0.945312 1.000000
vt 0.937500 1.000000
vt 0.937500 0.875000
vt 0.914062 0.875000
vt 0.914062 1.000000
vt 0.906250 1.000000
vt 0.906250 0.875000
vt 0.882812 0.875000
vt 0.882812 1.000000
vt 0.875000 1.000000
vt 0.875000 0.875000
vt 0.851562 0.875000
vt 0.851562 1.000000
vt 0.843750 1.000000
vt 0.843750 0.875000
vt 0.820312 0.875000
vt 0.820312 1.000000
vt 0.812500 1.000000
vt 0.812500 0.875000
vt 0.789062 0.875000
vt 0.789062 1.000000
vt 0.781250 1.000000
vt 0.781250 0.875000
vt 0.757812 0.875000
vt 0.757812 1.000000
vt 0.750000 1.000000
vt 0.750000 0.875000
vt 0.726562 0.875000
vt 0.726562 1.000000
vt 0.718750 1.000000
vt 0.718750 0.875000
vt 0.695312 0.875000
vt 0.695312 1.000000
vt 0.687500 1.000000
vt 0.687500 0.875000
vt 0.664062 0.875000
vt 0.664062 1.000000
vt 0.656250 1.000000
vt 0.656250 0.875000
vt 0.632812 0.875000
vt 0.632812 1.000000
vt 0.625000 1.000000
vt 0.625000 0.875000
vt 0.601562 0.875000
vt 0.601562 1.000000
vt 0.593750 1.000000
vt 0.593750 0.875000
vt 0.570312 0.875000
vt 0.570312 1.000000
vt 0.562500 1.000000
vt 0.562500 0.875000
vt 0.539062 0.875000
vt 0.539062 1.000000
vt 0.531250 1.000000
vt 0.531250 0.875000
vt 0.507812 0.875000
vt 0.507812 1.000000
vt 0.500000 1.000000
vt 0.500000 0.875000
vt 0.476562 0.875000
vt 0.476562 1.000000
vt 0.468750 1.000000
vt 0.468750 0.875000
vt 0.445312 0.875000
vt 0.445312 1.000000
vt 0.437500 1.000000
vt 0.437500 0.875000
vt 0.414062 0.875000
vt 0.414062 1.000000
vt 0.406250 1.000000
vt 0.406250 0.875000
vt 0.382812 0.875000
vt 0.382812 1.000000
vt 0.375000 1.000000
vt 0.375000 0.875000
vt 0.351562 0.875000
vt 0.351562 1.000000
vt 0.343750 1.000000
vt 0.343750 0.875000
vt 0.320312 0.875000
vt 0.320312 1.000000
vt 0.312500 1.000000
vt 0.312500 0.875000
vt 0.289062 0.875000
vt 0.289062 1.000000
vt 0.281250 1.000000
vt 0.281250 0.875000
vt 0.257812 0.875000
vt 0.257812 1.000000
vt 0.250000 1.000000
vt 0.250000 0.875000
vt 0.226562 0.875000
vt 0.226562 1.000000
vt 0.218750 1.000000
vt 0.218750 0.875000
vt 0.195312 0.875000
vt 0.195312 1.000000
vt 0.187500 1.000000
vt 0.187500 0.875000
vt 0.164062 0.875000
vt 0.164062 1.000000
vt 0.156250 1.000000
vt 0.156250 0.875000
vt 0.132812 0.875000
vt 0.132812 1.000000
vt 0.125000 1.000000
vt 0.125000 0.875000
vt 0.101562 0.875000
vt 0.101562 1.000000
vt 0.093750 1.000000
vt 0.093750 0.875000
vt 0.070312 0.875000
vt 0.070312 1.000000
vt 0.062500 1.000000
vt 0.062500 0.875000
vt 0.296822 0.485388
vt 0.285116 0.486541
vt 0.273411 0.487694
vt 0.261705 0.488847
vt 0.250000 0.490000
vt 0.238295 0.488847
vt 0.226589 0.487694
vt 0.214884 0.486541
vt 0.203178 0.485388
vt 0.191923 0.481974
vt 0.180667 0.478560
vt 0.169412 0.475145
vt 0.158156 0.471731
vt 0.147783 0.466186
vt 0.137410 0.460642
vt 0.127036 0.455097
vt 0.116663 0.449553
vt 0.107571 0.442091
vt 0.098479 0.434629
vt 0.089387 0.427167
vt 0.080294 0.419706
vt 0.072833 0.410613
vt 0.065371 0.401521
vt 0.057909 0.392429
vt 0.050447 0.383337
vt 0.044903 0.372964
vt 0.039358 0.362590
vt 0.033814 0.352217
vt 0.028269 0.341844
vt 0.024855 0.330588
vt 0.021440 0.319333
vt 0.018026 0.308077
vt 0.014612 0.296822
vt 0.013459 0.285116
vt 0.012306 0.273411
vt 0.011153 0.261705
vt 0.010000 0.250000
vt 0.011153 0.238295
vt 0.012306 0.226589
vt 0.013459 0.214884
vt 0.014612 0.203178
vt 0.018026 0.191923
vt 0.021440 0.180667
vt 0.024855 0.169412
vt 0.028269 0.158156
vt 0.033814 0.147783
vt 0.039358 0.137410
vt 0.044903 0.127036
vt 0.050447 0.116663
vt 0.057909 0.107571
vt 0.065371 0.098479
vt 0.072833 0.089387
vt 0.080294 0.080294
vt 0.089387 0.072833
vt 0.098479 0.065371
vt 0.107571 0.057909
vt 0.116663 0.050447
vt 0.127036 0.044903
vt 0.137410 0.039358
vt 0.147783 0.033814
vt 0.158156 0.028269
vt 0.169412 0.024855
vt 0.180667 0.021440
vt 0.191923 0.018026
vt 0.203178 0.014612
vt 0.214884 0.013459
vt 0.226589 0.012306
vt 0.238295 0.011153
vt 0.250000 0.010000
vt 0.261705 0.011153
vt 0.273411 0.012306
vt 0.285116 0.013459
vt 0.296822 0.014612
vt 0.308077 0.018026
vt 0.319333 0.021440
vt 0.330588 0.024855
vt 0.341844 0.028269
vt 0.352217 0.033814
vt 0.362590 0.039358
vt 0.372964 0.044903
vt 0.383337 0.050447
vt 0.392429 0.057909
vt 0.401521 0.065371
vt 0.410613 0.072833
vt 0.419706 0.080294
vt 0.427167 0.089387
vt 0.434629 0.098479
vt 0.442091 0.107571
vt 0.449553 0.116663
vt 0.455097 0.127036
vt 0.460642 0.137410
vt 0.466186 0.147783
vt 0.471731 0.158156
vt 0.475145 0.169412
vt 0.478560 0.180667
vt 0.481974 0.191923
vt 0.485388 0.203178
vt 0.486541 0.214884
vt 0.487694 0.226589
vt 0.488847 0.238295
vt 0.490000 0.250000
vt 0.488847 0.261705
vt 0.487694 0.273411
vt 0.486541 0.285116
vt 0.485388 0.296822
vt 0.481974 0.308077
vt 0.478560 0.319333
vt 0.475145 0.330588
vt 0.471731 0.341844
vt 0.466186 0.352217
vt 0.460642 0.362590
vt 0.455097 0.372964
vt 0.449553 0.383337
vt 0.442091 0.392429
vt 0.434629 0.401521
vt 0.427167 0.410613
vt 0.419706 0.419706
vt 0.410613 0.427167
vt 0.401521 0.434629
vt 0.392429 0.442091
vt 0.383337 0.449553
vt 0.372964 0.455097
vt 0.362590 0.460642
vt 0.352217 0.466186
vt 0.341844 0.471731
vt 0.330588 0.475145
vt 0.319333 0.478560
vt 0.308077 0.481974
vt 0.039062 0.875000
vt 0.039062 1.000000
vt 0.031250 1.000000
vt 0.031250 0.875000
vt 0.007812 0.875000
vt 0.007812 1.000000
vt 0.000000 1.000000
vt 0.000000 0.875000
vt 0.750000 0.490000
vt 0.761705 0.488847
vt 0.773411 0.487694
vt 0.785116 0.486541
vt 0.796822 0.485388
vt 0.808077 0.481974
vt 0.819333 0.478560
vt 0.830588 0.475145
vt 0.841844 0.471731
vt 0.852217 0.466186
vt 0.862590 0.460642
vt 0.872964 0.455097
vt 0.883337 0.449553
vt 0.892429 0.442091
vt 0.901521 0.434629
vt 0.910613 0.427167
vt 0.919706 0.419706
vt 0.927167 0.410613
vt 0.934629 0.401521
vt 0.942091 0.392429
vt 0.949553 0.383337
vt 0.955097 0.372964
vt 0.960642 0.362590
vt 0.966186 0.352217
vt 0.971731 0.341844
vt 0.975145 0.330588
vt 0.978560 0.319333
vt 0.981974 0.308077
vt 0.985388 0.296822
vt 0.986541 0.285116
vt 0.987694 0.273411
vt 0.988847 0.261705
vt 0.990000 0.250000
vt 0.988847 0.238295
vt 0.987694 0.226589
vt 0.986541 0.214884
vt 0.985388 0.203178
vt 0.981974 0.191923
vt 0.978560 0.180667
vt 0.975145 0.169412
vt 0.971731 0.158156
vt 0.966186 0.147783
vt 0.960642 0.137410
vt 0.955097 0.127036
vt 0.949553 0.116663
vt 0.942091 0.107571
vt 0.934629 0.098479
vt 0.927167 0.089387
vt 0.919706 0.080294
vt 0.910613 0.072833
vt 0.901521 0.065371
vt 0.892429 0.057909
vt 0.883337 0.050447
vt 0.872964 0.044903
vt 0.862590 0.039358
vt 0.852217 0.033814
vt 0.841844 0.028269
vt 0.830588 0.024855
vt 0.819333 0.021440
vt 0.808077 0.018026
vt 0.796822 0.014612
vt 0.785116 0.013459
vt 0.773411 0.012306
vt 0.761705 0.011153
vt 0.750000 0.010000
vt 0.738295 0.011153
vt 0.726589 0.012306
vt 0.714884 0.013459
vt 0.703178 0.014612
vt 0.691923 0.018026
vt 0.680667 0.021440
vt 0.669412 0.024855
vt 0.658156 0.028269
vt 0.647783 0.033814
vt 0.637410 0.039358
vt 0.627036 0.044903
vt 0.616663 0.050447
vt 0.607571 0.057909
vt 0.598479 0.065371
vt 0.589387 0.072833
vt 0.580294 0.080294
vt 0.572833 0.089387
vt 0.565371 0.098479
vt 0.557909 0.107571
vt 0.550447 0.116663
vt 0.544903 0.127036
vt 0.539358 0.137410
vt 0.533814 0.147783
vt 0.528269 0.158156
vt 0.524855 0.169412
vt 0.521440 0.180667
vt 0.518026 0.191923
vt 0.514612 0.203178
vt 0.513459 0.214884
vt 0.512306 0.226589
vt 0.511153 0.238295
vt 0.510000 0.250000
vt 0.511153 0.261705
vt 0.512306 0.273411
vt 0.513459 0.285116
vt 0.514612 0.296822
vt 0.518026 0.308077
vt 0.521440 0.319333
vt 0.524855 0.330588
vt 0.528269 0.341844
vt 0.533814 0.352217
vt 0.539358 0.362590
vt 0.544903 0.372964
vt 0.550447 0.383337
vt 0.557909 0.392429
vt 0.565371 0.401521
vt 0.572833 0.410613
vt 0.580294 0.419706
vt 0.589387 0.427167
vt 0.598479 0.434629
vt 0.607571 0.442091
vt 0.616663 0.449553
vt 0.627036 0.455097
vt 0.637410 0.460642
vt 0.647783 0.466186
vt 0.658156 0.471731
vt 0.669412 0.475145
vt 0.680667 0.478560
vt 0.691923 0.481974
vt 0.703178 0.485388
vt 0.714884 0.486541
vt 0.726589 0.487694
vt 0.738295 0.488847
vt 0.007812 0.625000
vt 0.007812 0.750000
vt 0.000000 0.750000
vt 0.000000 0.625000
vt 0.023438 0.625000
vt 0.023438 0.750000
vt 0.015625 0.750000
vt 0.015625 0.625000
vt 0.023438 0.875000
vt 0.023438 1.000000
vt 0.015625 1.000000
vt 0.015625 0.875000
vt 0.039062 0.625000
vt 0.039062 0.750000
vt 0.031250 0.750000
vt 0.031250 0.625000
vt 0.054688 0.625000
vt 0.054688 0.750000
vt 0.046875 0.750000
vt 0.046875 0.625000
vt 0.054688 0.875000
vt 0.054688 1.000000
vt 0.046875 1.000000
vt 0.046875 0.875000
vt 0.070312 0.625000
vt 0.070312 0.750000
vt 0.062500 0.750000
vt 0.062500 0.625000
vt 0.085938 0.625000
vt 0.085938 0.750000
vt 0.078125 0.750000
vt 0.078125 0.625000
vt 0.085938 0.875000
vt 0.085938 1.000000
vt 0.078125 1.000000
vt 0.078125 0.875000
vt 0.101562 0.625000
vt 0.101562 0.750000
vt 0.093750 0.750000
vt 0.093750 0.625000
vt 0.117188 0.625000
vt 0.117188 0.750000
vt 0.109375 0.750000
vt 0.109375 0.625000
vt 0.117188 0.875000
vt 0.117188 1.000000
vt 0.109375 1.000000
vt 0.109375 0.875000
vt 0.132812 0.625000
vt 0.132812 0.750000
vt 0.125000 0.750000
vt 0.125000 0.625000
vt 0.148438 0.625000
vt 0.148438 0.750000
vt 0.140625 0.750000
vt 0.140625 0.625000
vt 0.148438 0.875000
vt 0.148438 1.000000
vt 0.140625 1.000000
vt 0.140625 0.875000
vt 0.164062 0.625000
vt 0.164062 0.750000
vt 0.156250 0.750000
vt 0.156250 0.625000
vt 0.179688 0.625000
vt 0.179688 0.750000
vt 0.171875 0.750000
vt 0.171875 0.625000
vt 0.179688 0.875000
vt 0.179688 1.000000
vt 0.171875 1.000000
vt 0.171875 0.875000
vt 0.195312 0.625000
vt 0.195312 0.750000
vt 0.187500 0.750000
vt 0.187500 0.625000
vt 0.210938 0.625000
vt 0.210938 0.750000
vt 0.203125 0.750000
vt 0.203125 0.625000
vt 0.210938 0.875000
vt 0.210938 1.000000
vt 0.203125 1.000000
vt 0.203125 0.875000
vt 0.226562 0.625000
vt 0.226562 0.750000
vt 0.218750 0.750000
vt 0.218750 0.625000
vt 0.242188 0.625000
vt 0.242188 0.750000
vt 0.234375 0.750000
vt 0.234375 0.625000
vt 0.242188 0.875000
vt 0.242188 1.000000
vt 0.234375 1.000000
vt 0.234375 0.875000
vt 0.257812 0.625000
vt 0.257812 0.750000
vt 0.250000 0.750000
vt 0.250000 0.625000
vt 0.273438 0.625000
vt 0.273438 0.750000
vt 0.265625 0.750000
vt 0.265625 0.625000
vt 0.273438 0.875000
vt 0.273438 1.000000
vt 0.265625 1.000000
vt 0.265625 0.875000
vt 0.289062 0.625000
vt 0.289062 0.750000
vt 0.281250 0.750000
vt 0.281250 0.625000
vt 0.304688 0.625000
vt 0.304688 0.750000
vt 0.296875 0.750000
vt 0.296875 0.625000
vt 0.304688 0.875000
vt 0.304688 1.000000
vt 0.296875 1.000000
vt 0.296875 0.875000
vt 0.320312 0.625000
vt 0.320312 0.750000
vt 0.312500 0.750000
vt 0.312500 0.625000
vt 0.335938 0.625000
vt 0.335938 0.750000
vt 0.328125 0.750000
vt 0.328125 0.625000
vt 0.335938 0.875000
vt 0.335938 1.000000
vt 0.328125 1.000000
vt 0.328125 0.875000
vt 0.351562 0.625000
vt 0.351562 0.750000
vt 0.343750 0.750000
vt 0.343750 0.625000
vt 0.367188 0.625000
vt 0.367188 0.750000
vt 0.359375 0.750000
vt 0.359375 0.625000
vt 0.367188 0.875000
vt 0.367188 1.000000
vt 0.359375 1.000000
vt 0.359375 0.875000
vt 0.382812 0.625000
vt 0.382812 0.750000
vt 0.375000 0.750000
vt 0.375000 0.625000
vt 0.398438 0.625000
vt 0.398438 0.750000
vt 0.390625 0.750000
vt 0.390625 0.625000
vt 0.398438 0.875000
vt 0.398438 1.000000
vt 0.390625 1.000000
vt 0.390625 0.875000
vt 0.414062 0.625000
vt 0.414062 0.750000
vt 0.406250 0.750000
vt 0.406250 0.625000
vt 0.429688 0.625000
vt 0.429688 0.750000
vt 0.421875 0.750000
vt 0.421875 0.625000
vt 0.429688 0.875000
vt 0.429688 1.000000
vt 0.421875 1.000000
vt 0.421875 0.875000
vt 0.445312 0.625000
vt 0.445312 0.750000
vt 0.437500 0.750000
vt 0.437500 0.625000
vt 0.460938 0.625000
vt 0.460938 0.750000
vt 0.453125 0.750000
vt 0.453125 0.625000
vt 0.460938 0.875000
vt 0.460938 1.000000
vt 0.453125 1.000000
vt 0.453125 0.875000
vt 0.476562 0.625000
vt 0.476562 0.750000
vt 0.468750 0.750000
vt 0.468750 0.625000
vt 0.492188 0.625000
vt 0.492188 0.750000
vt 0.484375 0.750000
vt 0.484375 0.625000
vt 0.492188 0.875000
vt 0.492188 1.000000
vt 0.484375 1.000000
vt 0.484375 0.875000
vt 0.507812 0.625000
vt 0.507812 0.750000
vt 0.500000 0.750000
vt 0.500000 0.625000
vt 0.523438 0.625000
vt 0.523438 0.750000
vt 0.515625 0.750000
vt 0.515625 0.625000
vt 0.523438 0.875000
vt 0.523438 1.000000
vt 0.515625 1.000000
vt 0.515625 0.875000
vt 0.539062 0.625000
vt 0.539062 0.750000
vt 0.531250 0.750000
vt 0.531250 0.625000
vt 0.554688 0.625000
vt 0.554688 0.750000
vt 0.546875 0.750000
vt 0.546875 0.625000
vt 0.554688 0.875000
vt 0.554688 1.000000
vt 0.546875 1.000000
vt 0.546875 0.875000
vt 0.570312 0.625000
vt 0.570312 0.750000
vt 0.562500 0.750000
vt 0.562500 0.625000
vt 0.585938 0.625000
vt 0.585938 0.750000
vt 0.578125 0.750000
vt 0.578125 0.625000
vt 0.585938 0.875000
vt 0.585938 1.000000
vt 0.578125 1.000000
vt 0.578125 0.875000
vt 0.601562 0.625000
vt 0.601562 0.750000
vt 0.593750 0.750000
vt 0.593750 0.625000
vt 0.617188 0.625000
vt 0.617188 0.750000
vt 0.609375 0.750000
vt 0.609375 0.625000
vt 0.617188 0.875000
vt 0.617188 1.000000
vt 0.609375 1.000000
vt 0.609375 0.875000
vt 0.632812 0.625000
vt 0.632812 0.750000
vt 0.625000 0.750000
vt 0.625000 0.625000
vt 0.648438 0.625000
vt 0.648438 0.750000
vt 0.640625 0.750000
vt 0.640625 0.625000
vt 0.648438 0.875000
vt 0.648438 1.000000
vt 0.640625 1.000000
vt 0.640625 0.875000
vt 0.664062 0.625000
vt 0.664062 0.750000
vt 0.656250 0.750000
vt 0.656250 0.625000
vt 0.679688 0.625000
vt 0.679688 0.750000
vt 0.671875 0.750000
vt 0.671875 0.625000
vt 0.679688 0.875000
vt 0.679688 1.000000
vt 0.671875 1.000000
vt 0.671875 0.875000
vt 0.695312 0.625000
vt 0.695312 0.750000
vt 0.687500 0.750000
vt 0.687500 0.625000
vt 0.710938 0.625000
vt 0.710938 0.750000
vt 0.703125 0.750000
vt 0.703125 0.625000
vt 0.710938 0.875000
vt 0.710938 1.000000
vt 0.703125 1.000000
vt 0.703125 0.875000
vt 0.726562 0.625000
vt 0.726562 0.750000
vt 0.718750 0.750000
vt 0.718750 0.625000
vt 0.742188 0.625000
vt 0.742188 0.750000
vt 0.734375 0.750000
vt 0.734375 0.625000
vt 0.742188 0.875000
vt 0.742188 1.000000
vt 0.734375 1.000000
vt 0.734375 0.875000
vt 0.757812 0.625000
vt 0.757812 0.750000
vt 0.750000 0.750000
vt 0.750000 0.625000
vt 0.773438 0.625000
vt 0.773438 0.750000
vt 0.765625 0.750000
vt 0.765625 0.625000
vt 0.773438 0.875000
vt 0.773438 1.000000
vt 0.765625 1.000000
vt 0.765625 0.875000
vt 0.789062 0.625000
vt 0.789062 0.750000
vt 0.781250 0.750000
vt 0.781250 0.625000
vt 0.804688 0.625000
vt 0.804688 0.750000
vt 0.796875 0.750000
vt 0.796875 0.625000
vt 0.804688 0.875000
vt 0.804688 1.000000
vt 0.796875 1.000000
vt 0.796875 0.875000
vt 0.820312 0.625000
vt 0.820312 0.750000
vt 0.812500 0.750000
vt 0.812500 0.625000
vt 0.835938 0.625000
vt 0.835938 0.750000
vt 0.828125 0.750000
vt 0.828125 0.625000
vt 0.835938 0.875000
vt 0.835938 1.000000
vt 0.828125 1.000000
vt 0.828125 0.875000
vt 0.851562 0.625000
vt 0.851562 0.750000
vt 0.843750 0.750000
vt 0.843750 0.625000
vt 0.867188 0.625000
vt 0.867188 0.750000
vt 0.859375 0.750000
vt 0.859375 0.625000
vt 0.867188 0.875000
vt 0.867188 1.000000
vt 0.859375 1.000000
vt 0.859375 0.875000
vt 0.882812 0.625000
vt 0.882812 0.750000
vt 0.875000 0.750000
vt 0.875000 0.625000
vt 0.898438 0.625000
vt 0.898438 0.750000
vt 0.890625 0.750000
vt 0.890625 0.625000
vt 0.898438 0.875000
vt 0.898438 1.000000
vt 0.890625 1.000000
vt 0.890625 0.875000
vt 0.914062 0.625000
vt 0.914062 0.750000
vt 0.906250 0.750000
vt 0.906250 0.625000
vt 0.929688 0.625000
vt 0.929688 0.750000
vt 0.921875 0.750000
vt 0.921875 0.625000
vt 0.929688 0.875000
vt 0.929688 1.000000
vt 0.921875 1.000000
vt 0.921875 0.875000
vt 0.945312 0.625000
vt 0.945312 0.750000
vt 0.937500 0.750000
vt 0.937500 0.625000
vt 0.960938 0.625000
vt 0.960938 0.750000
vt 0.953125 0.750000
vt 0.953125 0.625000
vt 0.960938 0.875000
vt 0.960938 1.000000
vt 0.953125 1.000000
vt 0.953125 0.875000
vt 0.976562 0.625000
vt 0.976562 0.750000
vt 0.968750 0.750000
vt 0.968750 0.625000
vt 0.992188 0.625000
vt 0.992188 0.750000
vt 0.984375 0.750000
vt 0.984375 0.625000
vt 0.992188 0.875000
vt 0.992188 1.000000
vt 0.984375 1.000000
vt 0.984375 0.875000
vt 1.000000 0.750000
vt 1.000000 0.875000
vt 1.000000 1.000000
vt 0.992188 0.500000
vt 0.984375 0.500000
vt 1.000000 0.500000
vt 1.000000 0.625000
vt 0.976562 0.500000
vt 0.968750 0.500000
vt 0.960938 0.500000
vt 0.953125 0.500000
vt 0.945312 0.500000
vt 0.937500 0.500000
vt 0.929688 0.500000
vt 0.921875 0.500000
vt 0.914062 0.500000
vt 0.906250 0.500000
vt 0.898438 0.500000
vt 0.890625 0.500000
vt 0.882812 0.500000
vt 0.875000 0.500000
vt 0.867188 0.500000
vt 0.859375 0.500000
vt 0.851562 0.500000
vt 0.843750 0.500000
vt 0.835938 0.500000
vt 0.828125 0.500000
vt 0.820312 0.500000
vt 0.812500 0.500000
vt 0.804688 0.500000
vt 0.796875 0.500000
vt 0.789062 0.500000
vt 0.781250 0.500000
vt 0.773438 0.500000
vt 0.765625 0.500000
vt 0.757812 0.500000
vt 0.750000 0.500000
vt 0.742188 0.500000
vt 0.734375 0.500000
vt 0.726562 0.500000
vt 0.718750 0.500000
vt 0.710938 0.500000
vt 0.703125 0.500000
vt 0.695312 0.500000
vt 0.687500 0.500000
vt 0.679688 0.500000
vt 0.671875 0.500000
vt 0.664062 0.500000
vt 0.656250 0.500000
vt 0.648438 0.500000
vt 0.640625 0.500000
vt 0.632812 0.500000
vt 0.625000 0.500000
vt 0.617188 0.500000
vt 0.609375 0.500000
vt 0.601562 0.500000
vt 0.593750 0.500000
vt 0.585938 0.500000
vt 0.578125 0.500000
vt 0.570312 0.500000
vt 0.562500 0.500000
vt 0.554688 0.500000
vt 0.546875 0.500000
vt 0.539062 0.500000
vt 0.531250 0.500000
vt 0.523438 0.500000
vt 0.515625 0.500000
vt 0.507812 0.500000
vt 0.500000 0.500000
vt 0.492188 0.500000
vt 0.484375 0.500000
vt 0.476562 0.500000
vt 0.468750 0.500000
vt 0.460938 0.500000
vt 0.453125 0.500000
vt 0.445312 0.500000
vt 0.437500 0.500000
vt 0.429688 0.500000
vt 0.421875 0.500000
vt 0.414062 0.500000
vt 0.406250 0.500000
vt 0.398438 0.500000
vt 0.390625 0.500000
vt 0.382812 0.500000
vt 0.375000 0.500000
vt 0.367188 0.500000
vt 0.359375 0.500000
vt 0.351562 0.500000
vt 0.343750 0.500000
vt 0.335938 0.500000
vt 0.328125 0.500000
vt 0.320312 0.500000
vt 0.312500 0.500000
vt 0.304688 0.500000
vt 0.296875 0.500000
vt 0.289062 0.500000
vt 0.281250 0.500000
vt 0.273438 0.500000
vt 0.265625 0.500000
vt 0.257812 0.500000
vt 0.250000 0.500000
vt 0.242188 0.500000
vt 0.234375 0.500000
vt 0.226562 0.500000
vt 0.218750 0.500000
vt 0.210938 0.500000
vt 0.203125 0.500000
vt 0.195312 0.500000
vt 0.187500 0.500000
vt 0.179688 0.500000
vt 0.171875 0.500000
vt 0.164062 0.500000
vt 0.156250 0.500000
vt 0.148438 0.500000
vt 0.140625 0.500000
vt 0.132812 0.500000
vt 0.125000 0.500000
vt 0.117188 0.500000
vt 0.109375 0.500000
vt 0.101562 0.500000
vt 0.093750 0.500000
vt 0.085938 0.500000
vt 0.078125 0.500000
vt 0.070312 0.500000
vt 0.062500 0.500000
vt 0.054688 0.500000
vt 0.046875 0.500000
vt 0.039062 0.500000
vt 0.031250 0.500000
vt 0.023438 0.500000
vt 0.015625 0.500000
vt 0.007812 0.500000
vt 0.000000 0.500000
s 0
f 772/132/67 422/133/67 136/134/67 424/135/67
f 771/136/68 426/137/68 138/138/68 427/139/68
f 770/140/69 429/141/69 140/142/69 430/143/69
f 769/144/70 432/145/70 142/146/70 433/147/70
f 768/148/71 435/149/71 144/150/71 436/151/71
f 767/152/72 438/153/72 146/154/72 439/155/72
f 766/156/73 441/157/73 148/158/73 442/159/73
f 765/160/74 444/161/74 150/162/74 445/163/74
f 764/164/75 447/165/75 152/166/75 448/167/75
f 763/168/76 450/169/76 154/170/76 451/171/76
f 762/172/77 453/173/77 156/174/77 454/175/77
f 761/176/78 456/177/78 158/178/78 457/179/78
f 760/180/79 459/181/79 160/182/79 460/183/79
f 759/184/80 462/185/80 162/186/80 463/187/80
f 758/188/81 465/189/81 164/190/81 466/191/81
f 757/192/82 468/193/82 166/194/82 469/195/82
f 756/196/83 471/197/83 168/198/83 472/199/83
f 755/200/84 474/201/84 170/202/84 475/203/84
f 754/204/85 477/205/85 172/206/85 478/207/85
f 753/208/86 480/209/86 174/210/86 481/211/86
f 752/212/87 483/213/87 176/214/87 484/215/87
f 751/216/88 486/217/88 178/218/88 487/219/88
f 750/220/89 489/221/89 180/222/89 490/223/89
f 749/224/90 492/225/90 182/226/90 493/227/90
f 748/228/91 495/229/91 184/230/91 496/231/91
f 747/232/92 498/233/92 186/234/92 499/235/92
f 746/236/93 501/237/93 188/238/93 502/239/93
f 745/240/94 504/241/94 190/242/94 505/243/94
f 744/244/95 507/245/95 192/246/95 508/247/95
f 743/248/96 510/249/96 194/250/96 511/251/96
f 136/252/97 422/253/97 198/254/97 326/255/97 134/256/97 516/257/97 292/258/97 420/259/97 196/260/97 513/261/97 289/262/97 417/263/97 194/264/97 510/265/97 286/266/97 414/267/97 192/268/97 507/269/97 283/270/97 411/271/97 190/272/97 504/273/97 280/274/97 408/275/97 188/276/97 501/277/97 277/278/97 405/279/97 186/280/97 498/281/97 274/282/97 402/283/97 184/284/97 495/285/97 271/286/97 399/287/97 182/288/97 492/289/97 268/290/97 396/291/97 180/292/97 489/293/97 265/294/97 393/295/97 178/296/97 486/297/97 262/298/97 390/299/97 176/300/97 483/301/97 259/302/97 387/303/97 174/304/97 480/305/97 256/306/97 384/307/97 172/308/97 477/309/97 253/310/97 381/311/97 170/312/97 474/313/97 250/314/97 378/315/97 168/316/97 471/317/97 247/318/97 375/319/97 166/320/97 468/321/97 244/322/97 372/323/97 164/324/97 465/325/97 241/326/97 369/327/97 162/328/97 462/329/97 238/330/97 366/331/97 160/332/97 459/333/97 235/334/97 363/335/97 158/336/97 456/337/97 232/338/97 360/339/97 156/340/97 453/341/97 229/342/97 357/343/97 154/344/97 450/345/97 226/346/97 354/347/97 152/348/97 447/349/97 223/350/97 351/351/97 150/352/97 444/353/97 220/354/97 348/355/97 148/356/97 441/357/97 217/358/97 345/359/97 146/360/97 438/361/97 214/362/97 342/363/97 144/364/97 435/365/97 211/366/97 339/367/97 142/368/97 432/369/97 208/370/97 336/371/97 140/372/97 429/373/97 205/374/97 333/375/97 138/376/97 426/377/97 202/378/97 330/379/97
f 742/380/98 513/381/98 196/382/98 514/383/98
f 741/384/99 516/385/99 134/386/99 327/387/99
f 133/388/100 421/389/100 197/390/100 325/391/100 135/392/100 425/393/100 201/394/100 329/395/100 137/396/100 428/397/100 204/398/100 332/399/100 139/400/100 431/401/100 207/402/100 335/403/100 141/404/100 434/405/100 210/406/100 338/407/100 143/408/100 437/409/100 213/410/100 341/411/100 145/412/100 440/413/100 216/414/100 344/415/100 147/416/100 443/417/100 219/418/100 347/419/100 149/420/100 446/421/100 222/422/100 350/423/100 151/424/100 449/425/100 225/426/100 353/427/100 153/428/100 452/429/100 228/430/100 356/431/100 155/432/100 455/433/100 231/434/100 359/435/100 157/436/100 458/437/100 234/438/100 362/439/100 159/440/100 461/441/100 237/442/100 365/443/100 161/444/100 464/445/100 240/446/100 368/447/100 163/448/100 467/449/100 243/450/100 371/451/100 165/452/100 470/453/100 246/454/100 374/455/100 167/456/100 473/457/100 249/458/100 377/459/100 169/460/100 476/461/100 252/462/100 380/463/100 171/464/100 479/465/100 255/466/100 383/467/100 173/468/100 482/469/100 258/470/100 386/471/100 175/472/100 485/473/100 261/474/100 389/475/100 177/476/100 488/477/100 264/478/100 392/479/100 179/480/100 491/481/100 267/482/100 395/483/100 181/484/100 494/485/100 270/486/100 398/487/100 183/488/100 497/489/100 273/490/100 401/491/100 185/492/100 500/493/100 276/494/100 404/495/100 187/496/100 503/497/100 279/498/100 407/499/100 189/500/100 506/501/100 282/502/100 410/503/100 191/504/100 509/505/100 285/506/100 413/507/100 193/508/100 512/509/100 288/510/100 416/511/100 195/512/100 515/513/100 291/514/100 419/515/100
f 740/516/101 517/517/101 199/518/101 423/519/101
f 739/520/101 518/521/101 293/522/101 519/523/101
f 738/524/99 420/525/99 292/526/99 520/527/99
f 737/528/102 521/529/102 290/530/102 418/531/102
f 736/532/102 522/533/102 294/534/102 523/535/102
f 735/536/98 417/537/98 289/538/98 524/539/98
f 734/540/103 525/541/103 287/542/103 415/543/103
f 733/544/103 526/545/103 295/546/103 527/547/103
f 732/548/96 414/549/96 286/550/96 528/551/96
f 731/552/104 529/553/104 284/554/104 412/555/104
f 730/556/104 530/557/104 296/558/104 531/559/104
f 729/560/95 411/561/95 283/562/95 532/563/95
f 728/564/105 533/565/105 281/566/105 409/567/105
f 727/568/105 534/569/105 297/570/105 535/571/105
f 726/572/94 408/573/94 280/574/94 536/575/94
f 725/576/106 537/577/106 278/578/106 406/579/106
f 724/580/106 538/581/106 298/582/106 539/583/106
f 723/584/93 405/585/93 277/586/93 540/587/93
f 722/588/107 541/589/107 275/590/107 403/591/107
f 721/592/107 542/593/107 299/594/107 543/595/107
f 720/596/92 402/597/92 274/598/92 544/599/92
f 719/600/108 545/601/108 272/602/108 400/603/108
f 718/604/108 546/605/108 300/606/108 547/607/108
f 717/608/91 399/609/91 271/610/91 548/611/91
f 716/612/109 549/613/109 269/614/109 397/615/109
f 715/616/109 550/617/109 301/618/109 551/619/109
f 714/620/90 396/621/90 268/622/90 552/623/90
f 713/624/110 553/625/110 266/626/110 394/627/110
f 712/628/110 554/629/110 302/630/110 555/631/110
f 711/632/89 393/633/89 265/634/89 556/635/89
f 710/636/111 557/637/111 263/638/111 391/639/111
f 709/640/111 558/641/111 303/642/111 559/643/111
f 708/644/88 390/645/88 262/646/88 560/647/88
f 707/648/112 561/649/112 260/650/112 388/651/112
f 706/652/112 562/653/112 304/654/112 563/655/112
f 705/656/87 387/657/87 259/658/87 564/659/87
f 704/660/113 565/661/113 257/662/113 385/663/113
f 703/664/113 566/665/113 305/666/113 567/667/113
f 702/668/86 384/669/86 256/670/86 568/671/86
f 701/672/114 569/673/114 254/674/114 382/675/114
f 700/676/114 570/677/114 306/678/114 571/679/114
f 699/680/85 381/681/85 253/682/85 572/683/85
f 698/684/115 573/685/115 251/686/115 379/687/115
f 697/688/115 574/689/115 307/690/115 575/691/115
f 696/692/84 378/693/84 250/694/84 576/695/84
f 695/696/116 577/697/116 248/698/116 376/699/116
f 694/700/116 578/701/116 308/702/116 579/703/116
f 693/704/83 375/705/83 247/706/83 580/707/83
f 692/708/117 581/709/117 245/710/117 373/711/117
f 691/712/117 582/713/117 309/714/117 583/715/117
f 690/716/82 372/717/82 244/718/82 584/719/82
f 689/720/118 585/721/118 242/722/118 370/723/118
f 688/724/118 586/725/118 310/726/118 587/727/118
f 687/728/81 369/729/81 241/730/81 588/731/81
f 686/732/119 589/733/119 239/734/119 367/735/119
f 685/736/119 590/737/119 311/738/119 591/739/119
f 684/740/80 366/741/80 238/742/80 592/743/80
f 683/744/120 593/745/120 236/746/120 364/747/120
f 682/748/120 594/749/120 312/750/120 595/751/120
f 681/752/79 363/753/79 235/754/79 596/755/79
f 680/756/121 597/757/121 233/758/121 361/759/121
f 679/760/121 598/761/121 313/762/121 599/763/121
f 678/764/78 360/765/78 232/766/78 600/767/78
f 677/768/122 601/769/122 230/770/122 358/771/122
f 676/772/122 602/773/122 314/774/122 603/775/122
f 675/776/77 357/777/77 229/778/77 604/779/77
f 674/780/123 605/781/123 227/782/123 355/783/123
f 673/784/123 606/785/123 315/786/123 607/787/123
f 672/788/76 354/789/76 226/790/76 608/791/76
f 671/792/124 609/793/124 224/794/124 352/795/124
f 670/796/124 610/797/124 316/798/124 611/799/124
f 669/800/75 351/801/75 223/802/75 612/803/75
f 668/804/125 613/805/125 221/806/125 349/807/125
f 667/808/125 614/809/125 317/810/125 615/811/125
f 666/812/74 348/813/74 220/814/74 616/815/74
f 665/816/126 617/817/126 218/818/126 346/819/126
f 664/820/126 618/821/126 318/822/126 619/823/126
f 663/824/73 345/825/73 217/826/73 620/827/73
f 662/828/127 621/829/127 215/830/127 343/831/127
f 661/832/127 622/833/127 319/834/127 623/835/127
f 660/836/72 342/837/72 214/838/72 624/839/72
f 659/840/128 625/841/128 212/842/128 340/843/128
f 658/844/128 626/845/128 320/846/128 627/847/128
f 657/848/71 339/849/71 211/850/71 628/851/71
f 656/852/129 629/853/129 209/854/129 337/855/129
f 655/856/129 630/857/129 321/858/129 631/859/129
f 654/860/70 336/861/70 208/862/70 632/863/70
f 653/864/130 633/865/130 206/866/130 334/867/130
f 652/868/130 634/869/130 322/870/130 635/871/130
f 651/872/69 333/873/69 205/874/69 636/875/69
f 650/876/131 637/877/131 203/878/131 331/879/131
f 649/880/131 638/881/131 323/882/131 639/883/131
f 648/884/68 330/885/68 202/886/68 640/887/68
f 647/888/132 641/889/132 200/890/132 328/891/132
f 646/892/132 642/893/132 324/894/132 643/895/132
f 645/896/67 326/897/67 198/898/67 644/899/67
f 642/893/132 645/896/132 644/899/132 324/894/132
f 199/900/132 327/901/132 645/896/132 642/893/132
f 327/901/67 134/902/67 326/897/67 645/896/67
f 421/903/132 646/892/132 643/895/132 197/904/132
f 133/905/132 423/906/132 646/892/132 421/903/132
f 423/906/132 199/900/132 642/893/132 646/892/132
f 325/907/132 647/888/132 328/891/132 135/908/132
f 197/904/132 643/895/132 647/888/132 325/907/132
f 643/895/132 324/894/132 641/889/132 647/888/132
f 638/881/131 648/884/131 640/887/131 323/882/131
f 200/890/131 424/135/131 648/884/131 638/881/131
f 424/135/68 136/134/68 330/885/68 648/884/68
f 425/909/131 649/880/131 639/883/131 201/910/131
f 135/908/131 328/891/131 649/880/131 425/909/131
f 328/891/131 200/890/131 638/881/131 649/880/131
f 329/911/131 650/876/131 331/879/131 137/912/131
f 201/910/131 639/883/131 650/876/131 329/911/131
f 639/883/131 323/882/131 637/877/131 650/876/131
f 634/869/130 651/872/130 636/875/130 322/870/130
f 203/878/130 427/139/130 651/872/130 634/869/130
f 427/139/69 138/138/69 333/873/69 651/872/69
f 428/913/130 652/868/130 635/871/130 204/914/130
f 137/912/130 331/879/130 652/868/130 428/913/130
f 331/879/130 203/878/130 634/869/130 652/868/130
f 332/915/130 653/864/130 334/867/130 139/916/130
f 204/914/130 635/871/130 653/864/130 332/915/130
f 635/871/130 322/870/130 633/865/130 653/864/130
f 630/857/129 654/860/129 632/863/129 321/858/129
f 206/866/129 430/143/129 654/860/129 630/857/129
f 430/143/70 140/142/70 336/861/70 654/860/70
f 431/917/129 655/856/129 631/859/129 207/918/129
f 139/916/129 334/867/129 655/856/129 431/917/129
f 334/867/129 206/866/129 630/857/129 655/856/129
f 335/919/129 656/852/129 337/855/129 141/920/129
f 207/918/129 631/859/129 656/852/129 335/919/129
f 631/859/129 321/858/129 629/853/129 656/852/129
f 626/845/128 657/848/128 628/851/128 320/846/128
f 209/854/128 433/147/128 657/848/128 626/845/128
f 433/147/71 142/146/71 339/849/71 657/848/71
f 434/921/128 658/844/128 627/847/128 210/922/128
f 141/920/128 337/855/128 658/844/128 434/921/128
f 337/855/128 209/854/128 626/845/128 658/844/128
f 338/923/128 659/840/128 340/843/128 143/924/128
f 210/922/128 627/847/128 659/840/128 338/923/128
f 627/847/128 320/846/128 625/841/128 659/840/128
f 622/833/127 660/836/127 624/839/127 319/834/127
f 212/842/127 436/151/127 660/836/127 622/833/127
f 436/151/72 144/150/72 342/837/72 660/836/72
f 437/925/127 661/832/127 623/835/127 213/926/127
f 143/924/127 340/843/127 661/832/127 437/925/127
f 340/843/127 212/842/127 622/833/127 661/832/127
f 341/927/127 662/828/127 343/831/127 145/928/127
f 213/926/127 623/835/127 662/828/127 341/927/127
f 623/835/127 319/834/127 621/829/127 662/828/127
f 618/821/126 663/824/126 620/827/126 318/822/126
f 215/830/126 439/155/126 663/824/126 618/821/126
f 439/155/73 146/154/73 345/825/73 663/824/73
f 440/929/126 664/820/126 619/823/126 216/930/126
f 145/928/126 343/831/126 664/820/126 440/929/126
f 343/831/126 215/830/126 618/821/126 664/820/126
f 344/931/126 665/816/126 346/819/126 147/932/126
f 216/930/126 619/823/126 665/816/126 344/931/126
f 619/823/126 318/822/126 617/817/126 665/816/126
f 614/809/125 666/812/125 616/815/125 317/810/125
f 218/818/125 442/159/125 666/812/125 614/809/125
f 442/159/74 148/158/74 348/813/74 666/812/74
f 443/933/125 667/808/125 615/811/125 219/934/125
f 147/932/125 346/819/125 667/808/125 443/933/125
f 346/819/125 218/818/125 614/809/125 667/808/125
f 347/935/125 668/804/125 349/807/125 149/936/125
f 219/934/125 615/811/125 668/804/125 347/935/125
f 615/811/125 317/810/125 613/805/125 668/804/125
f 610/797/124 669/800/124 612/803/124 316/798/124
f 221/806/124 445/163/124 669/800/124 610/797/124
f 445/163/75 150/162/75 351/801/75 669/800/75
f 446/937/124 670/796/124 611/799/124 222/938/124
f 149/936/124 349/807/124 670/796/124 446/937/124
f 349/807/124 221/806/124 610/797/124 670/796/124
f 350/939/124 671/792/124 352/795/124 151/940/124
f 222/938/124 611/799/124 671/792/124 350/939/124
f 611/799/124 316/798/124 609/793/124 671/792/124
f 606/785/123 672/788/123 608/791/123 315/786/123
f 224/794/123 448/167/123 672/788/123 606/785/123
f 448/167/76 152/166/76 354/789/76 672/788/76
f 449/941/123 673/784/123 607/787/123 225/942/123
f 151/940/123 352/795/123 673/784/123 449/941/123
f 352/795/123 224/794/123 606/785/123 673/784/123
f 353/943/123 674/780/123 355/783/123 153/944/123
f 225/942/123 607/787/123 674/780/123 353/943/123
f 607/787/123 315/786/123 605/781/123 674/780/123
f 602/773/122 675/776/122 604/779/122 314/774/122
f 227/782/122 451/171/122 675/776/122 602/773/122
f 451/171/77 154/170/77 357/777/77 675/776/77
f 452/945/122 676/772/122 603/775/122 228/946/122
f 153/944/122 355/783/122 676/772/122 452/945/122
f 355/783/122 227/782/122 602/773/122 676/772/122
f 356/947/122 677/768/122 358/771/122 155/948/122
f 228/946/122 603/775/122 677/768/122 356/947/122
f 603/775/122 314/774/122 601/769/122 677/768/122
f 598/761/121 678/764/121 600/767/121 313/762/121
f 230/770/121 454/175/121 678/764/121 598/761/121
f 454/175/78 156/174/78 360/765/78 678/764/78
f 455/949/121 679/760/121 599/763/121 231/950/121
f 155/948/121 358/771/121 679/760/121 455/949/121
f 358/771/121 230/770/121 598/761/121 679/760/121
f 359/951/121 680/756/121 361/759/121 157/952/121
f 231/950/121 599/763/121 680/756/121 359/951/121
f 599/763/121 313/762/121 597/757/121 680/756/121
f 594/749/120 681/752/120 596/755/120 312/750/120
f 233/758/120 457/179/120 681/752/120 594/749/120
f 457/179/79 158/178/79 363/753/79 681/752/79
f 458/953/120 682/748/120 595/751/120 234/954/120
f 157/952/120 361/759/120 682/748/120 458/953/120
f 361/759/120 233/758/120 594/749/120 682/748/120
f 362/955/120 683/744/120 364/747/120 159/956/120
f 234/954/120 595/751/120 683/744/120 362/955/120
f 595/751/120 312/750/120 593/745/120 683/744/120
f 590/737/119 684/740/119 592/743/119 311/738/119
f 236/746/119 460/183/119 684/740/119 590/737/119
f 460/183/80 160/182/80 366/741/80 684/740/80
f 461/957/119 685/736/119 591/739/119 237/958/119
f 159/956/119 364/747/119 685/736/119 461/957/119
f 364/747/119 236/746/119 590/737/119 685/736/119
f 365/959/119 686/732/119 367/735/119 161/960/119
f 237/958/119 591/739/119 686/732/119 365/959/119
f 591/739/119 311/738/119 589/733/119 686/732/119
f 586/725/118 687/728/118 588/731/118 310/726/118
f 239/734/118 463/187/118 687/728/118 586/725/118
f 463/187/81 162/186/81 369/729/81 687/728/81
f 464/961/118 688/724/118 587/727/118 240/962/118
f 161/960/118 367/735/118 688/724/118 464/961/118
f 367/735/118 239/734/118 586/725/118 688/724/118
f 368/963/118 689/720/118 370/723/118 163/964/118
f 240/962/118 587/727/118 689/720/118 368/963/118
f 587/727/118 310/726/118 585/721/118 689/720/118
f 582/713/117 690/716/117 584/719/117 309/714/117
f 242/722/117 466/191/117 690/716/117 582/713/117
f 466/191/82 164/190/82 372/717/82 690/716/82
f 467/965/117 691/712/117 583/715/117 243/966/117
f 163/964/117 370/723/117 691/712/117 467/965/117
f 370/723/117 242/722/117 582/713/117 691/712/117
f 371/967/117 692/708/117 373/711/117 165/968/117
f 243/966/117 583/715/117 692/708/117 371/967/117
f 583/715/117 309/714/117 581/709/117 692/708/117
f 578/701/116 693/704/116 580/707/116 308/702/116
f 245/710/116 469/195/116 693/704/116 578/701/116
f 469/195/83 166/194/83 375/705/83 693/704/83
f 470/969/116 694/700/116 579/703/116 246/970/116
f 165/968/116 373/711/116 694/700/116 470/969/116
f 373/711/116 245/710/116 578/701/116 694/700/116
f 374/971/116 695/696/116 376/699/116 167/972/116
f 246/970/116 579/703/116 695/696/116 374/971/116
f 579/703/116 308/702/116 577/697/116 695/696/116
f 574/689/115 696/692/115 576/695/115 307/690/115
f 248/698/115 472/199/115 696/692/115 574/689/115
f 472/199/84 168/198/84 378/693/84 696/692/84
f 473/973/115 697/688/115 575/691/115 249/974/115
f 167/972/115 376/699/115 697/688/115 473/973/115
f 376/699/115 248/698/115 574/689/115 697/688/115
f 377/975/115 698/684/115 379/687/115 169/976/115
f 249/974/115 575/691/115 698/684/115 377/975/115
f 575/691/115 307/690/115 573/685/115 698/684/115
f 570/677/114 699/680/114 572/683/114 306/678/114
f 251/686/114 475/203/114 699/680/114 570/677/114
f 475/203/85 170/202/85 381/681/85 699/680/85
f 476/977/114 700/676/114 571/679/114 252/978/114
f 169/976/114 379/687/114 700/676/114 476/977/114
f 379/687/114 251/686/114 570/677/114 700/676/114
f 380/979/114 701/672/114 382/675/114 171/980/114
f 252/978/114 571/679/114 701/672/114 380/979/114
f 571/679/114 306/678/114 569/673/114 701/672/114
f 566/665/113 702/668/113 568/671/113 305/666/113
f 254/674/113 478/207/113 702/668/113 566/665/113
f 478/207/86 172/206/86 384/669/86 702/668/86
f 479/981/113 703/664/113 567/667/113 255/982/113
f 171/980/113 382/675/113 703/664/113 479/981/113
f 382/675/113 254/674/113 566/665/113 703/664/113
f 383/983/113 704/660/113 385/663/113 173/984/113
f 255/982/113 567/667/113 704/660/113 383/983/113
f 567/667/113 305/666/113 565/661/113 704/660/113
f 562/653/112 705/656/112 564/659/112 304/654/112
f 257/662/112 481/211/112 705/656/112 562/653/112
f 481/211/87 174/210/87 387/657/87 705/656/87
f 482/985/112 706/652/112 563/655/112 258/986/112
f 173/984/112 385/663/112 706/652/112 482/985/112
f 385/663/112 257/662/112 562/653/112 706/652/112
f 386/987/112 707/648/112 388/651/112 175/988/112
f 258/986/112 563/655/112 707/648/112 386/987/112
f 563/655/112 304/654/112 561/649/112 707/648/112
f 558/641/111 708/644/111 560/647/111 303/642/111
f 260/650/111 484/215/111 708/644/111 558/641/111
f 484/215/88 176/214/88 390/645/88 708/644/88
f 485/989/111 709/640/111 559/643/111 261/990/111
f 175/988/111 388/651/111 709/640/111 485/989/111
f 388/651/111 260/650/111 558/641/111 709/640/111
f 389/991/111 710/636/111 391/639/111 177/992/111
f 261/990/111 559/643/111 710/636/111 389/991/111
f 559/643/111 303/642/111 557/637/111 710/636/111
f 554/629/110 711/632/110 556/635/110 302/630/110
f 263/638/110 487/219/110 711/632/110 554/629/110
f 487/219/89 178/218/89 393/633/89 711/632/89
f 488/993/110 712/628/110 555/631/110 264/994/110
f 177/992/110 391/639/110 712/628/110 488/993/110
f 391/639/110 263/638/110 554/629/110 712/628/110
f 392/995/110 713/624/110 394/627/110 179/996/110
f 264/994/110 555/631/110 713/624/110 392/995/110
f 555/631/110 302/630/110 553/625/110 713/624/110
f 550/617/109 714/620/109 552/623/109 301/618/109
f 266/626/109 490/223/109 714/620/109 550/617/109
f 490/223/90 180/222/90 396/621/90 714/620/90
f 491/997/109 715/616/109 551/619/109 267/998/109
f 179/996/109 394/627/109 715/616/109 491/997/109
f 394/627/109 266/626/109 550/617/109 715/616/109
f 395/999/109 716/612/109 397/615/109 181/1000/109
f 267/998/109 551/619/109 716/612/109 395/999/109
f 551/619/109 301/618/109 549/613/109 716/612/109
f 546/605/108 717/608/108 548/611/108 300/606/108
f 269/614/108 493/227/108 717/608/108 546/605/108
f 493/227/91 182/226/91 399/609/91 717/608/91
f 494/1001/108 718/604/108 547/607/108 270/1002/108
f 181/1000/108 397/615/108 718/604/108 494/1001/108
f 397/615/108 269/614/108 546/605/108 718/604/108
f 398/1003/108 719/600/108 400/603/108 183/1004/108
f 270/1002/108 547/607/108 719/600/108 398/1003/108
f 547/607/108 300/606/108 545/601/108 719/600/108
f 542/593/107 720/596/107 544/599/107 299/594/107
f 272/602/107 496/231/107 720/596/107 542/593/107
f 496/231/92 184/230/92 402/597/92 720/596/92
f 497/1005/107 721/592/107 543/595/107 273/1006/107
f 183/1004/107 400/603/107 721/592/107 497/1005/107
f 400/603/107 272/602/107 542/593/107 721/592/107
f 401/1007/107 722/588/107 403/591/107 185/1008/107
f 273/1006/107 543/595/107 722/588/107 401/1007/107
f 543/595/107 299/594/107 541/589/107 722/588/107
f 538/581/106 723/584/106 540/587/106 298/582/106
f 275/590/106 499/235/106 723/584/106 538/581/106
f 499/235/93 186/234/93 405/585/93 723/584/93
f 500/1009/106 724/580/106 539/583/106 276/1010/106
f 185/1008/106 403/591/106 724/580/106 500/1009/106
f 403/591/106 275/590/106 538/581/106 724/580/106
f 404/1011/106 725/576/106 406/579/106 187/1012/106
f 276/1010/106 539/583/106 725/576/106 404/1011/106
f 539/583/106 298/582/106 537/577/106 725/576/106
f 534/569/105 726/572/105 536/575/105 297/570/105
f 278/578/105 502/239/105 726/572/105 534/569/105
f 502/239/94 188/238/94 408/573/94 726/572/94
f 503/1013/105 727/568/105 535/571/105 279/1014/105
f 187/1012/105 406/579/105 727/568/105 503/1013/105
f 406/579/105 278/578/105 534/569/105 727/568/105
f 407/1015/105 728/564/105 409/567/105 189/1016/105
f 279/1014/105 535/571/105 728/564/105 407/1015/105
f 535/571/105 297/570/105 533/565/105 728/564/105
f 530/557/104 729/560/104 532/563/104 296/558/104
f 281/566/104 505/243/104 729/560/104 530/557/104
f 505/243/95 190/242/95 411/561/95 729/560/95
f 506/1017/104 730/556/104 531/559/104 282/1018/104
f 189/1016/104 409/567/104 730/556/104 506/1017/104
f 409/567/104 281/566/104 530/557/104 730/556/104
f 410/1019/104 731/552/104 412/555/104 191/1020/104
f 282/1018/104 531/559/104 731/552/104 410/1019/104
f 531/559/104 296/558/104 529/553/104 731/552/104
f 526/545/103 732/548/103 528/551/103 295/546/103
f 284/554/103 508/247/103 732/548/103 526/545/103
f 508/247/96 192/246/96 414/549/96 732/548/96
f 509/1021/103 733/544/103 527/547/103 285/1022/103
f 191/1020/103 412/555/103 733/544/103 509/1021/103
f 412/555/103 284/554/103 526/545/103 733/544/103
f 413/1023/103 734/540/103 415/543/103 193/1024/103
f 285/1022/103 527/547/103 734/540/103 413/1023/103
f 527/547/103 295/546/103 525/541/103 734/540/103
f 522/533/102 735/536/102 524/539/102 294/534/102
f 287/542/102 511/251/102 735/536/102 522/533/102
f 511/251/98 194/250/98 417/537/98 735/536/98
f 512/1025/102 736/532/102 523/535/102 288/1026/102
f 193/1024/102 415/543/102 736/532/102 512/1025/102
f 415/543/102 287/542/102 522/533/102 736/532/102
f 416/1027/102 737/528/102 418/531/102 195/1028/102
f 288/1026/102 523/535/102 737/528/102 416/1027/102
f 523/535/102 294/534/102 521/529/102 737/528/102
f 518/521/101 738/524/101 520/527/101 293/522/101
f 290/530/101 514/383/101 738/524/101 518/521/101
f 514/383/99 196/382/99 420/525/99 738/524/99
f 515/1029/101 739/520/101 519/523/101 291/1030/101
f 195/1028/101 418/531/101 739/520/101 515/1029/101
f 418/531/101 290/530/101 518/521/101 739/520/101
f 419/1031/101 740/516/101 423/519/101 133/1032/101
f 291/1030/101 519/523/101 740/516/101 419/1031/101
f 519/523/101 293/522/101 517/517/101 740/516/101
f 517/517/101 741/384/101 327/387/101 199/518/101
f 293/522/101 520/527/101 741/384/101 517/517/101
f 520/527/99 292/526/99 516/385/99 741/384/99
f 521/529/102 742/380/102 514/383/102 290/530/102
f 294/534/102 524/539/102 742/380/102 521/529/102
f 524/539/98 289/538/98 513/381/98 742/380/98
f 525/541/103 743/248/103 511/251/103 287/542/103
f 295/546/103 528/551/103 743/248/103 525/541/103
f 528/551/96 286/550/96 510/249/96 743/248/96
f 529/553/104 744/244/104 508/247/104 284/554/104
f 296/558/104 532/563/104 744/244/104 529/553/104
f 532/563/95 283/562/95 507/245/95 744/244/95
f 533/565/105 745/240/105 505/243/105 281/566/105
f 297/570/105 536/575/105 745/240/105 533/565/105
f 536/575/94 280/574/94 504/241/94 745/240/94
f 537/577/106 746/236/106 502/239/106 278/578/106
f 298/582/106 540/587/106 746/236/106 537/577/106
f 540/587/93 277/586/93 501/237/93 746/236/93
f 541/589/107 747/232/107 499/235/107 275/590/107
f 299/594/107 544/599/107 747/232/107 541/589/107
f 544/599/92 274/598/92 498/233/92 747/232/92
f 545/601/108 748/228/108 496/231/108 272/602/108
f 300/606/108 548/611/108 748/228/108 545/601/108
f 548/611/91 271/610/91 495/229/91 748/228/91
f 549/613/109 749/224/109 493/227/109 269/614/109
f 301/618/109 552/623/109 749/224/109 549/613/109
f 552/623/90 268/622/90 492/225/90 749/224/90
f 553/625/110 750/220/110 490/223/110 266/626/110
f 302/630/110 556/635/110 750/220/110 553/625/110
f 556/635/89 265/634/89 489/221/89 750/220/89
f 557/637/111 751/216/111 487/219/111 263/638/111
f 303/642/111 560/647/111 751/216/111 557/637/111
f 560/647/88 262/646/88 486/217/88 751/216/88
f 561/649/112 752/212/112 484/215/112 260/650/112
f 304/654/112 564/659/112 752/212/112 561/649/112
f 564/659/87 259/658/87 483/213/87 752/212/87
f 565/661/113 753/208/113 481/211/113 257/662/113
f 305/666/113 568/671/113 753/208/113 565/661/113
f 568/671/86 256/670/86 480/209/86 753/208/86
f 569/673/114 754/204/114 478/207/114 254/674/114
f 306/678/114 572/683/114 754/204/114 569/673/114
f 572/683/85 253/682/85 477/205/85 754/204/85
f 573/685/115 755/200/115 475/203/115 251/686/115
f 307/690/115 576/695/115 755/200/115 573/685/115
f 576/695/84 250/694/84 474/201/84 755/200/84
f 577/697/116 756/196/116 472/199/116 248/698/116
f 308/702/116 580/707/116 756/196/116 577/697/116
f 580/707/83 247/706/83 471/197/83 756/196/83
f 581/709/117 757/192/117 469/195/117 245/710/117
f 309/714/117 584/719/117 757/192/117 581/709/117
f 584/719/82 244/718/82 468/193/82 757/192/82
f 585/721/118 758/188/118 466/191/118 242/722/118
f 310/726/118 588/731/118 758/188/118 585/721/118
f 588/731/81 241/730/81 465/189/81 758/188/81
f 589/733/119 759/184/119 463/187/119 239/734/119
f 311/738/119 592/743/119 759/184/119 589/733/119
f 592/743/80 238/742/80 462/185/80 759/184/80
f 593/745/120 760/180/120 460/183/120 236/746/120
f 312/750/120 596/755/120 760/180/120 593/745/120
f 596/755/79 235/754/79 459/181/79 760/180/79
f 597/757/121 761/176/121 457/179/121 233/758/121
f 313/762/121 600/767/121 761/176/121 597/757/121
f 600/767/78 232/766/78 456/177/78 761/176/78
f 601/769/122 762/172/122 454/175/122 230/770/122
f 314/774/122 604/779/122 762/172/122 601/769/122
f 604/779/77 229/778/77 453/173/77 762/172/77
f 605/781/123 763/168/123 451/171/123 227/782/123
f 315/786/123 608/791/123 763/168/123 605/781/123
f 608/791/76 226/790/76 450/169/76 763/168/76
f 609/793/124 764/164/124 448/167/124 224/794/124
f 316/798/124 612/803/124 764/164/124 609/793/124
f 612/803/75 223/802/75 447/165/75 764/164/75
f 613/805/125 765/160/125 445/163/125 221/806/125
f 317/810/125 616/815/125 765/160/125 613/805/125
f 616/815/74 220/814/74 444/161/74 765/160/74
f 617/817/126 766/156/126 442/159/126 218/818/126
f 318/822/126 620/827/126 766/156/126 617/817/126
f 620/827/73 217/826/73 441/157/73 766/156/73
f 621/829/127 767/152/127 439/155/127 215/830/127
f 319/834/127 624/839/127 767/152/127 621/829/127
f 624/839/72 214/838/72 438/153/72 767/152/72
f 625/841/128 768/148/128 436/151/128 212/842/128
f 320/846/128 628/851/128 768/148/128 625/841/128
f 628/851/71 211/850/71 435/149/71 768/148/71
f 629/853/129 769/144/129 433/147/129 209/854/129
f 321/858/129 632/863/129 769/144/129 629/853/129
f 632/863/70 208/862/70 432/145/70 769/144/70
f 633/865/130 770/140/130 430/143/130 206/866/130
f 322/870/130 636/875/130 770/140/130 633/865/130
f 636/875/69 205/874/69 429/141/69 770/140/69
f 637/877/131 771/136/131 427/139/131 203/878/131
f 323/882/131 640/887/131 771/136/131 637/877/131
f 640/887/68 202/886/68 426/137/68 771/136/68
f 641/889/132 772/132/132 424/135/132 200/890/132
f 324/894/132 644/899/132 772/132/132 641/889/132
f 644/899/67 198/898/67 422/133/67 772/132/67
