# Blender 4.3.2
# www.blender.org
mtllib ceiling_lamp.mtl
o Cylinder
v 0.000000 -0.135521 -1.000000
v 0.000000 0.135521 -1.000000
v 0.195090 -0.135521 -0.980785
v 0.195090 0.135521 -0.980785
v 0.382683 -0.135521 -0.923880
v 0.382683 0.135521 -0.923880
v 0.555570 -0.135521 -0.831470
v 0.555570 0.135521 -0.831470
v 0.707107 -0.135521 -0.707107
v 0.707107 0.135521 -0.707107
v 0.831470 -0.135521 -0.555570
v 0.831470 0.135521 -0.555570
v 0.923880 -0.135521 -0.382683
v 0.923880 0.135521 -0.382683
v 0.980785 -0.135521 -0.195090
v 0.980785 0.135521 -0.195090
v 1.000000 -0.135521 0.000000
v 1.000000 0.135521 0.000000
v 0.980785 -0.135521 0.195090
v 0.980785 0.135521 0.195090
v 0.923880 -0.135521 0.382683
v 0.923880 0.135521 0.382683
v 0.831470 -0.135521 0.555570
v 0.831470 0.135521 0.555570
v 0.707107 -0.135521 0.707107
v 0.707107 0.135521 0.707107
v 0.555570 -0.135521 0.831470
v 0.555570 0.135521 0.831470
v 0.382683 -0.135521 0.923880
v 0.382683 0.135521 0.923880
v 0.195090 -0.135521 0.980785
v 0.195090 0.135521 0.980785
v 0.000000 -0.135521 1.000000
v 0.000000 0.135521 1.000000
v -0.195090 -0.135521 0.980785
v -0.195090 0.135521 0.980785
v -0.382683 -0.135521 0.923880
v -0.382683 0.135521 0.923880
v -0.555570 -0.135521 0.831470
v -0.555570 0.135521 0.831470
v -0.707107 -0.135521 0.707107
v -0.707107 0.135521 0.707107
v -0.831470 -0.135521 0.555570
v -0.831470 0.135521 0.555570
v -0.923880 -0.135521 0.382683
v -0.923880 0.135521 0.382683
v -0.980785 -0.135521 0.195090
v -0.980785 0.135521 0.195090
v -1.000000 -0.135521 0.000000
v -1.000000 0.135521 0.000000
v -0.980785 -0.135521 -0.195090
v -0.980785 0.135521 -0.195090
v -0.923880 -0.135521 -0.382683
v -0.923880 0.135521 -0.382683
v -0.831470 -0.135521 -0.555570
v -0.831470 0.135521 -0.555570
v -0.707107 -0.135521 -0.707107
v -0.707107 0.135521 -0.707107
v -0.555570 -0.135521 -0.831470
v -0.555570 0.135521 -0.831470
v -0.382683 -0.135521 -0.923880
v -0.382683 0.135521 -0.923880
v -0.195090 -0.135521 -0.980785
v -0.195090 0.135521 -0.980785
vn 0.0980 -0.0000 -0.9952
vn 0.2903 -0.0000 -0.9569
vn 0.4714 -0.0000 -0.8819
vn 0.6344 -0.0000 -0.7730
vn 0.7730 -0.0000 -0.6344
vn 0.8819 -0.0000 -0.4714
vn 0.9569 -0.0000 -0.2903
vn 0.9952 -0.0000 -0.0980
vn 0.9952 -0.0000 0.0980
vn 0.9569 -0.0000 0.2903
vn 0.8819 -0.0000 0.4714
vn 0.7730 -0.0000 0.6344
vn 0.6344 -0.0000 0.7730
vn 0.4714 -0.0000 0.8819
vn 0.2903 -0.0000 0.9569
vn 0.0980 -0.0000 0.9952
vn -0.0980 -0.0000 0.9952
vn -0.2903 -0.0000 0.9569
vn -0.4714 -0.0000 0.8819
vn -0.6344 -0.0000 0.7730
vn -0.7730 -0.0000 0.6344
vn -0.8819 -0.0000 0.4714
vn -0.9569 -0.0000 0.2903
vn -0.9952 -0.0000 0.0980
vn -0.9952 -0.0000 -0.0980
vn -0.9569 -0.0000 -0.2903
vn -0.8819 -0.0000 -0.4714
vn -0.7730 -0.0000 -0.6344
vn -0.6344 -0.0000 -0.7730
vn -0.4714 -0.0000 -0.8819
vn -0.0000 1.0000 -0.0000
vn -0.2903 -0.0000 -0.9569
vn -0.0980 -0.0000 -0.9952
vn -0.0000 -1.0000 -0.0000
vt 1.000000 0.500000
vt 1.000000 1.000000
vt 0.968750 1.000000
vt 0.968750 0.500000
vt 0.937500 1.000000
vt 0.937500 0.500000
vt 0.906250 1.000000
vt 0.906250 0.500000
vt 0.875000 1.000000
vt 0.875000 0.500000
vt 0.843750 1.000000
vt 0.843750 0.500000
vt 0.812500 1.000000
vt 0.812500 0.500000
vt 0.781250 1.000000
vt 0.781250 0.500000
vt 0.750000 1.000000
vt 0.750000 0.500000
vt 0.718750 1.000000
vt 0.718750 0.500000
vt 0.687500 1.000000
vt 0.687500 0.500000
vt 0.656250 1.000000
vt 0.656250 0.500000
vt 0.625000 1.000000
vt 0.625000 0.500000
vt 0.593750 1.000000
vt 0.593750 0.500000
vt 0.562500 1.000000
vt 0.562500 0.500000
vt 0.531250 1.000000
vt 0.531250 0.500000
vt 0.500000 1.000000
vt 0.500000 0.500000
vt 0.468750 1.000000
vt 0.468750 0.500000
vt 0.437500 1.000000
vt 0.437500 0.500000
vt 0.406250 1.000000
vt 0.406250 0.500000
vt 0.375000 1.000000
vt 0.375000 0.500000
vt 0.343750 1.000000
vt 0.343750 0.500000
vt 0.312500 1.000000
vt 0.312500 0.500000
vt 0.281250 1.000000
vt 0.281250 0.500000
vt 0.250000 1.000000
vt 0.250000 0.500000
vt 0.218750 1.000000
vt 0.218750 0.500000
vt 0.187500 1.000000
vt 0.187500 0.500000
vt 0.156250 1.000000
vt 0.156250 0.500000
vt 0.125000 1.000000
vt 0.125000 0.500000
vt 0.093750 1.000000
vt 0.093750 0.500000
vt 0.062500 1.000000
vt 0.062500 0.500000
vt 0.296822 0.485388
vt 0.250000 0.490000
vt 0.203178 0.485388
vt 0.158156 0.471731
vt 0.116663 0.449553
vt 0.080294 0.419706
vt 0.050447 0.383337
vt 0.028269 0.341844
vt 0.014612 0.296822
vt 0.010000 0.250000
vt 0.014612 0.203178
vt 0.028269 0.158156
vt 0.050447 0.116663
vt 0.080294 0.080294
vt 0.116663 0.050447
vt 0.158156 0.028269
vt 0.203178 0.014612
vt 0.250000 0.010000
vt 0.296822 0.014612
vt 0.341844 0.028269
vt 0.383337 0.050447
vt 0.419706 0.080294
vt 0.449553 0.116663
vt 0.471731 0.158156
vt 0.485388 0.203178
vt 0.490000 0.250000
vt 0.485388 0.296822
vt 0.471731 0.341844
vt 0.449553 0.383337
vt 0.419706 0.419706
vt 0.383337 0.449553
vt 0.341844 0.471731
vt 0.031250 1.000000
vt 0.031250 0.500000
vt 0.000000 1.000000
vt 0.000000 0.500000
vt 0.750000 0.490000
vt 0.796822 0.485388
vt 0.841844 0.471731
vt 0.883337 0.449553
vt 0.919706 0.419706
vt 0.949553 0.383337
vt 0.971731 0.341844
vt 0.985388 0.296822
vt 0.990000 0.250000
vt 0.985388 0.203178
vt 0.971731 0.158156
vt 0.949553 0.116663
vt 0.919706 0.080294
vt 0.883337 0.050447
vt 0.841844 0.028269
vt 0.796822 0.014612
vt 0.750000 0.010000
vt 0.703178 0.014612
vt 0.658156 0.028269
vt 0.616663 0.050447
vt 0.580294 0.080294
vt 0.550447 0.116663
vt 0.528269 0.158156
vt 0.514612 0.203178
vt 0.510000 0.250000
vt 0.514612 0.296822
vt 0.528269 0.341844
vt 0.550447 0.383337
vt 0.580294 0.419706
vt 0.616663 0.449553
vt 0.658156 0.471731
vt 0.703178 0.485388
s 0
f 1/1/1 2/2/1 4/3/1 3/4/1
f 3/4/2 4/3/2 6/5/2 5/6/2
f 5/6/3 6/5/3 8/7/3 7/8/3
f 7/8/4 8/7/4 10/9/4 9/10/4
f 9/10/5 10/9/5 12/11/5 11/12/5
f 11/12/6 12/11/6 14/13/6 13/14/6
f 13/14/7 14/13/7 16/15/7 15/16/7
f 15/16/8 16/15/8 18/17/8 17/18/8
f 17/18/9 18/17/9 20/19/9 19/20/9
f 19/20/10 20/19/10 22/21/10 21/22/10
f 21/22/11 22/21/11 24/23/11 23/24/11
f 23/24/12 24/23/12 26/25/12 25/26/12
f 25/26/13 26/25/13 28/27/13 27/28/13
f 27/28/14 28/27/14 30/29/14 29/30/14
f 29/30/15 30/29/15 32/31/15 31/32/15
f 31/32/16 32/31/16 34/33/16 33/34/16
f 33/34/17 34/33/17 36/35/17 35/36/17
f 35/36/18 36/35/18 38/37/18 37/38/18
f 37/38/19 38/37/19 40/39/19 39/40/19
f 39/40/20 40/39/20 42/41/20 41/42/20
f 41/42/21 42/41/21 44/43/21 43/44/21
f 43/44/22 44/43/22 46/45/22 45/46/22
f 45/46/23 46/45/23 48/47/23 47/48/23
f 47/48/24 48/47/24 50/49/24 49/50/24
f 49/50/25 50/49/25 52/51/25 51/52/25
f 51/52/26 52/51/26 54/53/26 53/54/26
f 53/54/27 54/53/27 56/55/27 55/56/27
f 55/56/28 56/55/28 58/57/28 57/58/28
f 57/58/29 58/57/29 60/59/29 59/60/29
f 59/60/30 60/59/30 62/61/30 61/62/30
f 4/63/31 2/64/31 64/65/31 62/66/31 60/67/31 58/68/31 56/69/31 54/70/31 52/71/31 50/72/31 48/73/31 46/74/31 44/75/31 42/76/31 40/77/31 38/78/31 36/79/31 34/80/31 32/81/31 30/82/31 28/83/31 26/84/31 24/85/31 22/86/31 20/87/31 18/88/31 16/89/31 14/90/31 12/91/31 10/92/31 8/93/31 6/94/31
f 61/62/32 62/61/32 64/95/32 63/96/32
f 63/96/33 64/95/33 2/97/33 1/98/33
f 1/99/34 3/100/34 5/101/34 7/102/34 9/103/34 11/104/34 13/105/34 15/106/34 17/107/34 19/108/34 21/109/34 23/110/34 25/111/34 27/112/34 29/113/34 31/114/34 33/115/34 35/116/34 37/117/34 39/118/34 41/119/34 43/120/34 45/121/34 47/122/34 49/123/34 51/124/34 53/125/34 55/126/34 57/127/34 59/128/34 61/129/34 63/130/34
o Sphere
v 0.000000 0.468896 -0.416678
v 0.000000 0.330946 -0.623602
v 0.000000 0.150706 -0.735589
v 0.028545 0.543554 -0.143506
v 0.055993 0.515101 -0.281498
v 0.081290 0.468896 -0.408671
v 0.103462 0.406715 -0.520140
v 0.121659 0.330946 -0.611620
v 0.135180 0.244503 -0.679596
v 0.143506 0.150706 -0.721455
v 0.055993 0.543554 -0.135180
v 0.109835 0.515101 -0.265165
v 0.159456 0.468896 -0.384960
v 0.202949 0.406715 -0.489961
v 0.238642 0.330946 -0.576133
v 0.265165 0.244503 -0.640165
v 0.281498 0.150706 -0.679596
v 0.081290 0.543554 -0.121659
v 0.159456 0.515101 -0.238642
v 0.231494 0.468896 -0.346455
v 0.294636 0.406715 -0.440953
v 0.346455 0.330946 -0.518506
v 0.384960 0.244503 -0.576133
v 0.408671 0.150706 -0.611620
v 0.103462 0.543554 -0.103462
v 0.202949 0.515101 -0.202949
v 0.294636 0.468896 -0.294636
v 0.375000 0.406715 -0.375000
v 0.440953 0.330946 -0.440953
v 0.489961 0.244503 -0.489961
v 0.520140 0.150706 -0.520140
v 0.121659 0.543554 -0.081290
v 0.238642 0.515101 -0.159456
v 0.346455 0.468896 -0.231494
v 0.440953 0.406715 -0.294636
v 0.518506 0.330946 -0.346455
v 0.576133 0.244503 -0.384960
v 0.611620 0.150706 -0.408671
v 0.000000 0.553161 0.000000
v 0.135180 0.543554 -0.055993
v 0.265165 0.515101 -0.109835
v 0.384960 0.468896 -0.159456
v 0.489961 0.406715 -0.202949
v 0.576133 0.330946 -0.238642
v 0.640165 0.244503 -0.265165
v 0.679595 0.150706 -0.281498
v 0.143506 0.543554 -0.028545
v 0.281498 0.515101 -0.055993
v 0.408671 0.468896 -0.081290
v 0.520140 0.406715 -0.103462
v 0.611620 0.330946 -0.121659
v 0.679595 0.244503 -0.135180
v 0.721455 0.150706 -0.143506
v 0.146318 0.543554 0.000000
v 0.287013 0.515101 0.000000
v 0.416678 0.468896 0.000000
v 0.530330 0.406715 -0.000000
v 0.623602 0.330946 0.000000
v 0.692910 0.244503 -0.000000
v 0.735589 0.150706 0.000000
v 0.143506 0.543554 0.028545
v 0.281498 0.515101 0.055993
v 0.408671 0.468896 0.081290
v 0.520140 0.406715 0.103462
v 0.611620 0.330946 0.121659
v 0.679595 0.244503 0.135180
v 0.721455 0.150706 0.143506
v 0.135180 0.543554 0.055993
v 0.265165 0.515101 0.109835
v 0.384960 0.468896 0.159456
v 0.489961 0.406715 0.202948
v 0.576133 0.330946 0.238642
v 0.640165 0.244503 0.265165
v 0.679595 0.150706 0.281498
v 0.121659 0.543554 0.081290
v 0.238642 0.515101 0.159456
v 0.346455 0.468896 0.231494
v 0.440953 0.406715 0.294636
v 0.518506 0.330946 0.346455
v 0.576133 0.244503 0.384960
v 0.611620 0.150706 0.408671
v 0.103462 0.543554 0.103462
v 0.202948 0.515101 0.202949
v 0.294635 0.468896 0.294636
v 0.375000 0.406715 0.375000
v 0.440953 0.330946 0.440953
v 0.489961 0.244503 0.489961
v 0.520140 0.150706 0.520140
v 0.081290 0.543554 0.121659
v 0.159456 0.515101 0.238642
v 0.231494 0.468896 0.346455
v 0.294636 0.406715 0.440953
v 0.346455 0.330946 0.518506
v 0.384960 0.244503 0.576133
v 0.408671 0.150706 0.611620
v 0.055993 0.543554 0.135180
v 0.109835 0.515101 0.265165
v 0.159456 0.468896 0.384960
v 0.202948 0.406715 0.489961
v 0.238642 0.330946 0.576133
v 0.265165 0.244503 0.640165
v 0.281498 0.150706 0.679595
v 0.028545 0.543554 0.143506
v 0.055993 0.515101 0.281498
v 0.081290 0.468896 0.408671
v 0.103462 0.406715 0.520140
v 0.121659 0.330946 0.611620
v 0.135180 0.244503 0.679595
v 0.143506 0.150706 0.721455
v -0.000000 0.543554 0.146318
v -0.000000 0.515101 0.287013
v -0.000000 0.468896 0.416677
v -0.000000 0.406715 0.530330
v -0.000000 0.330946 0.623602
v 0.000000 0.244503 0.692909
v -0.000000 0.150706 0.735589
v -0.028545 0.543554 0.143506
v -0.055993 0.515101 0.281498
v -0.081290 0.468896 0.408671
v -0.103462 0.406715 0.520140
v -0.121659 0.330946 0.611620
v -0.135180 0.244503 0.679595
v -0.143506 0.150706 0.721455
v -0.055993 0.543554 0.135180
v -0.109835 0.515101 0.265165
v -0.159456 0.468896 0.384960
v -0.202948 0.406715 0.489961
v -0.238642 0.330946 0.576133
v -0.265165 0.244503 0.640165
v -0.281498 0.150706 0.679595
v -0.081290 0.543554 0.121659
v -0.159456 0.515101 0.238642
v -0.231494 0.468896 0.346455
v -0.294636 0.406715 0.440953
v -0.346455 0.330946 0.518506
v -0.384960 0.244503 0.576133
v -0.408671 0.150706 0.611620
v -0.103462 0.543554 0.103462
v -0.202948 0.515101 0.202948
v -0.294635 0.468896 0.294635
v -0.375000 0.406715 0.375000
v -0.440953 0.330946 0.440953
v -0.489961 0.244503 0.489961
v -0.520140 0.150706 0.520140
v -0.121659 0.543554 0.081290
v -0.238642 0.515101 0.159456
v -0.346455 0.468896 0.231493
v -0.440953 0.406715 0.294636
v -0.518506 0.330946 0.346455
v -0.576133 0.244503 0.384960
v -0.611620 0.150706 0.408671
v -0.135180 0.543554 0.055993
v -0.265165 0.515101 0.109835
v -0.384960 0.468896 0.159455
v -0.489961 0.406715 0.202948
v -0.576133 0.330946 0.238642
v -0.640165 0.244503 0.265165
v -0.679595 0.150706 0.281497
v -0.143506 0.543554 0.028545
v -0.281498 0.515101 0.055993
v -0.408671 0.468896 0.081290
v -0.520140 0.406715 0.103462
v -0.611620 0.330946 0.121659
v -0.679595 0.244503 0.135180
v -0.721455 0.150706 0.143506
v -0.146318 0.543554 -0.000000
v -0.287012 0.515101 -0.000000
v -0.416677 0.468896 -0.000000
v -0.530330 0.406715 -0.000000
v -0.623602 0.330946 -0.000000
v -0.692909 0.244503 -0.000000
v -0.735589 0.150706 -0.000000
v -0.143506 0.543554 -0.028545
v -0.281498 0.515101 -0.055993
v -0.408671 0.468896 -0.081290
v -0.520140 0.406715 -0.103462
v -0.611619 0.330946 -0.121659
v -0.679595 0.244503 -0.135180
v -0.721454 0.150706 -0.143506
v -0.135180 0.543554 -0.055993
v -0.265165 0.515101 -0.109835
v -0.384960 0.468896 -0.159456
v -0.489961 0.406715 -0.202948
v -0.576133 0.330946 -0.238642
v -0.640165 0.244503 -0.265165
v -0.679595 0.150706 -0.281498
v -0.121659 0.543554 -0.081290
v -0.238642 0.515101 -0.159456
v -0.346454 0.468896 -0.231494
v -0.440953 0.406715 -0.294636
v -0.518506 0.330946 -0.346455
v -0.576133 0.244503 -0.384960
v -0.611619 0.150706 -0.408671
v -0.103462 0.543554 -0.103462
v -0.202948 0.515101 -0.202948
v -0.294635 0.468896 -0.294635
v -0.375000 0.406715 -0.375000
v -0.440953 0.330946 -0.440953
v -0.489961 0.244503 -0.489961
v -0.520140 0.150706 -0.520140
v -0.081290 0.543554 -0.121659
v -0.159456 0.515101 -0.238642
v -0.231493 0.468896 -0.346455
v -0.294635 0.406715 -0.440953
v -0.346454 0.330946 -0.518506
v -0.384960 0.244503 -0.576133
v -0.408671 0.150706 -0.611620
v -0.055993 0.543554 -0.135180
v -0.109835 0.515101 -0.265165
v -0.159455 0.468896 -0.384960
v -0.202948 0.406715 -0.489961
v -0.238642 0.330946 -0.576133
v -0.265165 0.244503 -0.640165
v -0.281497 0.150706 -0.679595
v -0.028545 0.543554 -0.143506
v -0.055993 0.515101 -0.281498
v -0.081290 0.468896 -0.408671
v -0.103462 0.406715 -0.520140
v -0.121658 0.330946 -0.611619
v -0.135180 0.244503 -0.679595
v -0.143506 0.150706 -0.721454
v 0.000000 0.543554 -0.146318
v 0.000000 0.515101 -0.287012
v 0.000000 0.406715 -0.530330
v 0.000000 0.244503 -0.692909
v 0.000000 0.090395 -0.744499
v 0.145277 0.089261 -0.730358
v 0.285019 0.088417 -0.688097
v 0.413827 0.087895 -0.619335
v 0.526720 0.087716 -0.526720
v 0.619337 0.087886 -0.413827
v 0.688100 0.088399 -0.285020
v 0.730362 0.089234 -0.145278
v 0.744504 0.090361 0.000000
v 0.730000 0.091734 0.145206
v 0.687431 0.093301 0.284743
v 0.618462 0.095001 0.413244
v 0.525774 0.096769 0.525775
v 0.412953 0.098536 0.618028
v 0.284351 0.100235 0.686484
v 0.144916 0.101801 0.728541
v -0.000000 0.103174 0.742611
v -0.144844 0.104302 0.728178
v -0.284074 0.105140 0.685814
v -0.412369 0.105659 0.617153
v -0.524827 0.105837 0.524827
v -0.617152 0.105668 0.412368
v -0.685812 0.105159 0.284072
v -0.728175 0.104328 0.144843
v -0.742606 0.103208 -0.000000
v -0.728535 0.101841 -0.144915
v -0.686478 0.100280 -0.284349
v -0.618022 0.098583 -0.412949
v -0.525769 0.096817 -0.525769
v -0.413239 0.095048 -0.618456
v -0.284740 0.093345 -0.687424
v -0.145204 0.091774 -0.729993
vn 0.0330 0.9415 -0.3355
vn 0.0472 0.8763 -0.4794
vn 0.0620 0.7747 -0.6293
vn 0.0766 0.6237 -0.7779
vn 0.0893 0.4125 -0.9066
vn 0.0970 0.1455 -0.9846
vn 0.0065 0.9978 -0.0655
vn 0.0195 0.9800 -0.1982
vn 0.0191 0.9978 -0.0630
vn 0.0578 0.9800 -0.1906
vn 0.0979 0.9415 -0.3226
vn 0.1398 0.8763 -0.4610
vn 0.1836 0.7747 -0.6051
vn 0.2269 0.6237 -0.7480
vn 0.2644 0.4125 -0.8717
vn 0.2872 0.1455 -0.9468
vn 0.2981 0.7747 -0.5577
vn 0.3685 0.6237 -0.6894
vn 0.4294 0.4125 -0.8034
vn 0.4664 0.1455 -0.8725
vn 0.0310 0.9978 -0.0581
vn 0.0939 0.9800 -0.1756
vn 0.1589 0.9415 -0.2973
vn 0.2271 0.8763 -0.4249
vn 0.1263 0.9800 -0.1539
vn 0.2139 0.9415 -0.2606
vn 0.3056 0.8763 -0.3724
vn -0.0086 -0.9999 0.0086
vn 0.4012 0.7747 -0.4888
vn 0.4959 0.6237 -0.6042
vn 0.5779 0.4125 -0.7042
vn 0.6276 0.1455 -0.7648
vn 0.0418 0.9978 -0.0509
vn 0.6042 0.6237 -0.4959
vn 0.7042 0.4125 -0.5779
vn 0.7648 0.1455 -0.6276
vn 0.0509 0.9978 -0.0418
vn 0.1539 0.9800 -0.1263
vn 0.2606 0.9415 -0.2139
vn 0.3724 0.8763 -0.3056
vn 0.4888 0.7747 -0.4012
vn 0.2973 0.9415 -0.1589
vn 0.4249 0.8763 -0.2271
vn 0.5577 0.7747 -0.2981
vn 0.6894 0.6237 -0.3685
vn 0.8034 0.4125 -0.4294
vn 0.8725 0.1455 -0.4664
vn 0.0581 0.9978 -0.0310
vn 0.1756 0.9800 -0.0939
vn 0.8717 0.4125 -0.2644
vn 0.9468 0.1455 -0.2872
vn 0.0630 0.9978 -0.0191
vn 0.1906 0.9800 -0.0578
vn 0.3226 0.9415 -0.0979
vn 0.4610 0.8763 -0.1398
vn 0.6051 0.7747 -0.1836
vn 0.7480 0.6237 -0.2269
vn 0.3355 0.9415 -0.0330
vn 0.4794 0.8763 -0.0472
vn 0.6293 0.7747 -0.0620
vn 0.7779 0.6237 -0.0766
vn 0.9066 0.4125 -0.0893
vn 0.9846 0.1455 -0.0970
vn 0.0655 0.9978 -0.0065
vn 0.1982 0.9800 -0.0195
vn 0.9066 0.4125 0.0893
vn 0.9846 0.1455 0.0970
vn 0.0655 0.9978 0.0065
vn 0.1982 0.9800 0.0195
vn 0.3355 0.9415 0.0330
vn 0.4794 0.8763 0.0472
vn 0.6293 0.7747 0.0620
vn 0.7779 0.6237 0.0766
vn 0.4610 0.8763 0.1398
vn 0.6051 0.7747 0.1836
vn 0.7480 0.6237 0.2269
vn 0.8717 0.4125 0.2644
vn 0.9468 0.1455 0.2872
vn 0.0630 0.9978 0.0191
vn 0.1906 0.9800 0.0578
vn 0.3226 0.9415 0.0979
vn 0.8725 0.1455 0.4664
vn 0.0581 0.9978 0.0310
vn 0.1756 0.9800 0.0939
vn 0.2973 0.9415 0.1589
vn 0.4249 0.8763 0.2271
vn 0.5577 0.7747 0.2981
vn 0.6894 0.6237 0.3685
vn 0.8034 0.4125 0.4294
vn 0.3724 0.8763 0.3056
vn 0.4888 0.7747 0.4012
vn 0.6042 0.6237 0.4959
vn 0.7042 0.4125 0.5779
vn 0.7648 0.1455 0.6276
vn 0.0509 0.9978 0.0418
vn 0.1539 0.9800 0.1263
vn 0.2606 0.9415 0.2139
vn 0.6276 0.1455 0.7648
vn 0.0418 0.9978 0.0509
vn 0.1263 0.9800 0.1539
vn 0.2139 0.9415 0.2606
vn 0.3056 0.8763 0.3724
vn 0.4012 0.7747 0.4888
vn 0.4959 0.6237 0.6042
vn 0.5779 0.4125 0.7042
vn 0.2981 0.7747 0.5577
vn 0.3685 0.6237 0.6894
vn 0.4294 0.4125 0.8034
vn 0.4664 0.1455 0.8725
vn 0.0310 0.9978 0.0581
vn 0.0939 0.9800 0.1756
vn 0.1589 0.9415 0.2973
vn 0.2271 0.8763 0.4249
vn 0.0578 0.9800 0.1906
vn 0.0979 0.9415 0.3226
vn 0.1398 0.8763 0.4610
vn 0.1836 0.7747 0.6051
vn 0.2269 0.6237 0.7480
vn 0.2644 0.4125 0.8717
vn 0.2872 0.1455 0.9468
vn 0.0191 0.9978 0.0630
vn 0.0766 0.6237 0.7779
vn 0.0893 0.4125 0.9066
vn 0.0970 0.1455 0.9846
vn 0.0065 0.9978 0.0655
vn 0.0195 0.9800 0.1982
vn 0.0330 0.9415 0.3355
vn 0.0472 0.8763 0.4794
vn 0.0620 0.7747 0.6293
vn -0.0195 0.9800 0.1982
vn -0.0330 0.9415 0.3355
vn -0.0472 0.8763 0.4794
vn -0.0620 0.7747 0.6293
vn -0.0766 0.6237 0.7779
vn -0.0893 0.4125 0.9066
vn -0.0970 0.1455 0.9846
vn -0.0065 0.9978 0.0655
vn -0.2269 0.6237 0.7480
vn -0.2644 0.4125 0.8717
vn -0.2872 0.1455 0.9468
vn -0.0191 0.9978 0.0630
vn -0.0578 0.9800 0.1906
vn -0.0979 0.9415 0.3226
vn -0.1398 0.8763 0.4610
vn -0.1836 0.7747 0.6051
vn -0.1589 0.9415 0.2973
vn -0.2271 0.8763 0.4249
vn -0.2981 0.7747 0.5577
vn -0.3685 0.6237 0.6894
vn -0.4294 0.4125 0.8034
vn -0.4664 0.1455 0.8725
vn -0.0310 0.9978 0.0581
vn -0.0939 0.9800 0.1756
vn -0.5779 0.4125 0.7042
vn -0.6276 0.1455 0.7648
vn -0.0418 0.9978 0.0509
vn -0.1263 0.9800 0.1539
vn -0.2139 0.9415 0.2606
vn -0.3056 0.8763 0.3724
vn -0.4012 0.7747 0.4888
vn -0.4959 0.6237 0.6042
vn -0.2606 0.9415 0.2139
vn -0.3724 0.8763 0.3056
vn -0.4888 0.7747 0.4012
vn -0.6042 0.6237 0.4959
vn -0.7042 0.4125 0.5779
vn -0.7648 0.1455 0.6276
vn -0.0509 0.9978 0.0418
vn -0.1539 0.9800 0.1263
vn -0.8034 0.4125 0.4294
vn -0.8725 0.1455 0.4664
vn -0.0581 0.9978 0.0310
vn -0.1756 0.9800 0.0939
vn -0.2973 0.9415 0.1589
vn -0.4249 0.8763 0.2271
vn -0.5577 0.7747 0.2981
vn -0.6894 0.6237 0.3685
vn -0.4610 0.8763 0.1398
vn -0.6051 0.7747 0.1836
vn -0.7480 0.6237 0.2269
vn -0.8717 0.4125 0.2644
vn -0.9468 0.1455 0.2872
vn -0.0630 0.9978 0.0191
vn -0.1906 0.9800 0.0578
vn -0.3226 0.9415 0.0979
vn -0.9846 0.1455 0.0970
vn -0.0655 0.9978 0.0065
vn -0.1982 0.9800 0.0195
vn -0.3355 0.9415 0.0330
vn -0.4794 0.8763 0.0472
vn -0.6293 0.7747 0.0620
vn -0.7779 0.6237 0.0766
vn -0.9066 0.4125 0.0893
vn -0.6293 0.7747 -0.0620
vn -0.7779 0.6237 -0.0766
vn -0.9066 0.4125 -0.0893
vn -0.9846 0.1455 -0.0970
vn -0.0655 0.9978 -0.0065
vn -0.1982 0.9800 -0.0195
vn -0.3355 0.9415 -0.0330
vn -0.4794 0.8763 -0.0472
vn -0.0630 0.9978 -0.0191
vn -0.1906 0.9800 -0.0578
vn -0.3226 0.9415 -0.0979
vn -0.4610 0.8763 -0.1398
vn -0.6051 0.7747 -0.1836
vn -0.7480 0.6237 -0.2269
vn -0.8717 0.4125 -0.2644
vn -0.9468 0.1455 -0.2872
vn -0.5577 0.7747 -0.2981
vn -0.6894 0.6237 -0.3685
vn -0.8034 0.4125 -0.4294
vn -0.8725 0.1455 -0.4664
vn -0.0581 0.9978 -0.0310
vn -0.1756 0.9800 -0.0939
vn -0.2973 0.9415 -0.1589
vn -0.4249 0.8763 -0.2271
vn -0.1539 0.9800 -0.1263
vn -0.2606 0.9415 -0.2139
vn -0.3724 0.8763 -0.3056
vn -0.4888 0.7747 -0.4012
vn -0.6042 0.6237 -0.4959
vn -0.7042 0.4125 -0.5779
vn -0.7648 0.1455 -0.6276
vn -0.0509 0.9978 -0.0418
vn -0.4959 0.6237 -0.6042
vn -0.5779 0.4125 -0.7042
vn -0.6276 0.1455 -0.7648
vn -0.0418 0.9978 -0.0509
vn -0.1263 0.9800 -0.1539
vn -0.2139 0.9415 -0.2606
vn -0.3056 0.8763 -0.3724
vn -0.4012 0.7747 -0.4888
vn -0.0939 0.9800 -0.1756
vn -0.1589 0.9415 -0.2973
vn -0.2271 0.8763 -0.4249
vn -0.2981 0.7747 -0.5577
vn -0.3685 0.6237 -0.6894
vn -0.4294 0.4125 -0.8034
vn -0.4664 0.1455 -0.8725
vn -0.0310 0.9978 -0.0581
vn -0.2269 0.6237 -0.7480
vn -0.2644 0.4125 -0.8717
vn -0.2872 0.1455 -0.9468
vn -0.0191 0.9978 -0.0630
vn -0.0578 0.9800 -0.1906
vn -0.0979 0.9415 -0.3226
vn -0.1398 0.8763 -0.4610
vn -0.1836 0.7747 -0.6051
vn -0.0330 0.9415 -0.3355
vn -0.0472 0.8763 -0.4794
vn -0.0620 0.7747 -0.6293
vn -0.0766 0.6237 -0.7779
vn -0.0893 0.4125 -0.9066
vn -0.0970 0.1455 -0.9846
vn -0.0065 0.9978 -0.0655
vn -0.0195 0.9800 -0.1982
vt 0.750000 0.812500
vt 0.750000 0.875000
vt 0.718750 0.875000
vt 0.718750 0.812500
vt 0.750000 0.750000
vt 0.718750 0.750000
vt 0.750000 0.687500
vt 0.718750 0.687500
vt 0.750000 0.625000
vt 0.718750 0.625000
vt 0.750000 0.562500
vt 0.718750 0.562500
vt 0.750000 0.523857
vt 0.718750 0.523130
vt 0.750000 0.937500
vt 0.734375 1.000000
vt 0.718750 0.937500
vt 0.703125 1.000000
vt 0.687500 0.937500
vt 0.687500 0.875000
vt 0.687500 0.812500
vt 0.687500 0.750000
vt 0.687500 0.687500
vt 0.687500 0.625000
vt 0.687500 0.562500
vt 0.687500 0.522590
vt 0.656250 0.750000
vt 0.656250 0.687500
vt 0.656250 0.625000
vt 0.656250 0.562500
vt 0.656250 0.522255
vt 0.671875 1.000000
vt 0.656250 0.937500
vt 0.656250 0.875000
vt 0.656250 0.812500
vt 0.625000 0.937500
vt 0.625000 0.875000
vt 0.625000 0.812500
vt 0.625000 0.750000
vt 0.312500 0.530162
vt 0.281250 0.531165
vt 0.250000 0.532045
vt 0.218750 0.532767
vt 0.187500 0.533305
vt 0.156250 0.533637
vt 0.125000 0.533751
vt 0.093750 0.533643
vt 0.062500 0.533316
vt 0.031250 0.532784
vt 1.000000 0.532067
vt 0.968750 0.531191
vt 0.937500 0.530190
vt 0.906250 0.529103
vt 0.875000 0.527971
vt 0.843750 0.526838
vt 0.812500 0.525747
vt 0.781250 0.524740
vt 0.625000 0.522140
vt 0.593750 0.522249
vt 0.562500 0.522578
vt 0.531250 0.523113
vt 0.500000 0.523835
vt 0.468750 0.524715
vt 0.437500 0.525719
vt 0.406250 0.526808
vt 0.375000 0.527941
vt 0.343750 0.529073
vt 0.625000 0.687500
vt 0.625000 0.625000
vt 0.625000 0.562500
vt 0.640625 1.000000
vt 0.593750 0.687500
vt 0.593750 0.625000
vt 0.593750 0.562500
vt 0.609375 1.000000
vt 0.593750 0.937500
vt 0.593750 0.875000
vt 0.593750 0.812500
vt 0.593750 0.750000
vt 0.562500 0.875000
vt 0.562500 0.812500
vt 0.562500 0.750000
vt 0.562500 0.687500
vt 0.562500 0.625000
vt 0.562500 0.562500
vt 0.578125 1.000000
vt 0.562500 0.937500
vt 0.531250 0.625000
vt 0.531250 0.562500
vt 0.546875 1.000000
vt 0.531250 0.937500
vt 0.531250 0.875000
vt 0.531250 0.812500
vt 0.531250 0.750000
vt 0.531250 0.687500
vt 0.500000 0.875000
vt 0.500000 0.812500
vt 0.500000 0.750000
vt 0.500000 0.687500
vt 0.500000 0.625000
vt 0.500000 0.562500
vt 0.515625 1.000000
vt 0.500000 0.937500
vt 0.468750 0.625000
vt 0.468750 0.562500
vt 0.484375 1.000000
vt 0.468750 0.937500
vt 0.468750 0.875000
vt 0.468750 0.812500
vt 0.468750 0.750000
vt 0.468750 0.687500
vt 0.437500 0.812500
vt 0.437500 0.750000
vt 0.437500 0.687500
vt 0.437500 0.625000
vt 0.437500 0.562500
vt 0.453125 1.000000
vt 0.437500 0.937500
vt 0.437500 0.875000
vt 0.406250 0.562500
vt 0.421875 1.000000
vt 0.406250 0.937500
vt 0.406250 0.875000
vt 0.406250 0.812500
vt 0.406250 0.750000
vt 0.406250 0.687500
vt 0.406250 0.625000
vt 0.375000 0.812500
vt 0.375000 0.750000
vt 0.375000 0.687500
vt 0.375000 0.625000
vt 0.375000 0.562500
vt 0.390625 1.000000
vt 0.375000 0.937500
vt 0.375000 0.875000
vt 0.343750 0.562500
vt 0.359375 1.000000
vt 0.343750 0.937500
vt 0.343750 0.875000
vt 0.343750 0.812500
vt 0.343750 0.750000
vt 0.343750 0.687500
vt 0.343750 0.625000
vt 0.312500 0.750000
vt 0.312500 0.687500
vt 0.312500 0.625000
vt 0.312500 0.562500
vt 0.328125 1.000000
vt 0.312500 0.937500
vt 0.312500 0.875000
vt 0.312500 0.812500
vt 0.281250 0.937500
vt 0.281250 0.875000
vt 0.281250 0.812500
vt 0.281250 0.750000
vt 0.281250 0.687500
vt 0.281250 0.625000
vt 0.281250 0.562500
vt 0.296875 1.000000
vt 0.250000 0.687500
vt 0.250000 0.625000
vt 0.250000 0.562500
vt 0.265625 1.000000
vt 0.250000 0.937500
vt 0.250000 0.875000
vt 0.250000 0.812500
vt 0.250000 0.750000
vt 0.218750 0.937500
vt 0.218750 0.875000
vt 0.218750 0.812500
vt 0.218750 0.750000
vt 0.218750 0.687500
vt 0.218750 0.625000
vt 0.218750 0.562500
vt 0.234375 1.000000
vt 0.187500 0.687500
vt 0.187500 0.625000
vt 0.187500 0.562500
vt 0.203125 1.000000
vt 0.187500 0.937500
vt 0.187500 0.875000
vt 0.187500 0.812500
vt 0.187500 0.750000
vt 0.156250 0.875000
vt 0.156250 0.812500
vt 0.156250 0.750000
vt 0.156250 0.687500
vt 0.156250 0.625000
vt 0.156250 0.562500
vt 0.171875 1.000000
vt 0.156250 0.937500
vt 0.125000 0.625000
vt 0.125000 0.562500
vt 0.140625 1.000000
vt 0.125000 0.937500
vt 0.125000 0.875000
vt 0.125000 0.812500
vt 0.125000 0.750000
vt 0.125000 0.687500
vt 0.093750 0.875000
vt 0.093750 0.812500
vt 0.093750 0.750000
vt 0.093750 0.687500
vt 0.093750 0.625000
vt 0.093750 0.562500
vt 0.109375 1.000000
vt 0.093750 0.937500
vt 0.062500 0.625000
vt 0.062500 0.562500
vt 0.078125 1.000000
vt 0.062500 0.937500
vt 0.062500 0.875000
vt 0.062500 0.812500
vt 0.062500 0.750000
vt 0.062500 0.687500
vt 0.031250 0.812500
vt 0.031250 0.750000
vt 0.031250 0.687500
vt 0.031250 0.625000
vt 0.031250 0.562500
vt 0.046875 1.000000
vt 0.031250 0.937500
vt 0.031250 0.875000
vt 0.000000 0.562500
vt 0.000000 0.532067
vt 0.015625 1.000000
vt 0.000000 0.937500
vt 0.000000 0.875000
vt 0.000000 0.812500
vt 0.000000 0.750000
vt 0.000000 0.687500
vt 0.000000 0.625000
vt 1.000000 0.687500
vt 1.000000 0.750000
vt 0.968750 0.750000
vt 0.968750 0.687500
vt 1.000000 0.625000
vt 0.968750 0.625000
vt 1.000000 0.562500
vt 0.968750 0.562500
vt 1.000000 0.937500
vt 0.984375 1.000000
vt 0.968750 0.937500
vt 1.000000 0.875000
vt 0.968750 0.875000
vt 1.000000 0.812500
vt 0.968750 0.812500
vt 0.953125 1.000000
vt 0.937500 0.937500
vt 0.937500 0.875000
vt 0.937500 0.812500
vt 0.937500 0.750000
vt 0.937500 0.687500
vt 0.937500 0.625000
vt 0.937500 0.562500
vt 0.906250 0.750000
vt 0.906250 0.687500
vt 0.906250 0.625000
vt 0.906250 0.562500
vt 0.921875 1.000000
vt 0.906250 0.937500
vt 0.906250 0.875000
vt 0.906250 0.812500
vt 0.875000 0.937500
vt 0.875000 0.875000
vt 0.875000 0.812500
vt 0.875000 0.750000
vt 0.875000 0.687500
vt 0.875000 0.625000
vt 0.875000 0.562500
vt 0.890625 1.000000
vt 0.843750 0.687500
vt 0.843750 0.625000
vt 0.843750 0.562500
vt 0.859375 1.000000
vt 0.843750 0.937500
vt 0.843750 0.875000
vt 0.843750 0.812500
vt 0.843750 0.750000
vt 0.812500 0.937500
vt 0.812500 0.875000
vt 0.812500 0.812500
vt 0.812500 0.750000
vt 0.812500 0.687500
vt 0.812500 0.625000
vt 0.812500 0.562500
vt 0.828125 1.000000
vt 0.781250 0.687500
vt 0.781250 0.625000
vt 0.781250 0.562500
vt 0.796875 1.000000
vt 0.781250 0.937500
vt 0.781250 0.875000
vt 0.781250 0.812500
vt 0.781250 0.750000
vt 0.765625 1.000000
s 0
f 65/131/35 287/132/35 69/133/35 70/134/35
f 288/135/36 65/131/36 70/134/36 71/136/36
f 66/137/37 288/135/37 71/136/37 72/138/37
f 289/139/38 66/137/38 72/138/38 73/140/38
f 67/141/39 289/139/39 73/140/39 74/142/39
f 290/143/40 67/141/40 74/142/40 291/144/40
f 286/145/41 103/146/41 68/147/41
f 287/132/42 286/145/42 68/147/42 69/133/42
f 68/147/43 103/148/43 75/149/43
f 69/133/44 68/147/44 75/149/44 76/150/44
f 70/134/45 69/133/45 76/150/45 77/151/45
f 71/136/46 70/134/46 77/151/46 78/152/46
f 72/138/47 71/136/47 78/152/47 79/153/47
f 73/140/48 72/138/48 79/153/48 80/154/48
f 74/142/49 73/140/49 80/154/49 81/155/49
f 291/144/50 74/142/50 81/155/50 292/156/50
f 79/153/51 78/152/51 85/157/51 86/158/51
f 80/154/52 79/153/52 86/158/52 87/159/52
f 81/155/53 80/154/53 87/159/53 88/160/53
f 292/156/54 81/155/54 88/160/54 293/161/54
f 75/149/55 103/162/55 82/163/55
f 76/150/56 75/149/56 82/163/56 83/164/56
f 77/151/57 76/150/57 83/164/57 84/165/57
f 78/152/58 77/151/58 84/165/58 85/157/58
f 83/164/59 82/163/59 89/166/59 90/167/59
f 84/165/60 83/164/60 90/167/60 91/168/60
f 85/157/61 84/165/61 91/168/61 92/169/61
f 304/170/62 305/171/62 306/172/62 307/173/62 308/174/62 309/175/62 310/176/62 311/177/62 312/178/62 313/179/62 314/180/62 315/181/62 316/182/62 317/183/62 318/184/62 319/185/62 320/186/62 321/187/62 290/143/62 291/144/62 292/156/62 293/161/62 294/188/62 295/189/62 296/190/62 297/191/62 298/192/62 299/193/62 300/194/62 301/195/62 302/196/62 303/197/62
f 86/158/63 85/157/63 92/169/63 93/198/63
f 87/159/64 86/158/64 93/198/64 94/199/64
f 88/160/65 87/159/65 94/199/65 95/200/65
f 293/161/66 88/160/66 95/200/66 294/188/66
f 82/163/67 103/201/67 89/166/67
f 94/199/68 93/198/68 100/202/68 101/203/68
f 95/200/69 94/199/69 101/203/69 102/204/69
f 294/188/70 95/200/70 102/204/70 295/189/70
f 89/166/71 103/205/71 96/206/71
f 90/167/72 89/166/72 96/206/72 97/207/72
f 91/168/73 90/167/73 97/207/73 98/208/73
f 92/169/74 91/168/74 98/208/74 99/209/74
f 93/198/75 92/169/75 99/209/75 100/202/75
f 98/208/76 97/207/76 105/210/76 106/211/76
f 99/209/77 98/208/77 106/211/77 107/212/77
f 100/202/78 99/209/78 107/212/78 108/213/78
f 101/203/79 100/202/79 108/213/79 109/214/79
f 102/204/80 101/203/80 109/214/80 110/215/80
f 295/189/81 102/204/81 110/215/81 296/190/81
f 96/206/82 103/216/82 104/217/82
f 97/207/83 96/206/83 104/217/83 105/210/83
f 110/215/84 109/214/84 116/218/84 117/219/84
f 296/190/85 110/215/85 117/219/85 297/191/85
f 104/217/86 103/220/86 111/221/86
f 105/210/87 104/217/87 111/221/87 112/222/87
f 106/211/88 105/210/88 112/222/88 113/223/88
f 107/212/89 106/211/89 113/223/89 114/224/89
f 108/213/90 107/212/90 114/224/90 115/225/90
f 109/214/91 108/213/91 115/225/91 116/218/91
f 113/223/92 112/222/92 119/226/92 120/227/92
f 114/224/93 113/223/93 120/227/93 121/228/93
f 115/225/94 114/224/94 121/228/94 122/229/94
f 116/218/95 115/225/95 122/229/95 123/230/95
f 117/219/96 116/218/96 123/230/96 124/231/96
f 297/191/97 117/219/97 124/231/97 298/192/97
f 111/221/98 103/232/98 118/233/98
f 112/222/99 111/221/99 118/233/99 119/226/99
f 124/231/100 123/230/100 130/234/100 131/235/100
f 298/192/101 124/231/101 131/235/101 299/193/101
f 118/233/102 103/236/102 125/237/102
f 119/226/103 118/233/103 125/237/103 126/238/103
f 120/227/104 119/226/104 126/238/104 127/239/104
f 121/228/105 120/227/105 127/239/105 128/240/105
f 122/229/106 121/228/106 128/240/106 129/241/106
f 123/230/107 122/229/107 129/241/107 130/234/107
f 128/240/108 127/239/108 134/242/108 135/243/108
f 129/241/109 128/240/109 135/243/109 136/244/109
f 130/234/110 129/241/110 136/244/110 137/245/110
f 131/235/111 130/234/111 137/245/111 138/246/111
f 299/193/112 131/235/112 138/246/112 300/194/112
f 125/237/113 103/247/113 132/248/113
f 126/238/114 125/237/114 132/248/114 133/249/114
f 127/239/115 126/238/115 133/249/115 134/242/115
f 300/194/116 138/246/116 145/250/116 301/195/116
f 132/248/117 103/251/117 139/252/117
f 133/249/118 132/248/118 139/252/118 140/253/118
f 134/242/119 133/249/119 140/253/119 141/254/119
f 135/243/120 134/242/120 141/254/120 142/255/120
f 136/244/121 135/243/121 142/255/121 143/256/121
f 137/245/122 136/244/122 143/256/122 144/257/122
f 138/246/123 137/245/123 144/257/123 145/250/123
f 142/255/124 141/254/124 148/258/124 149/259/124
f 143/256/125 142/255/125 149/259/125 150/260/125
f 144/257/126 143/256/126 150/260/126 151/261/126
f 145/250/127 144/257/127 151/261/127 152/262/127
f 301/195/128 145/250/128 152/262/128 302/196/128
f 139/252/129 103/263/129 146/264/129
f 140/253/130 139/252/130 146/264/130 147/265/130
f 141/254/131 140/253/131 147/265/131 148/258/131
f 302/196/132 152/262/132 159/266/132 303/197/132
f 146/264/133 103/267/133 153/268/133
f 147/265/134 146/264/134 153/268/134 154/269/134
f 148/258/135 147/265/135 154/269/135 155/270/135
f 149/259/136 148/258/136 155/270/136 156/271/136
f 150/260/137 149/259/137 156/271/137 157/272/137
f 151/261/138 150/260/138 157/272/138 158/273/138
f 152/262/139 151/261/139 158/273/139 159/266/139
f 157/272/140 156/271/140 163/274/140 164/275/140
f 158/273/141 157/272/141 164/275/141 165/276/141
f 159/266/142 158/273/142 165/276/142 166/277/142
f 303/197/143 159/266/143 166/277/143 304/170/143
f 153/268/144 103/278/144 160/279/144
f 154/269/145 153/268/145 160/279/145 161/280/145
f 155/270/146 154/269/146 161/280/146 162/281/146
f 156/271/147 155/270/147 162/281/147 163/274/147
f 161/280/148 160/279/148 167/282/148 168/283/148
f 162/281/149 161/280/149 168/283/149 169/284/149
f 163/274/150 162/281/150 169/284/150 170/285/150
f 164/275/151 163/274/151 170/285/151 171/286/151
f 165/276/152 164/275/152 171/286/152 172/287/152
f 166/277/153 165/276/153 172/287/153 173/288/153
f 304/170/154 166/277/154 173/288/154 305/171/154
f 160/279/155 103/289/155 167/282/155
f 172/287/156 171/286/156 178/290/156 179/291/156
f 173/288/157 172/287/157 179/291/157 180/292/157
f 305/171/158 173/288/158 180/292/158 306/172/158
f 167/282/159 103/293/159 174/294/159
f 168/283/160 167/282/160 174/294/160 175/295/160
f 169/284/161 168/283/161 175/295/161 176/296/161
f 170/285/162 169/284/162 176/296/162 177/297/162
f 171/286/163 170/285/163 177/297/163 178/290/163
f 175/295/164 174/294/164 181/298/164 182/299/164
f 176/296/165 175/295/165 182/299/165 183/300/165
f 177/297/166 176/296/166 183/300/166 184/301/166
f 178/290/167 177/297/167 184/301/167 185/302/167
f 179/291/168 178/290/168 185/302/168 186/303/168
f 180/292/169 179/291/169 186/303/169 187/304/169
f 306/172/170 180/292/170 187/304/170 307/173/170
f 174/294/171 103/305/171 181/298/171
f 186/303/172 185/302/172 192/306/172 193/307/172
f 187/304/173 186/303/173 193/307/173 194/308/173
f 307/173/174 187/304/174 194/308/174 308/174/174
f 181/298/175 103/309/175 188/310/175
f 182/299/176 181/298/176 188/310/176 189/311/176
f 183/300/177 182/299/177 189/311/177 190/312/177
f 184/301/178 183/300/178 190/312/178 191/313/178
f 185/302/179 184/301/179 191/313/179 192/306/179
f 190/312/180 189/311/180 196/314/180 197/315/180
f 191/313/181 190/312/181 197/315/181 198/316/181
f 192/306/182 191/313/182 198/316/182 199/317/182
f 193/307/183 192/306/183 199/317/183 200/318/183
f 194/308/184 193/307/184 200/318/184 201/319/184
f 308/174/185 194/308/185 201/319/185 309/175/185
f 188/310/186 103/320/186 195/321/186
f 189/311/187 188/310/187 195/321/187 196/314/187
f 201/319/188 200/318/188 207/322/188 208/323/188
f 309/175/189 201/319/189 208/323/189 310/176/189
f 195/321/190 103/324/190 202/325/190
f 196/314/191 195/321/191 202/325/191 203/326/191
f 197/315/192 196/314/192 203/326/192 204/327/192
f 198/316/193 197/315/193 204/327/193 205/328/193
f 199/317/194 198/316/194 205/328/194 206/329/194
f 200/318/195 199/317/195 206/329/195 207/322/195
f 204/327/196 203/326/196 210/330/196 211/331/196
f 205/328/197 204/327/197 211/331/197 212/332/197
f 206/329/198 205/328/198 212/332/198 213/333/198
f 207/322/199 206/329/199 213/333/199 214/334/199
f 208/323/200 207/322/200 214/334/200 215/335/200
f 310/176/201 208/323/201 215/335/201 311/177/201
f 202/325/202 103/336/202 209/337/202
f 203/326/203 202/325/203 209/337/203 210/330/203
f 215/335/204 214/334/204 221/338/204 222/339/204
f 311/177/205 215/335/205 222/339/205 312/178/205
f 209/337/206 103/340/206 216/341/206
f 210/330/207 209/337/207 216/341/207 217/342/207
f 211/331/208 210/330/208 217/342/208 218/343/208
f 212/332/209 211/331/209 218/343/209 219/344/209
f 213/333/210 212/332/210 219/344/210 220/345/210
f 214/334/211 213/333/211 220/345/211 221/338/211
f 219/344/212 218/343/212 225/346/212 226/347/212
f 220/345/213 219/344/213 226/347/213 227/348/213
f 221/338/214 220/345/214 227/348/214 228/349/214
f 222/339/215 221/338/215 228/349/215 229/350/215
f 312/178/216 222/339/216 229/350/216 313/179/216
f 216/341/217 103/351/217 223/352/217
f 217/342/218 216/341/218 223/352/218 224/353/218
f 218/343/219 217/342/219 224/353/219 225/346/219
f 313/179/220 229/350/220 236/354/220 314/355/220
f 223/352/221 103/356/221 230/357/221
f 224/353/222 223/352/222 230/357/222 231/358/222
f 225/346/223 224/353/223 231/358/223 232/359/223
f 226/347/224 225/346/224 232/359/224 233/360/224
f 227/348/225 226/347/225 233/360/225 234/361/225
f 228/349/226 227/348/226 234/361/226 235/362/226
f 229/350/227 228/349/227 235/362/227 236/354/227
f 234/363/228 233/364/228 240/365/228 241/366/228
f 235/367/229 234/363/229 241/366/229 242/368/229
f 236/369/230 235/367/230 242/368/230 243/370/230
f 314/180/231 236/369/231 243/370/231 315/181/231
f 230/371/232 103/372/232 237/373/232
f 231/374/233 230/371/233 237/373/233 238/375/233
f 232/376/234 231/374/234 238/375/234 239/377/234
f 233/364/235 232/376/235 239/377/235 240/365/235
f 237/373/236 103/378/236 244/379/236
f 238/375/237 237/373/237 244/379/237 245/380/237
f 239/377/238 238/375/238 245/380/238 246/381/238
f 240/365/239 239/377/239 246/381/239 247/382/239
f 241/366/240 240/365/240 247/382/240 248/383/240
f 242/368/241 241/366/241 248/383/241 249/384/241
f 243/370/242 242/368/242 249/384/242 250/385/242
f 315/181/243 243/370/243 250/385/243 316/182/243
f 248/383/244 247/382/244 254/386/244 255/387/244
f 249/384/245 248/383/245 255/387/245 256/388/245
f 250/385/246 249/384/246 256/388/246 257/389/246
f 316/182/247 250/385/247 257/389/247 317/183/247
f 244/379/248 103/390/248 251/391/248
f 245/380/249 244/379/249 251/391/249 252/392/249
f 246/381/250 245/380/250 252/392/250 253/393/250
f 247/382/251 246/381/251 253/393/251 254/386/251
f 252/392/252 251/391/252 258/394/252 259/395/252
f 253/393/253 252/392/253 259/395/253 260/396/253
f 254/386/254 253/393/254 260/396/254 261/397/254
f 255/387/255 254/386/255 261/397/255 262/398/255
f 256/388/256 255/387/256 262/398/256 263/399/256
f 257/389/257 256/388/257 263/399/257 264/400/257
f 317/183/258 257/389/258 264/400/258 318/184/258
f 251/391/259 103/401/259 258/394/259
f 263/399/260 262/398/260 269/402/260 270/403/260
f 264/400/261 263/399/261 270/403/261 271/404/261
f 318/184/262 264/400/262 271/404/262 319/185/262
f 258/394/263 103/405/263 265/406/263
f 259/395/264 258/394/264 265/406/264 266/407/264
f 260/396/265 259/395/265 266/407/265 267/408/265
f 261/397/266 260/396/266 267/408/266 268/409/266
f 262/398/267 261/397/267 268/409/267 269/402/267
f 266/407/268 265/406/268 272/410/268 273/411/268
f 267/408/269 266/407/269 273/411/269 274/412/269
f 268/409/270 267/408/270 274/412/270 275/413/270
f 269/402/271 268/409/271 275/413/271 276/414/271
f 270/403/272 269/402/272 276/414/272 277/415/272
f 271/404/273 270/403/273 277/415/273 278/416/273
f 319/185/274 271/404/274 278/416/274 320/186/274
f 265/406/275 103/417/275 272/410/275
f 277/415/276 276/414/276 283/418/276 284/419/276
f 278/416/277 277/415/277 284/419/277 285/420/277
f 320/186/278 278/416/278 285/420/278 321/187/278
f 272/410/279 103/421/279 279/422/279
f 273/411/280 272/410/280 279/422/280 280/423/280
f 274/412/281 273/411/281 280/423/281 281/424/281
f 275/413/282 274/412/282 281/424/282 282/425/282
f 276/414/283 275/413/283 282/425/283 283/418/283
f 281/424/284 280/423/284 287/132/284 65/131/284
f 282/425/285 281/424/285 65/131/285 288/135/285
f 283/418/286 282/425/286 288/135/286 66/137/286
f 284/419/287 283/418/287 66/137/287 289/139/287
f 285/420/288 284/419/288 289/139/288 67/141/288
f 321/187/289 285/420/289 67/141/289 290/143/289
f 279/422/290 103/426/290 286/145/290
f 280/423/291 279/422/291 286/145/291 287/132/291
