# Blender 4.3.2
# www.blender.org
mtllib chair.mtl
o Plane
v 0.785600 0.297081 -0.799330
v 0.785600 0.300681 -0.798430
v 0.800000 0.300681 -0.799330
v 0.800000 0.693481 -0.799330
v 0.785600 0.693481 -0.798430
v 0.785600 0.697081 -0.799330
v -0.785600 0.297081 -0.799330
v -0.800000 0.300681 -0.799330
v -0.785600 0.300681 -0.798430
v -0.785600 0.697081 -0.799330
v -0.785600 0.693481 -0.798430
v -0.800000 0.693481 -0.799330
v 0.785600 0.297081 -0.878542
v 0.800000 0.300681 -0.878542
v 0.785600 0.300681 -0.879442
v 0.800000 0.693481 -0.878542
v 0.785600 0.697081 -0.878542
v 0.785600 0.693481 -0.879442
v -0.785600 0.297081 -0.878541
v -0.785600 0.300681 -0.879441
v -0.800000 0.300681 -0.878541
v -0.785600 0.697081 -0.878541
v -0.800000 0.693481 -0.878541
v -0.785600 0.693481 -0.879441
v 0.785600 0.817081 -0.799330
v 0.785600 0.820681 -0.798430
v 0.800000 0.820681 -0.799330
v 0.800000 1.213482 -0.799330
v 0.785600 1.213482 -0.798430
v 0.785600 1.217082 -0.799330
v -0.785600 0.817081 -0.799330
v -0.800000 0.820681 -0.799330
v -0.785600 0.820681 -0.798430
v -0.785600 1.217081 -0.799330
v -0.785600 1.213481 -0.798430
v -0.800000 1.213481 -0.799330
v 0.785600 0.817081 -0.878542
v 0.800000 0.820681 -0.878542
v 0.785600 0.820681 -0.879442
v 0.800000 1.213482 -0.878542
v 0.785600 1.217082 -0.878542
v 0.785600 1.213482 -0.879442
v -0.785600 0.817081 -0.878541
v -0.785600 0.820681 -0.879441
v -0.800000 0.820681 -0.878541
v -0.785600 1.217081 -0.878541
v -0.800000 1.213481 -0.878541
v -0.785600 1.213481 -0.879441
v 0.785600 1.337082 -0.799330
v 0.785600 1.340682 -0.798430
v 0.800000 1.340682 -0.799330
v 0.800000 1.733481 -0.799330
v 0.785600 1.733481 -0.798430
v 0.785600 1.737082 -0.799330
v -0.785600 1.337081 -0.799330
v -0.800000 1.340681 -0.799330
v -0.785600 1.340681 -0.798430
v -0.785600 1.737082 -0.799330
v -0.785600 1.733481 -0.798430
v -0.800000 1.733481 -0.799330
v 0.785600 1.337082 -0.878542
v 0.800000 1.340682 -0.878542
v 0.785600 1.340682 -0.879442
v 0.800000 1.733481 -0.878542
v 0.785600 1.737082 -0.878542
v 0.785600 1.733481 -0.879442
v -0.785600 1.337081 -0.878541
v -0.785600 1.340681 -0.879441
v -0.800000 1.340681 -0.878541
v -0.785600 1.737082 -0.878541
v -0.800000 1.733481 -0.878541
v -0.785600 1.733481 -0.879441
vn -1.0000 -0.0000 -0.0000
vn -0.0000 -0.0000 -1.0000
vn -0.0000 -0.0000 1.0000
vn -0.0000 -1.0000 -0.0000
vn 1.0000 -0.0000 -0.0000
vn -0.0605 0.2421 -0.9684
vn -0.0605 -0.2421 -0.9684
vn 0.0605 0.2421 -0.9684
vn 0.0605 -0.2421 -0.9684
vn -0.0605 0.2421 0.9684
vn -0.0605 -0.2421 0.9684
vn 0.0605 0.2421 0.9684
vn 0.0605 -0.2421 0.9684
vn -0.0000 0.2425 -0.9701
vn -0.0624 -0.0000 -0.9981
vn -0.0000 -0.2425 -0.9701
vn 0.0624 -0.0000 -0.9981
vn -0.0000 0.2425 0.9701
vn -0.0624 -0.0000 0.9981
vn -0.0000 -0.2425 0.9701
vn 0.0624 -0.0000 0.9981
vn -0.2425 0.9701 -0.0000
vn 0.2425 0.9701 -0.0000
vn 0.2425 -0.9701 -0.0000
vn -0.2425 -0.9701 -0.0000
vn -0.0000 1.0000 -0.0000
vt 0.009000 0.000000
vt 0.991000 0.000000
vt 0.009000 0.009000
vt 0.009000 0.991000
vt 0.991000 0.991000
vt 0.991000 0.009000
vt 1.000000 0.009000
vt 1.000000 0.991000
vt 0.991000 1.000000
vt 0.009000 1.000000
vt 0.000000 0.009000
vt 0.000000 0.991000
s 0
f 3/1/1 4/2/1 16/2/1 14/1/1
f 2/3/2 9/4/2 11/5/2 5/6/2
f 15/3/3 18/6/3 24/5/3 20/4/3
f 6/7/4 10/8/4 22/8/4 17/7/4
f 12/9/5 8/10/5 21/10/5 23/9/5
f 1/11/6 2/3/6 3/1/6
f 4/2/7 5/6/7 6/7/7
f 7/12/8 8/10/8 9/4/8
f 10/8/9 11/5/9 12/9/9
f 13/11/10 14/1/10 15/3/10
f 16/2/11 17/7/11 18/6/11
f 19/12/12 20/4/12 21/10/12
f 22/8/13 23/9/13 24/5/13
f 9/4/14 2/3/14 1/11/14 7/12/14
f 2/3/15 5/6/15 4/2/15 3/1/15
f 5/6/16 11/5/16 10/8/16 6/7/16
f 11/5/17 9/4/17 8/10/17 12/9/17
f 19/12/18 13/11/18 15/3/18 20/4/18
f 14/1/19 16/2/19 18/6/19 15/3/19
f 17/7/20 22/8/20 24/5/20 18/6/20
f 23/9/21 21/10/21 20/4/21 24/5/21
f 3/1/22 14/1/22 13/11/22 1/11/22
f 21/10/23 8/10/23 7/12/23 19/12/23
f 22/8/24 10/8/24 12/9/24 23/9/24
f 6/7/25 17/7/25 16/2/25 4/2/25
f 7/12/26 1/11/26 13/11/26 19/12/26
f 27/1/1 28/2/1 40/2/1 38/1/1
f 26/3/2 33/4/2 35/5/2 29/6/2
f 39/3/3 42/6/3 48/5/3 44/4/3
f 30/7/4 34/8/4 46/8/4 41/7/4
f 36/9/5 32/10/5 45/10/5 47/9/5
f 25/11/6 26/3/6 27/1/6
f 28/2/7 29/6/7 30/7/7
f 31/12/8 32/10/8 33/4/8
f 34/8/9 35/5/9 36/9/9
f 37/11/10 38/1/10 39/3/10
f 40/2/11 41/7/11 42/6/11
f 43/12/12 44/4/12 45/10/12
f 46/8/13 47/9/13 48/5/13
f 33/4/14 26/3/14 25/11/14 31/12/14
f 26/3/15 29/6/15 28/2/15 27/1/15
f 29/6/16 35/5/16 34/8/16 30/7/16
f 35/5/17 33/4/17 32/10/17 36/9/17
f 43/12/18 37/11/18 39/3/18 44/4/18
f 38/1/19 40/2/19 42/6/19 39/3/19
f 41/7/20 46/8/20 48/5/20 42/6/20
f 47/9/21 45/10/21 44/4/21 48/5/21
f 27/1/22 38/1/22 37/11/22 25/11/22
f 45/10/23 32/10/23 31/12/23 43/12/23
f 46/8/24 34/8/24 36/9/24 47/9/24
f 30/7/25 41/7/25 40/2/25 28/2/25
f 31/12/26 25/11/26 37/11/26 43/12/26
f 51/1/1 52/2/1 64/2/1 62/1/1
f 50/3/2 57/4/2 59/5/2 53/6/2
f 63/3/3 66/6/3 72/5/3 68/4/3
f 54/7/4 58/8/4 70/8/4 65/7/4
f 60/9/5 56/10/5 69/10/5 71/9/5
f 49/11/6 50/3/6 51/1/6
f 52/2/7 53/6/7 54/7/7
f 55/12/8 56/10/8 57/4/8
f 58/8/9 59/5/9 60/9/9
f 61/11/10 62/1/10 63/3/10
f 64/2/11 65/7/11 66/6/11
f 67/12/12 68/4/12 69/10/12
f 70/8/13 71/9/13 72/5/13
f 57/4/14 50/3/14 49/11/14 55/12/14
f 50/3/15 53/6/15 52/2/15 51/1/15
f 53/6/16 59/5/16 58/8/16 54/7/16
f 59/5/17 57/4/17 56/10/17 60/9/17
f 67/12/18 61/11/18 63/3/18 68/4/18
f 62/1/19 64/2/19 66/6/19 63/3/19
f 65/7/20 70/8/20 72/5/20 66/6/20
f 71/9/21 69/10/21 68/4/21 72/5/21
f 51/1/22 62/1/22 61/11/22 49/11/22
f 69/10/23 56/10/23 55/12/23 67/12/23
f 70/8/24 58/8/24 60/9/24 71/9/24
f 54/7/25 65/7/25 64/2/25 52/2/25
f 55/12/26 49/11/26 61/11/26 67/12/26
o Cube
v 0.000000 0.175460 0.000000
v 0.000000 -0.175460 0.000000
v 0.000000 0.000000 1.000000
v 1.000000 0.000000 0.000000
v 0.000000 0.000000 -1.000000
v -1.000000 0.000000 0.000000
v 0.000000 0.175460 0.500000
v 0.000000 0.175460 -0.500000
v 0.500000 0.175460 0.000000
v -0.500000 0.175460 0.000000
v 0.000000 -0.175460 0.500000
v 0.000000 -0.175460 -0.500000
v -0.500000 -0.175460 0.000000
v 0.500000 -0.175460 0.000000
v -0.500000 0.000000 1.000000
v 0.500000 0.000000 1.000000
v 0.000000 -0.087730 1.000000
v 0.000000 0.087730 1.000000
v 1.000000 0.000000 0.500000
v 1.000000 0.000000 -0.500000
v 1.000000 -0.087730 0.000000
v 1.000000 0.087730 0.000000
v 0.500000 0.000000 -1.000000
v -0.500000 0.000000 -1.000000
v 0.000000 -0.087730 -1.000000
v 0.000000 0.087730 -1.000000
v -1.000000 0.000000 -0.500000
v -1.000000 0.000000 0.500000
v -1.000000 -0.087730 0.000000
v -1.000000 0.087730 0.000000
v -1.000000 0.087730 0.500000
v -1.000000 -0.087730 0.500000
v -1.000000 -0.087730 -0.500000
v -0.500000 0.087730 -1.000000
v -0.500000 -0.087730 -1.000000
v 0.500000 -0.087730 -1.000000
v 1.000000 0.087730 -0.500000
v 1.000000 -0.087730 -0.500000
v 1.000000 -0.087730 0.500000
v 0.500000 0.087730 1.000000
v 0.500000 -0.087730 1.000000
v -0.500000 -0.087730 1.000000
v 0.500000 -0.175460 -0.500000
v -0.500000 -0.175460 -0.500000
v -0.500000 -0.175460 0.500000
v -0.500000 0.175460 -0.500000
v 0.500000 0.175460 -0.500000
v 0.500000 0.175460 0.500000
v -0.500000 0.175460 0.500000
v 0.500000 -0.175460 0.500000
v -0.500000 0.087730 1.000000
v 1.000000 0.087730 0.500000
v 0.500000 0.087730 -1.000000
v -1.000000 0.087730 -0.500000
v 0.000000 0.175460 0.750000
v 0.000000 0.175460 -0.250000
v 0.750000 0.175460 0.000000
v -0.250000 0.175460 0.000000
v 0.000000 -0.175460 0.750000
v 0.000000 -0.175460 -0.250000
v -0.750000 -0.175460 0.000000
v 0.250000 -0.175460 0.000000
v -0.750000 0.000000 1.000000
v 0.250000 0.000000 1.000000
v 0.000000 -0.131595 1.000000
v 0.000000 0.043865 1.000000
v 1.000000 0.000000 0.750000
v 1.000000 0.000000 -0.250000
v 1.000000 -0.131595 0.000000
v 1.000000 0.043865 0.000000
v 0.750000 0.000000 -1.000000
v -0.250000 0.000000 -1.000000
v 0.000000 -0.131595 -1.000000
v 0.000000 0.043865 -1.000000
v -1.000000 0.000000 -0.750000
v -1.000000 0.000000 0.250000
v -1.000000 -0.131595 0.000000
v -1.000000 0.043865 0.000000
v 0.000000 0.175460 0.250000
v 0.000000 0.175460 -0.750000
v 0.250000 0.175460 0.000000
v -0.750000 0.175460 0.000000
v 0.000000 -0.175460 0.250000
v 0.000000 -0.175460 -0.750000
v -0.250000 -0.175460 0.000000
v 0.750000 -0.175460 0.000000
v -0.250000 0.000000 1.000000
v 0.750000 0.000000 1.000000
v 0.000000 -0.043865 1.000000
v 0.000000 0.131595 1.000000
v 1.000000 0.000000 0.250000
v 1.000000 0.000000 -0.750000
v 1.000000 -0.043865 0.000000
v 1.000000 0.131595 0.000000
v 0.250000 0.000000 -1.000000
v -0.750000 0.000000 -1.000000
v 0.000000 -0.043865 -1.000000
v 0.000000 0.131595 -1.000000
v -1.000000 0.000000 -0.250000
v -1.000000 0.000000 0.750000
v -1.000000 -0.043865 0.000000
v -1.000000 0.131595 0.000000
v -1.000000 0.087730 0.250000
v -1.000000 0.087730 0.750000
v -1.000000 0.043865 0.500000
v -1.000000 0.131595 0.500000
v -1.000000 -0.087730 0.250000
v -1.000000 -0.087730 0.750000
v -1.000000 -0.131595 0.500000
v -1.000000 -0.043865 0.500000
v -1.000000 -0.087730 -0.750000
v -1.000000 -0.087730 -0.250000
v -1.000000 -0.131595 -0.500000
v -1.000000 -0.043865 -0.500000
v -0.250000 0.087730 -1.000000
v -0.750000 0.087730 -1.000000
v -0.500000 0.043865 -1.000000
v -0.500000 0.131595 -1.000000
v -0.250000 -0.087730 -1.000000
v -0.750000 -0.087730 -1.000000
v -0.500000 -0.131595 -1.000000
v -0.500000 -0.043865 -1.000000
v 0.750000 -0.087730 -1.000000
v 0.250000 -0.087730 -1.000000
v 0.500000 -0.131595 -1.000000
v 0.500000 -0.043865 -1.000000
v 1.000000 0.087730 -0.250000
v 1.000000 0.087730 -0.750000
v 1.000000 0.043865 -0.500000
v 1.000000 0.131595 -0.500000
v 1.000000 -0.087730 -0.250000
v 1.000000 -0.087730 -0.750000
v 1.000000 -0.131595 -0.500000
v 1.000000 -0.043865 -0.500000
v 1.000000 -0.087730 0.750000
v 1.000000 -0.087730 0.250000
v 1.000000 -0.131595 0.500000
v 1.000000 -0.043865 0.500000
v 0.250000 0.087730 1.000000
v 0.750000 0.087730 1.000000
v 0.500000 0.043865 1.000000
v 0.500000 0.131595 1.000000
v 0.250000 -0.087730 1.000000
v 0.750000 -0.087730 1.000000
v 0.500000 -0.131595 1.000000
v 0.500000 -0.043865 1.000000
v -0.750000 -0.087730 1.000000
v -0.250000 -0.087730 1.000000
v -0.500000 -0.131595 1.000000
v -0.500000 -0.043865 1.000000
v 0.500000 -0.175460 -0.250000
v 0.500000 -0.175460 -0.750000
v 0.250000 -0.175460 -0.500000
v 0.750000 -0.175460 -0.500000
v -0.500000 -0.175460 -0.250000
v -0.500000 -0.175460 -0.750000
v -0.750000 -0.175460 -0.500000
v -0.250000 -0.175460 -0.500000
v -0.500000 -0.175460 0.750000
v -0.500000 -0.175460 0.250000
v -0.750000 -0.175460 0.500000
v -0.250000 -0.175460 0.500000
v -0.500000 0.175460 -0.250000
v -0.500000 0.175460 -0.750000
v -0.250000 0.175460 -0.500000
v -0.750000 0.175460 -0.500000
v 0.500000 0.175460 -0.250000
v 0.500000 0.175460 -0.750000
v 0.750000 0.175460 -0.500000
v 0.250000 0.175460 -0.500000
v 0.500000 0.175460 0.750000
v 0.500000 0.175460 0.250000
v 0.750000 0.175460 0.500000
v 0.250000 0.175460 0.500000
v -0.500000 0.175460 0.750000
v -0.500000 0.175460 0.250000
v -0.250000 0.175460 0.500000
v -0.750000 0.175460 0.500000
v 0.500000 -0.175460 0.750000
v 0.500000 -0.175460 0.250000
v 0.250000 -0.175460 0.500000
v 0.750000 -0.175460 0.500000
v -0.750000 0.087730 1.000000
v -0.250000 0.087730 1.000000
v -0.500000 0.043865 1.000000
v -0.500000 0.131595 1.000000
v 1.000000 0.087730 0.750000
v 1.000000 0.087730 0.250000
v 1.000000 0.043865 0.500000
v 1.000000 0.131595 0.500000
v 0.750000 0.087730 -1.000000
v 0.250000 0.087730 -1.000000
v 0.500000 0.043865 -1.000000
v 0.500000 0.131595 -1.000000
v -1.000000 0.087730 -0.750000
v -1.000000 0.087730 -0.250000
v -1.000000 0.043865 -0.500000
v -1.000000 0.131595 -0.500000
v -1.000000 0.131595 -0.250000
v -1.000000 0.043865 -0.250000
v -1.000000 0.043865 -0.750000
v 0.250000 0.131595 -1.000000
v 0.250000 0.043865 -1.000000
v 0.750000 0.043865 -1.000000
v 1.000000 0.131595 0.250000
v 1.000000 0.043865 0.250000
v 1.000000 0.043865 0.750000
v -0.250000 0.131595 1.000000
v -0.250000 0.043865 1.000000
v -0.750000 0.043865 1.000000
v 0.750000 -0.175460 0.250000
v 0.250000 -0.175460 0.250000
v 0.250000 -0.175460 0.750000
v -0.750000 0.175460 0.250000
v -0.250000 0.175460 0.250000
v -0.250000 0.175460 0.750000
v 0.250000 0.175460 0.250000
v 0.750000 0.175460 0.250000
v 0.750000 0.175460 0.750000
v 0.250000 0.175460 -0.750000
v 0.750000 0.175460 -0.250000
v -0.250000 0.175460 -0.750000
v -0.250000 0.175460 -0.250000
v -0.250000 -0.175460 0.250000
v -0.750000 -0.175460 0.250000
v -0.250000 -0.175460 -0.750000
v -0.750000 -0.175460 -0.250000
v 0.250000 -0.175460 -0.750000
v 0.250000 -0.175460 -0.250000
v -0.250000 -0.043865 1.000000
v -0.250000 -0.131595 1.000000
v -0.750000 -0.131595 1.000000
v 0.750000 -0.043865 1.000000
v 0.750000 -0.131595 1.000000
v 0.250000 -0.131595 1.000000
v 0.750000 0.131595 1.000000
v 0.750000 0.043865 1.000000
v 0.250000 0.043865 1.000000
v 1.000000 -0.043865 0.250000
v 1.000000 -0.131595 0.250000
v 1.000000 -0.131595 0.750000
v 1.000000 -0.043865 -0.750000
v 1.000000 -0.131595 -0.750000
v 1.000000 -0.131595 -0.250000
v 1.000000 0.131595 -0.750000
v 1.000000 0.043865 -0.750000
v 1.000000 0.043865 -0.250000
v 0.250000 -0.043865 -1.000000
v 0.250000 -0.131595 -1.000000
v 0.750000 -0.131595 -1.000000
v -0.750000 -0.043865 -1.000000
v -0.750000 -0.131595 -1.000000
v -0.250000 -0.131595 -1.000000
v -0.750000 0.131595 -1.000000
v -0.750000 0.043865 -1.000000
v -0.250000 0.043865 -1.000000
v -1.000000 -0.043865 -0.250000
v -1.000000 -0.131595 -0.250000
v -1.000000 -0.131595 -0.750000
v -1.000000 -0.043865 0.750000
v -1.000000 -0.131595 0.750000
v -1.000000 -0.131595 0.250000
v -1.000000 0.131595 0.750000
v -1.000000 0.043865 0.750000
v -1.000000 0.043865 0.250000
v -1.000000 0.131595 0.250000
v -1.000000 -0.043865 0.250000
v -1.000000 -0.043865 -0.750000
v -0.250000 0.131595 -1.000000
v -0.250000 -0.043865 -1.000000
v 0.750000 -0.043865 -1.000000
v 1.000000 0.131595 -0.250000
v 1.000000 -0.043865 -0.250000
v 1.000000 -0.043865 0.750000
v 0.250000 0.131595 1.000000
v 0.250000 -0.043865 1.000000
v -0.750000 -0.043865 1.000000
v 0.750000 -0.175460 -0.250000
v -0.250000 -0.175460 -0.250000
v -0.250000 -0.175460 0.750000
v -0.750000 0.175460 -0.250000
v 0.250000 0.175460 -0.250000
v 0.250000 0.175460 0.750000
v -0.750000 0.175460 0.750000
v -0.750000 0.131595 1.000000
v 1.000000 0.131595 0.750000
v 0.750000 0.131595 -1.000000
v -1.000000 0.131595 -0.750000
v -1.000000 -0.175460 0.960000
v -0.960000 -0.175460 1.000000
v -1.000000 0.168442 0.960000
v -0.960000 0.168442 1.000000
v -0.960000 0.175460 0.960000
v -0.960000 -0.175460 -1.000000
v -1.000000 -0.175460 -0.960000
v -1.000000 0.175460 -0.960000
v -0.960000 0.175460 -1.000000
v 0.960000 -0.175460 1.000000
v 1.000000 -0.175460 0.960000
v 0.960000 0.175460 0.960000
v 0.960000 0.168442 1.000000
v 1.000000 0.168442 0.960000
v 1.000000 -0.175460 -0.960000
v 0.960000 -0.175460 -1.000000
v 0.960000 0.175460 -1.000000
v 1.000000 0.175460 -0.960000
v -0.960000 -0.175460 0.000000
v -1.000000 -0.168442 0.000000
v -0.960000 0.000000 1.000000
v -1.000000 0.000000 0.960000
v -0.960000 0.175460 0.000000
v -1.000000 0.168442 0.000000
v -0.960000 0.000000 -1.000000
v -1.000000 0.000000 -0.960000
v 0.000000 -0.175460 -0.960000
v 0.000000 -0.168442 -1.000000
v 0.000000 0.175460 -0.960000
v 0.000000 0.168442 -1.000000
v 1.000000 0.000000 -0.960000
v 0.960000 0.000000 -1.000000
v 0.960000 -0.175460 0.000000
v 1.000000 -0.168442 0.000000
v 0.960000 0.175460 0.000000
v 1.000000 0.168442 0.000000
v 0.960000 0.000000 1.000000
v 1.000000 0.000000 0.960000
v 0.000000 -0.175460 0.960000
v 0.000000 -0.168442 1.000000
v 0.000000 0.175460 0.960000
v 0.000000 0.168442 1.000000
v -0.960000 -0.175460 0.500000
v -1.000000 -0.168442 0.500000
v -0.960000 0.087730 1.000000
v -1.000000 0.087730 0.960000
v -0.960000 0.175460 -0.500000
v -1.000000 0.168442 -0.500000
v -0.960000 -0.087730 -1.000000
v -1.000000 -0.087730 -0.960000
v -0.500000 -0.175460 -0.960000
v -0.500000 -0.168442 -1.000000
v 0.500000 0.175460 -0.960000
v 0.500000 0.168442 -1.000000
v 1.000000 -0.087730 -0.960000
v 0.960000 -0.087730 -1.000000
v 0.960000 -0.175460 -0.500000
v 1.000000 -0.168442 -0.500000
v 0.960000 0.175460 0.500000
v 1.000000 0.168442 0.500000
v 0.960000 -0.087730 1.000000
v 1.000000 -0.087730 0.960000
v 0.500000 -0.175460 0.960000
v 0.500000 -0.168442 1.000000
v -0.500000 0.175460 0.960000
v -0.500000 0.168442 1.000000
v -0.960000 -0.175460 -0.500000
v -1.000000 -0.168442 -0.500000
v -0.960000 -0.087730 1.000000
v -1.000000 -0.087730 0.960000
v -0.960000 0.175460 0.500000
v -1.000000 0.168442 0.500000
v -0.960000 0.087730 -1.000000
v -1.000000 0.087730 -0.960000
v 0.500000 -0.175460 -0.960000
v 0.500000 -0.168442 -1.000000
v -0.500000 0.175460 -0.960000
v -0.500000 0.168442 -1.000000
v 1.000000 0.087730 -0.960000
v 0.960000 0.087730 -1.000000
v 0.960000 -0.175460 0.500000
v 1.000000 -0.168442 0.500000
v 0.960000 0.175460 -0.500000
v 1.000000 0.168442 -0.500000
v 0.960000 0.087730 1.000000
v 1.000000 0.087730 0.960000
v -0.500000 -0.175460 0.960000
v -0.500000 -0.168442 1.000000
v 0.500000 0.175460 0.960000
v 0.500000 0.168442 1.000000
v -0.960000 -0.175460 0.710000
v -0.960000 -0.182479 0.750000
v -1.000000 -0.168442 0.790000
v -1.000000 0.131595 0.960000
v -0.960000 0.131595 1.000000
v -0.960000 0.175460 -0.517397
v -0.960000 0.182477 -0.558314
v -1.000000 0.168442 -0.596485
v -1.000000 -0.131595 -0.960000
v -0.960000 -0.131595 -1.000000
v -0.710000 -0.175460 -0.960000
v -0.750000 -0.182479 -0.960000
v -0.790000 -0.168442 -1.000000
v 0.710000 0.175460 -0.960000
v 0.750000 0.182479 -0.960000
v 0.790000 0.168442 -1.000000
v 0.960000 -0.131595 -1.000000
v 1.000000 -0.131595 -0.960000
v 0.960000 -0.175460 -0.710000
v 0.960000 -0.182479 -0.750000
v 1.000000 -0.168442 -0.790000
v 1.000000 0.168442 0.750000
v 0.960000 0.175460 0.750000
v 1.000000 -0.131595 0.960000
v 0.960000 -0.131595 1.000000
v 0.710000 -0.175460 0.960000
v 0.750000 -0.182479 0.960000
v 0.790000 -0.168442 1.000000
v -0.750000 0.168442 1.000000
v -0.750000 0.175460 0.960000
v -1.000000 -0.168442 -0.250000
v -0.960000 -0.175460 -0.250000
v -1.000000 -0.043865 0.960000
v -0.960000 -0.043865 1.000000
v -1.000000 0.168442 0.250000
v -0.960000 0.175460 0.250000
v -1.000000 0.043865 -0.960000
v -0.960000 0.043865 -1.000000
v 0.250000 -0.168442 -1.000000
v 0.250000 -0.175460 -0.960000
v -0.250000 0.168442 -1.000000
v -0.250000 0.175460 -0.960000
v 0.960000 0.043865 -1.000000
v 1.000000 0.043865 -0.960000
v 1.000000 -0.168442 0.250000
v 0.960000 -0.175460 0.250000
v 1.000000 0.168442 -0.250000
v 0.960000 0.175460 -0.250000
v 1.000000 0.043865 0.960000
v 0.960000 0.043865 1.000000
v -0.250000 -0.168442 1.000000
v -0.250000 -0.175460 0.960000
v 0.250000 0.168442 1.000000
v 0.250000 0.175460 0.960000
v -1.000000 -0.168442 0.250000
v -0.960000 -0.175460 0.250000
v -1.000000 0.043865 0.960000
v -0.960000 0.043865 1.000000
v -1.000000 0.168442 -0.250000
v -0.960000 0.175460 -0.250000
v -1.000000 -0.043865 -0.960000
v -0.960000 -0.043865 -1.000000
v -0.250000 -0.168442 -1.000000
v -0.250000 -0.175460 -0.960000
v 0.250000 0.168442 -1.000000
v 0.250000 0.175460 -0.960000
v 0.960000 -0.043865 -1.000000
v 1.000000 -0.043865 -0.960000
v 1.000000 -0.168442 -0.250000
v 0.960000 -0.175460 -0.250000
v 1.000000 0.168442 0.250000
v 0.960000 0.175460 0.250000
v 1.000000 -0.043865 0.960000
v 0.960000 -0.043865 1.000000
v 0.250000 -0.168442 1.000000
v 0.250000 -0.175460 0.960000
v -0.250000 0.168442 1.000000
v -0.250000 0.175460 0.960000
v -1.000000 -0.168442 -0.790000
v -0.960000 -0.182479 -0.750000
v -0.960000 -0.175460 -0.710000
v -1.000000 -0.131595 0.960000
v -0.960000 -0.131595 1.000000
v -1.000000 0.168442 0.750000
v -0.960000 0.175460 0.750000
v -1.000000 0.131595 -0.960000
v -0.960000 0.131595 -1.000000
v 0.790000 -0.168442 -1.000000
v 0.750000 -0.182479 -0.960000
v 0.710000 -0.175460 -0.960000
v -0.790000 0.168442 -1.000000
v -0.750000 0.182479 -0.960000
v -0.710000 0.175460 -0.960000
v 0.960000 0.131595 -1.000000
v 1.000000 0.131595 -0.960000
v 0.960000 -0.175460 0.710000
v 1.000000 -0.168442 0.790000
v 0.960000 -0.182479 0.750000
v 1.000000 0.168442 -0.596485
v 0.960000 0.182477 -0.558314
v 0.960000 0.175460 -0.517397
v 1.000000 0.131595 0.960000
v 0.960000 0.131595 1.000000
v -0.790000 -0.168442 1.000000
v -0.750000 -0.182479 0.960000
v -0.710000 -0.175460 0.960000
v 0.750000 0.168442 1.000000
v 0.750000 0.175460 0.960000
v 0.750000 0.182479 -0.598319
v 0.710000 0.175460 -0.517397
v 0.790000 0.182477 -0.558314
v -0.750000 0.182479 -0.598319
v -0.790000 0.182477 -0.558314
v -0.710000 0.175460 -0.517397
v -0.750000 -0.182479 0.790000
v -0.790000 -0.182479 0.750000
v -0.710000 -0.175460 0.710000
v -0.750000 -0.182479 -0.790000
v -0.710000 -0.175460 -0.710000
v -0.790000 -0.182479 -0.750000
v 0.750000 -0.182479 -0.790000
v 0.790000 -0.182479 -0.750000
v 0.710000 -0.175460 -0.710000
v 0.750000 -0.182479 0.790000
v 0.710000 -0.175460 0.710000
v 0.790000 -0.182479 0.750000
v -0.960000 1.649565 -0.750000
v -1.000000 1.649565 -0.790005
v -1.000000 1.649565 -0.960000
v -0.960000 1.649565 -1.000000
v 0.750000 1.649565 -0.960000
v 0.790000 1.649565 -1.000000
v 0.960000 1.649565 -1.000000
v 1.000000 1.649565 -0.960000
v -0.790000 1.649565 -1.000000
v -0.750000 1.649565 -0.960000
v 1.000000 1.649565 -0.790005
v 0.960000 1.649565 -0.750000
v 0.790000 1.649565 -0.750000
v 0.750000 1.649565 -0.790005
v -0.750000 1.649565 -0.790005
v -0.790000 1.649565 -0.750000
v -1.000000 1.746157 -0.790005
v -0.960000 1.746157 -0.750000
v -0.960000 1.753175 -0.790000
v -1.000000 1.746157 -0.960000
v -0.960000 1.753175 -0.960000
v -0.960000 1.746157 -1.000000
v 0.790000 1.746157 -1.000000
v 0.750000 1.746157 -0.960000
v 0.790000 1.753175 -0.960000
v 0.960000 1.746157 -1.000000
v 0.960000 1.753175 -0.960000
v 1.000000 1.746157 -0.960000
v -0.790000 1.746157 -1.000000
v -0.790000 1.753175 -0.960000
v -0.750000 1.746157 -0.960000
v 1.000000 1.746157 -0.790005
v 0.960000 1.753175 -0.790000
v 0.960000 1.746157 -0.750000
v 0.750000 1.746157 -0.790005
v 0.790000 1.746157 -0.750000
v 0.790000 1.753175 -0.790000
v -0.750000 1.746157 -0.790005
v -0.790000 1.753175 -0.790000
v -0.790000 1.746157 -0.750000
v -1.000000 -1.285760 0.790000
v -0.960000 -1.285760 0.750000
v -0.960000 -1.292778 0.790000
v -1.000000 -1.285760 0.960000
v -0.960000 -1.292778 0.960000
v -0.960000 -1.285760 1.000000
v -0.790000 -1.285760 -1.000000
v -0.750000 -1.285760 -0.960000
v -0.790000 -1.292778 -0.960000
v -0.960000 -1.285760 -1.000000
v -0.960000 -1.292778 -0.960000
v -1.000000 -1.285760 -0.960000
v 1.000000 -1.285760 -0.790000
v 0.960000 -1.285760 -0.750000
v 0.960000 -1.292778 -0.790000
v 1.000000 -1.285760 -0.960000
v 0.960000 -1.292778 -0.960000
v 0.960000 -1.285760 -1.000000
v 0.790000 -1.285760 1.000000
v 0.750000 -1.285760 0.960000
v 0.790000 -1.292778 0.960000
v 0.960000 -1.285760 1.000000
v 0.960000 -1.292778 0.960000
v 1.000000 -1.285760 0.960000
v -1.000000 -1.285760 -0.790000
v -0.960000 -1.292778 -0.790000
v -0.960000 -1.285760 -0.750000
v 0.790000 -1.285760 -1.000000
v 0.790000 -1.292778 -0.960000
v 0.750000 -1.285760 -0.960000
v 1.000000 -1.285760 0.790000
v 0.960000 -1.292778 0.790000
v 0.960000 -1.285760 0.750000
v -0.790000 -1.285760 1.000000
v -0.790000 -1.292778 0.960000
v -0.750000 -1.285760 0.960000
v -0.750000 -1.285760 0.790000
v -0.790000 -1.292778 0.790000
v -0.790000 -1.285760 0.750000
v -0.750000 -1.285760 -0.790000
v -0.790000 -1.285760 -0.750000
v -0.790000 -1.292778 -0.790000
v 0.750000 -1.285760 -0.790000
v 0.790000 -1.292778 -0.790000
v 0.790000 -1.285760 -0.750000
v 0.750000 -1.285760 0.790000
v 0.790000 -1.285760 0.750000
v 0.790000 -1.292778 0.790000
vn -0.0000 -0.0000 -1.0000
vn 1.0000 -0.0000 -0.0000
vn -0.0000 -0.0000 1.0000
vn -0.0000 1.0000 -0.0000
vn -1.0000 -0.0000 -0.0000
vn -0.0000 -1.0000 -0.0000
vn -0.0000 0.1296 0.9916
vn -0.1703 0.9706 0.1703
vn 0.1703 0.9706 0.1703
vn -0.4603 -0.8744 -0.1534
vn -0.4523 0.8790 0.1507
vn 0.1534 -0.8744 -0.4603
vn -0.1534 0.8744 -0.4603
vn 0.4603 -0.8744 0.1534
vn -0.1534 -0.8744 0.4603
vn -0.4603 -0.8744 0.1534
vn -0.1534 -0.8744 -0.4603
vn 0.1534 0.8744 -0.4603
vn 0.4603 -0.8744 -0.1534
vn 0.4523 0.8790 0.1507
vn 0.1534 -0.8744 0.4603
vn -0.0578 0.9966 0.0579
vn 0.0578 0.9966 0.0579
vn 0.0583 -0.9966 -0.0583
vn 0.0583 -0.9966 0.0583
vn -0.0583 -0.9966 0.0583
vn -0.0583 -0.9966 -0.0583
vn -0.1703 0.9706 -0.1703
vn 0.1703 0.9706 -0.1703
vn -0.1703 -0.9706 -0.1703
vn -0.1703 -0.9706 0.1703
vn 0.1703 -0.9706 -0.1703
vn 0.1703 -0.9706 0.1703
vn -0.7071 -0.0000 0.7071
vn -0.7071 -0.0000 -0.7071
vn 0.7071 -0.0000 -0.7071
vn 0.1728 0.9850 -0.0000
vn 0.7071 -0.0000 0.7071
vn -0.0000 0.9850 0.1728
vn -0.1728 -0.9850 -0.0000
vn -0.1728 0.9850 -0.0000
vn -0.0000 -0.9850 -0.1728
vn -0.0000 0.9850 -0.1728
vn 0.1728 -0.9850 -0.0000
vn -0.0000 -0.9850 0.1728
vn -0.0000 0.9856 0.1690
vn 0.7042 0.0920 0.7041
vn -0.7042 0.0920 0.7041
vn 0.7072 -0.0000 0.7071
vn -0.7072 -0.0000 0.7071
vt 0.593750 0.255000
vt 0.625000 0.255000
vt 0.620000 0.276250
vt 0.593750 0.281250
vt 0.593750 0.505000
vt 0.625000 0.502824
vt 0.620000 0.530620
vt 0.593750 0.531250
vt 0.593750 0.755000
vt 0.620000 0.755000
vt 0.620000 0.781250
vt 0.593750 0.781250
vt 0.843750 0.718750
vt 0.870000 0.718750
vt 0.870000 0.745000
vt 0.843750 0.745000
vt 0.343750 0.526250
vt 0.343750 0.505000
vt 0.343750 0.505000
vt 0.343750 0.526250
vt 0.380000 0.223750
vt 0.406250 0.218750
vt 0.406250 0.245000
vt 0.375000 0.245000
vt 0.750000 0.718750
vt 0.781250 0.718750
vt 0.781250 0.745000
vt 0.750000 0.745000
vt 0.718750 0.593750
vt 0.750000 0.593750
vt 0.750000 0.625000
vt 0.718750 0.625000
vt 0.593750 0.093750
vt 0.620000 0.093750
vt 0.620000 0.125000
vt 0.593750 0.125000
vt 0.250000 0.718750
vt 0.281250 0.718750
vt 0.281250 0.745000
vt 0.250000 0.745000
vt 0.218750 0.593750
vt 0.250000 0.593750
vt 0.250000 0.625000
vt 0.218750 0.625000
vt 0.343750 0.625000
vt 0.370000 0.625000
vt 0.370000 0.656250
vt 0.343750 0.656250
vt 0.500000 0.968750
vt 0.531250 0.968750
vt 0.531250 0.995000
vt 0.500000 0.995000
vt 0.468750 0.843750
vt 0.500000 0.843750
vt 0.500000 0.875000
vt 0.468750 0.875000
vt 0.718750 0.718750
vt 0.718750 0.745000
vt 0.468750 0.755000
vt 0.500000 0.755000
vt 0.500000 0.781250
vt 0.468750 0.781250
vt 0.468750 0.593750
vt 0.500000 0.593750
vt 0.500000 0.625000
vt 0.468750 0.625000
vt 0.531250 0.755000
vt 0.531250 0.781250
vt 0.468750 0.505000
vt 0.500000 0.505000
vt 0.500000 0.531250
vt 0.468750 0.531250
vt 0.468750 0.343750
vt 0.500000 0.343750
vt 0.500000 0.375000
vt 0.468750 0.375000
vt 0.531250 0.505000
vt 0.531250 0.531250
vt 0.468750 0.255000
vt 0.500000 0.255000
vt 0.500000 0.281250
vt 0.468750 0.281250
vt 0.468750 0.093750
vt 0.500000 0.093750
vt 0.500000 0.125000
vt 0.468750 0.125000
vt 0.531250 0.255000
vt 0.531250 0.281250
vt 0.531250 0.093750
vt 0.562500 0.093750
vt 0.562500 0.125000
vt 0.531250 0.125000
vt 0.531250 0.031250
vt 0.562500 0.031250
vt 0.562500 0.062500
vt 0.531250 0.062500
vt 0.843750 0.656250
vt 0.870000 0.656250
vt 0.870000 0.687500
vt 0.843750 0.687500
vt 0.406250 0.093750
vt 0.437500 0.093750
vt 0.437500 0.125000
vt 0.406250 0.125000
vt 0.406250 0.031250
vt 0.437500 0.031250
vt 0.437500 0.062500
vt 0.406250 0.062500
vt 0.468750 0.031250
vt 0.500000 0.031250
vt 0.500000 0.062500
vt 0.468750 0.062500
vt 0.406250 0.255000
vt 0.437500 0.255000
vt 0.437500 0.281250
vt 0.406250 0.281250
vt 0.406250 0.156250
vt 0.437500 0.156250
vt 0.437500 0.187500
vt 0.406250 0.187500
vt 0.468750 0.156250
vt 0.500000 0.156250
vt 0.500000 0.187500
vt 0.468750 0.187500
vt 0.531250 0.343750
vt 0.562500 0.343750
vt 0.562500 0.375000
vt 0.531250 0.375000
vt 0.562500 0.281250
vt 0.562500 0.312500
vt 0.531250 0.312500
vt 0.781250 0.505000
vt 0.812500 0.505000
vt 0.812500 0.531250
vt 0.781250 0.531250
vt 0.406250 0.343750
vt 0.437500 0.343750
vt 0.437500 0.375000
vt 0.406250 0.375000
vt 0.437500 0.312500
vt 0.406250 0.312500
vt 0.500000 0.312500
vt 0.468750 0.312500
vt 0.406250 0.505000
vt 0.437500 0.505000
vt 0.437500 0.531250
vt 0.406250 0.531250
vt 0.406250 0.406250
vt 0.437500 0.406250
vt 0.437500 0.437500
vt 0.406250 0.437500
vt 0.468750 0.406250
vt 0.500000 0.406250
vt 0.500000 0.437500
vt 0.468750 0.437500
vt 0.531250 0.593750
vt 0.562500 0.593750
vt 0.562500 0.625000
vt 0.531250 0.625000
vt 0.562500 0.531250
vt 0.562500 0.562500
vt 0.531250 0.562500
vt 0.562500 0.718750
vt 0.593750 0.718750
vt 0.593750 0.745000
vt 0.562500 0.745000
vt 0.406250 0.593750
vt 0.437500 0.593750
vt 0.437500 0.625000
vt 0.406250 0.625000
vt 0.437500 0.562500
vt 0.406250 0.562500
vt 0.500000 0.562500
vt 0.468750 0.562500
vt 0.406250 0.755000
vt 0.437500 0.755000
vt 0.437500 0.781250
vt 0.406250 0.781250
vt 0.406250 0.656250
vt 0.437500 0.656250
vt 0.437500 0.687500
vt 0.406250 0.687500
vt 0.468750 0.656250
vt 0.500000 0.656250
vt 0.500000 0.687500
vt 0.468750 0.687500
vt 0.531250 0.843750
vt 0.562500 0.843750
vt 0.562500 0.875000
vt 0.531250 0.875000
vt 0.562500 0.781250
vt 0.562500 0.812500
vt 0.531250 0.812500
vt 0.130000 0.718750
vt 0.151250 0.718750
vt 0.151250 0.718750
vt 0.406250 0.843750
vt 0.437500 0.843750
vt 0.437500 0.875000
vt 0.406250 0.875000
vt 0.437500 0.812500
vt 0.406250 0.812500
vt 0.500000 0.812500
vt 0.468750 0.812500
vt 0.437500 0.968750
vt 0.468750 0.968750
vt 0.468750 0.995000
vt 0.437500 0.995000
vt 0.406250 0.906250
vt 0.437500 0.906250
vt 0.437500 0.937500
vt 0.406250 0.937500
vt 0.468750 0.906250
vt 0.500000 0.906250
vt 0.500000 0.937500
vt 0.468750 0.937500
vt 0.281250 0.593750
vt 0.312500 0.593750
vt 0.312500 0.625000
vt 0.281250 0.625000
vt 0.281250 0.531250
vt 0.312500 0.531250
vt 0.312500 0.562500
vt 0.281250 0.562500
vt 0.630000 0.656250
vt 0.656250 0.656250
vt 0.656250 0.687500
vt 0.630000 0.687500
vt 0.156250 0.593750
vt 0.187500 0.593750
vt 0.187500 0.625000
vt 0.156250 0.625000
vt 0.338750 0.536250
vt 0.343750 0.562500
vt 0.218750 0.531250
vt 0.250000 0.531250
vt 0.250000 0.562500
vt 0.218750 0.562500
vt 0.656250 0.718750
vt 0.687500 0.718750
vt 0.687500 0.745000
vt 0.656250 0.745000
vt 0.156250 0.656250
vt 0.187500 0.656250
vt 0.187500 0.687500
vt 0.156250 0.687500
vt 0.218750 0.656250
vt 0.250000 0.656250
vt 0.250000 0.687500
vt 0.218750 0.687500
vt 0.781250 0.593750
vt 0.812500 0.593750
vt 0.812500 0.625000
vt 0.781250 0.625000
vt 0.812500 0.562500
vt 0.781250 0.562500
vt 0.593750 0.156250
vt 0.620000 0.156250
vt 0.620000 0.187500
vt 0.593750 0.187500
vt 0.656250 0.593750
vt 0.687500 0.593750
vt 0.687500 0.625000
vt 0.656250 0.625000
vt 0.838750 0.556024
vt 0.843750 0.562500
vt 0.718750 0.531250
vt 0.750000 0.531250
vt 0.750000 0.562500
vt 0.718750 0.562500
vt 0.687500 0.656250
vt 0.687500 0.687500
vt 0.718750 0.656250
vt 0.750000 0.656250
vt 0.750000 0.687500
vt 0.718750 0.687500
vt 0.812500 0.718750
vt 0.812500 0.745000
vt 0.781250 0.656250
vt 0.812500 0.656250
vt 0.812500 0.687500
vt 0.781250 0.687500
vt 0.562500 0.218750
vt 0.593750 0.218750
vt 0.593750 0.245000
vt 0.562500 0.245000
vt 0.593750 0.906250
vt 0.620000 0.906250
vt 0.620000 0.937500
vt 0.593750 0.937500
vt 0.281250 0.656250
vt 0.312500 0.656250
vt 0.312500 0.687500
vt 0.281250 0.687500
vt 0.630000 0.553028
vt 0.661250 0.553028
vt 0.656250 0.562500
vt 0.630000 0.562500
vt 0.562500 0.968750
vt 0.593750 0.968750
vt 0.593750 0.995000
vt 0.562500 0.995000
vt 0.531250 0.906250
vt 0.562500 0.906250
vt 0.562500 0.937500
vt 0.531250 0.937500
vt 0.562500 0.755000
vt 0.531250 0.656250
vt 0.562500 0.656250
vt 0.562500 0.687500
vt 0.531250 0.687500
vt 0.437500 0.718750
vt 0.468750 0.718750
vt 0.468750 0.745000
vt 0.437500 0.745000
vt 0.562500 0.505000
vt 0.531250 0.406250
vt 0.562500 0.406250
vt 0.562500 0.437500
vt 0.531250 0.437500
vt 0.437500 0.468750
vt 0.468750 0.468750
vt 0.468750 0.495000
vt 0.437500 0.495000
vt 0.562500 0.255000
vt 0.531250 0.156250
vt 0.562500 0.156250
vt 0.562500 0.187500
vt 0.531250 0.187500
vt 0.437500 0.218750
vt 0.468750 0.218750
vt 0.468750 0.245000
vt 0.437500 0.245000
vt 0.843750 0.593750
vt 0.870000 0.593750
vt 0.870000 0.625000
vt 0.843750 0.625000
vt 0.500000 0.218750
vt 0.500000 0.245000
vt 0.531250 0.218750
vt 0.593750 0.406250
vt 0.593750 0.437500
vt 0.593750 0.375000
vt 0.718750 0.505000
vt 0.750000 0.505000
vt 0.500000 0.468750
vt 0.500000 0.495000
vt 0.531250 0.468750
vt 0.562500 0.468750
vt 0.593750 0.656250
vt 0.593750 0.687500
vt 0.593750 0.625000
vt 0.593750 0.593750
vt 0.620000 0.593750
vt 0.620000 0.625000
vt 0.500000 0.718750
vt 0.500000 0.745000
vt 0.531250 0.718750
vt 0.593750 0.875000
vt 0.380000 0.062500
vt 0.380000 0.093750
vt 0.500000 0.005000
vt 0.531250 0.005000
vt 0.343750 0.687500
vt 0.630000 0.593750
vt 0.630000 0.625000
vt 0.593750 0.843750
vt 0.620000 0.843750
vt 0.620000 0.875000
vt 0.312500 0.718750
vt 0.630000 0.718750
vt 0.620000 0.656250
vt 0.620000 0.718750
vt 0.620000 0.745000
vt 0.620000 0.687500
vt 0.687500 0.531250
vt 0.687500 0.562500
vt 0.620000 0.437500
vt 0.620000 0.473750
vt 0.593750 0.468750
vt 0.593750 0.343750
vt 0.620000 0.343750
vt 0.620000 0.375000
vt 0.156250 0.723750
vt 0.156250 0.745000
vt 0.156250 0.745000
vt 0.620000 0.406250
vt 0.593750 0.562500
vt 0.620000 0.562500
vt 0.187500 0.718750
vt 0.161250 0.713750
vt 0.593750 0.312500
vt 0.620000 0.312500
vt 0.620000 0.473750
vt 0.625000 0.495000
vt 0.593750 0.495000
vt 0.562500 0.495000
vt 0.562500 0.005000
vt 0.468750 0.005000
vt 0.843750 0.528406
vt 0.843750 0.502844
vt 0.843750 0.505000
vt 0.843750 0.526249
vt 0.380000 0.026250
vt 0.161250 0.536250
vt 0.187500 0.531250
vt 0.187500 0.562500
vt 0.156250 0.562500
vt 0.687500 0.505000
vt 0.250000 0.505000
vt 0.281250 0.505000
vt 0.406250 0.005000
vt 0.437500 0.005000
vt 0.870000 0.531250
vt 0.848750 0.531250
vt 0.848750 0.531250
vt 0.870000 0.531250
vt 0.187500 0.505000
vt 0.218750 0.505000
vt 0.130000 0.625000
vt 0.130000 0.656250
vt 0.380000 0.156250
vt 0.380000 0.187500
vt 0.338750 0.713750
vt 0.838750 0.503324
vt 0.838750 0.537246
vt 0.656250 0.502844
vt 0.656250 0.528406
vt 0.656250 0.526249
vt 0.656250 0.505000
vt 0.312500 0.505000
vt 0.338750 0.505000
vt 0.338750 0.536250
vt 0.161250 0.713750
vt 0.187500 0.745000
vt 0.161250 0.745000
vt 0.380000 0.843750
vt 0.380000 0.875000
vt 0.375000 0.973750
vt 0.375000 0.995000
vt 0.375000 0.995000
vt 0.375000 0.973750
vt 0.218750 0.718750
vt 0.218750 0.745000
vt 0.406250 0.968750
vt 0.380000 0.812500
vt 0.380000 0.906250
vt 0.312500 0.745000
vt 0.375000 0.755000
vt 0.375000 0.776250
vt 0.375000 0.776250
vt 0.338750 0.713750
vt 0.338750 0.745000
vt 0.593750 0.812500
vt 0.380000 0.937500
vt 0.380000 0.973750
vt 0.380000 0.473750
vt 0.406250 0.468750
vt 0.406250 0.495000
vt 0.375000 0.495000
vt 0.531250 0.745000
vt 0.370000 0.687500
vt 0.380000 0.593750
vt 0.380000 0.625000
vt 0.375000 0.723750
vt 0.375000 0.745000
vt 0.375000 0.745000
vt 0.380000 0.656250
vt 0.380000 0.687500
vt 0.406250 0.718750
vt 0.370000 0.562500
vt 0.370000 0.593750
vt 0.343750 0.593750
vt 0.338750 0.536250
vt 0.370000 0.536250
vt 0.375000 0.505000
vt 0.375000 0.526250
vt 0.375000 0.526250
vt 0.380000 0.526250
vt 0.380000 0.562500
vt 0.370000 0.713750
vt 0.338750 0.713750
vt 0.625000 0.528469
vt 0.625000 0.505000
vt 0.625000 0.526249
vt 0.531250 0.495000
vt 0.380000 0.343750
vt 0.380000 0.375000
vt 0.375000 0.473750
vt 0.375000 0.495000
vt 0.375000 0.473750
vt 0.380000 0.406250
vt 0.380000 0.437500
vt 0.380000 0.312500
vt 0.161250 0.505000
vt 0.161250 0.536250
vt 0.375000 0.255000
vt 0.375000 0.276250
vt 0.375000 0.276250
vt 0.380000 0.276250
vt 0.380000 0.473750
vt 0.625000 0.276250
vt 0.531250 0.245000
vt 0.130000 0.536250
vt 0.130000 0.562500
vt 0.380000 0.125000
vt 0.375000 0.223750
vt 0.375000 0.245000
vt 0.375000 0.223750
vt 0.130000 0.593750
vt 0.130000 0.687500
vt 0.380000 0.973750
vt 0.406250 0.995000
vt 0.130000 0.713750
vt 0.593750 0.031250
vt 0.593750 0.062500
vt 0.870000 0.562500
vt 0.620000 0.968750
vt 0.620000 0.995000
vt 0.620000 0.031250
vt 0.620000 0.062500
vt 0.620000 0.276250
vt 0.620000 0.529256
vt 0.406250 0.745000
vt 0.620000 0.812500
vt 0.620000 0.220744
vt 0.380000 0.776250
vt 0.625000 0.245000
vt 0.625000 0.223751
vt 0.625000 0.223751
vt 0.380000 0.723750
vt 0.593750 0.005000
vt 0.380000 0.223750
vt 0.661250 0.503324
vt 0.661250 0.537246
vt 0.838750 0.553028
vt 0.870000 0.553028
vt 0.848750 0.505000
vt 0.870000 0.505000
vt 0.870000 0.526250
vt 0.848750 0.526250
vt 0.156250 0.505000
vt 0.156250 0.526250
vt 0.156250 0.526250
vt 0.156250 0.505000
vt 0.348750 0.718750
vt 0.370000 0.718750
vt 0.370000 0.718750
vt 0.620000 0.219380
vt 0.625000 0.247176
vt 0.370000 0.531250
vt 0.348750 0.531250
vt 0.348750 0.531250
vt 0.370000 0.531250
vt 0.130000 0.723750
vt 0.151250 0.723750
vt 0.151250 0.745000
vt 0.130000 0.745000
vt 0.630000 0.505000
vt 0.651250 0.505000
vt 0.651250 0.526250
vt 0.630000 0.526250
vt 0.843750 0.526249
vt 0.656250 0.526249
vt 0.651250 0.531250
vt 0.630000 0.531250
vt 0.630000 0.531250
vt 0.625000 0.526249
vt 0.625000 0.473750
vt 0.130000 0.505000
vt 0.151250 0.505000
vt 0.151250 0.526250
vt 0.130000 0.526250
vt 0.348750 0.505000
vt 0.370000 0.505000
vt 0.370000 0.526250
vt 0.348750 0.526250
vt 0.348750 0.723750
vt 0.370000 0.723750
vt 0.370000 0.745000
vt 0.348750 0.745000
vt 0.375000 0.005000
vt 0.151250 0.531250
vt 0.130000 0.531250
vt 0.130000 0.531250
vt 0.151250 0.531250
vt 0.343750 0.745000
vt 0.343750 0.723750
vt 0.343750 0.723750
vt 0.343750 0.745000
vt 0.630000 0.745000
vt 0.620000 0.005000
vt 0.651250 0.531250
vt 0.630000 0.531250
vt 0.625000 0.221531
vt 0.661250 0.556024
vt 0.620000 0.000000
vt 0.625000 0.005000
vt 0.625000 0.755000
vt 0.620000 0.750000
vt 0.375000 0.031250
vt 0.375000 0.026250
vt 0.625000 0.196972
vt 0.625000 0.218750
vt 0.619500 0.218750
vt 0.375000 0.281250
vt 0.625000 0.463750
vt 0.625000 0.468750
vt 0.620000 0.468750
vt 0.343750 0.745000
vt 0.343750 0.750000
vt 0.375000 0.218750
vt 0.343750 0.500000
vt 0.343750 0.505000
vt 0.620000 0.281250
vt 0.625000 0.281250
vt 0.625000 0.286250
vt 0.375000 0.968750
vt 0.625000 0.223750
vt 0.625000 0.250000
vt 0.656250 0.500000
vt 0.625000 0.500000
vt 0.625000 0.281250
vt 0.125000 0.723750
vt 0.130000 0.718750
vt 0.125000 0.745000
vt 0.130000 0.750000
vt 0.151250 0.500000
vt 0.156250 0.505000
vt 0.130000 0.500000
vt 0.125000 0.505000
vt 0.370000 0.500000
vt 0.348750 0.750000
vt 0.370000 0.750000
vt 0.125000 0.526250
vt 0.130000 0.531250
vt 0.348750 0.500000
vt 0.151250 0.750000
vt 0.593750 0.000000
vt 0.625000 0.968750
vt 0.625000 0.995000
vt 0.125000 0.625000
vt 0.125000 0.593750
vt 0.468750 0.000000
vt 0.500000 0.000000
vt 0.625000 0.093750
vt 0.625000 0.125000
vt 0.250000 0.500000
vt 0.281250 0.500000
vt 0.625000 0.343750
vt 0.625000 0.375000
vt 0.250000 0.750000
vt 0.218750 0.750000
vt 0.625000 0.843750
vt 0.625000 0.875000
vt 0.125000 0.687500
vt 0.125000 0.656250
vt 0.531250 0.000000
vt 0.562500 0.000000
vt 0.625000 0.156250
vt 0.625000 0.187500
vt 0.187500 0.500000
vt 0.218750 0.500000
vt 0.625000 0.406250
vt 0.625000 0.437500
vt 0.312500 0.750000
vt 0.281250 0.750000
vt 0.625000 0.906250
vt 0.625000 0.937500
vt 0.125000 0.562500
vt 0.125000 0.531250
vt 0.406250 0.000000
vt 0.437500 0.000000
vt 0.625000 0.031250
vt 0.625000 0.062500
vt 0.312500 0.500000
vt 0.625000 0.312500
vt 0.187500 0.750000
vt 0.156250 0.750000
vt 0.625000 0.781250
vt 0.625000 0.812500
vt 0.125000 0.718750
vt 0.156250 0.500000
vt 0.375000 0.000000
vt 0.375000 0.026250
vt 0.375000 0.000000
vt 0.375000 0.005000
vt 0.343750 0.750000
vt 0.375000 0.968750
s 0
f 537/13/27 369/14/27 541/15/27 326/16/27
f 545/17/28 378/18/28 549/19/28 317/20/28
f 553/21/29 373/22/29 557/23/29 308/24/29
f 356/25/30 535/26/30 365/27/30 480/28/30
f 571/29/31 539/30/31 646/31/31 659/32/31
f 529/33/31 331/34/31 459/35/31 367/36/31
f 127/37/30 288/38/30 528/39/30 401/40/30
f 354/41/30 128/42/30 73/43/30 153/44/30
f 338/45/31 485/46/31 384/47/31 174/48/31
f 131/49/32 285/50/32 526/51/32 399/52/32
f 351/53/32 132/54/32 74/55/32 157/56/32
f 158/57/32 393/58/32 496/59/32 283/60/32
f 135/61/29 282/62/29 508/63/29 381/64/29
f 348/65/29 136/66/29 75/67/29 161/68/29
f 355/69/30 127/37/30 401/40/30 504/70/30
f 524/71/29 397/72/29 160/73/29 305/74/29
f 345/75/28 140/76/28 76/77/28 165/78/28
f 397/72/29 500/79/29 309/80/29 160/73/29
f 518/81/28 391/82/28 164/83/28 314/84/28
f 342/85/27 144/86/27 77/87/27 169/88/27
f 391/82/28 494/89/28 318/90/28 164/83/28
f 512/91/27 385/92/27 168/93/27 323/94/27
f 339/95/31 148/96/31 78/97/31 173/98/31
f 385/92/27 488/99/27 327/100/27 168/93/27
f 337/101/31 175/102/31 102/103/31 150/104/31
f 336/105/31 176/106/31 103/107/31 177/108/31
f 286/109/30 486/110/30 431/111/30 250/112/30
f 334/113/31 179/114/31 101/115/31 149/116/31
f 333/117/31 180/118/31 104/119/31 181/120/31
f 332/121/31 172/122/31 100/123/31 182/124/31
f 460/125/27 409/126/27 192/127/27 324/128/27
f 330/129/31 184/130/31 105/131/31 185/132/31
f 329/133/31 171/134/31 99/135/31 186/136/31
f 328/137/27 187/138/27 98/139/27 146/140/27
f 327/100/27 188/141/27 106/142/27 189/143/27
f 492/144/30 437/145/30 236/146/30 294/147/30
f 325/148/27 191/149/27 97/150/27 145/151/27
f 324/128/27 192/127/27 107/152/27 193/153/27
f 323/94/27 168/93/27 96/154/27 194/155/27
f 468/156/28 415/157/28 204/158/28 315/159/28
f 321/160/27 196/161/27 108/162/27 197/163/27
f 320/164/27 167/165/27 95/166/27 198/167/27
f 319/168/28 199/169/28 94/170/28 142/171/28
f 318/90/28 200/172/28 109/173/28 201/174/28
f 259/175/28 358/176/28 552/177/28 446/178/28
f 316/179/28 203/180/28 93/181/28 141/182/28
f 315/159/28 204/158/28 110/183/28 205/184/28
f 314/84/28 164/83/28 92/185/28 206/186/28
f 475/187/29 421/188/29 216/189/29 306/190/29
f 312/191/28 208/192/28 111/193/28 209/194/28
f 311/195/28 163/196/28 91/197/28 210/198/28
f 310/199/29 211/200/29 90/201/29 138/202/29
f 309/80/29 212/203/29 112/204/29 213/205/29
f 452/206/27 566/207/27 655/208/27 618/206/27
f 307/209/29 215/210/29 89/211/29 137/212/29
f 306/190/29 216/189/29 113/213/29 217/214/29
f 305/74/29 160/73/29 88/215/29 218/216/29
f 219/217/29 349/218/29 484/219/29 429/220/29
f 303/221/29 220/222/29 114/223/29 221/224/29
f 302/225/29 159/226/29 87/227/29 222/228/29
f 301/229/32 223/230/32 86/231/32 134/232/32
f 300/233/32 224/234/32 115/235/32 225/236/32
f 522/237/30 290/238/30 245/239/30 419/240/30
f 299/241/32 227/242/32 85/243/32 133/244/32
f 224/234/32 573/245/32 226/246/32 115/235/32
f 298/247/32 156/248/32 84/249/32 230/250/32
f 291/251/30 243/252/30 449/253/30 558/254/30
f 297/255/32 232/256/32 117/257/32 233/258/32
f 296/259/32 155/260/32 83/261/32 234/262/32
f 295/263/30 235/264/30 82/265/30 130/266/30
f 294/147/30 236/146/30 118/267/30 237/268/30
f 271/269/31 509/270/31 408/271/31 270/272/31
f 293/273/30 239/274/30 81/275/30 129/276/30
f 236/146/30 564/277/30 238/278/30 118/267/30
f 292/279/30 152/280/30 80/281/30 242/282/30
f 243/252/30 355/69/30 504/70/30 449/253/30
f 290/238/30 244/283/30 120/284/30 245/239/30
f 289/285/30 151/286/30 79/287/30 246/288/30
f 247/289/30 356/25/30 480/28/30 425/290/30
f 287/291/30 248/292/30 121/293/30 249/294/30
f 267/295/31 360/296/31 536/297/31 434/298/31
f 280/299/29 527/300/29 426/301/29 258/302/29
f 284/303/32 252/304/32 122/305/32 253/306/32
f 551/307/30 560/308/30 241/309/30 443/310/30
f 255/311/29 357/312/29 455/313/29 405/314/29
f 281/315/29 256/316/29 123/317/29 257/318/29
f 288/38/30 247/289/30 425/290/30 528/39/30
f 500/79/29 445/319/29 212/203/29 309/80/29
f 278/320/28 260/321/28 124/322/28 261/323/28
f 207/324/28 346/325/28 523/326/28 422/327/28
f 494/89/28 439/328/28 200/172/28 318/90/28
f 275/329/27 264/330/27 125/331/27 265/332/27
f 195/333/27 343/334/27 517/335/27 416/336/27
f 488/99/27 433/337/27 188/141/27 327/100/27
f 272/338/31 268/339/31 126/340/31 269/341/31
f 183/342/31 340/343/31 511/344/31 410/345/31
f 268/339/31 271/269/31 270/272/31 126/340/31
f 102/103/31 174/48/31 271/269/31 268/339/31
f 353/346/30 510/347/30 383/348/30 154/349/30
f 171/134/31 272/338/31 269/341/31 99/135/31
f 78/97/31 150/104/31 272/338/31 171/134/31
f 150/104/31 102/103/31 268/339/31 272/338/31
f 340/343/31 147/350/31 386/351/31 511/344/31
f 99/135/31 269/341/31 273/352/31 147/350/31
f 269/341/31 126/340/31 267/295/31 273/352/31
f 264/330/27 274/353/27 266/354/27 125/331/27
f 98/139/27 170/355/27 274/353/27 264/330/27
f 516/356/30 389/357/30 152/280/30 292/279/30
f 167/165/27 275/329/27 265/332/27 95/166/27
f 77/87/27 146/140/27 275/329/27 167/165/27
f 146/140/27 98/139/27 264/330/27 275/329/27
f 343/334/27 143/358/27 392/359/27 517/335/27
f 95/166/27 265/332/27 276/360/27 143/358/27
f 265/332/27 125/331/27 263/361/27 276/360/27
f 260/321/28 277/362/28 262/363/28 124/322/28
f 94/170/28 166/364/28 277/362/28 260/321/28
f 344/365/28 497/366/28 396/367/28 166/364/28
f 163/196/28 278/320/28 261/323/28 91/197/28
f 76/77/28 142/171/28 278/320/28 163/196/28
f 142/171/28 94/170/28 260/321/28 278/320/28
f 346/325/28 139/368/28 398/369/28 523/326/28
f 91/197/28 261/323/28 279/370/28 139/368/28
f 261/323/28 124/322/28 259/175/28 279/370/28
f 256/316/29 280/299/29 258/302/29 123/317/29
f 90/201/29 162/371/29 280/299/29 256/316/29
f 404/372/31 181/120/31 334/113/31 505/373/31
f 159/226/29 281/315/29 257/318/29 87/227/29
f 75/67/29 138/202/29 281/315/29 159/226/29
f 138/202/29 90/201/29 256/316/29 281/315/29
f 382/374/31 507/375/31 336/105/31 172/122/31
f 87/227/29 257/318/29 282/62/29 135/61/29
f 257/318/29 123/317/29 255/311/29 282/62/29
f 252/304/32 283/60/32 254/376/32 122/305/32
f 86/231/32 158/57/32 283/60/32 252/304/32
f 498/377/30 293/273/30 129/276/30 395/378/30
f 155/260/32 284/303/32 253/306/32 83/261/32
f 74/55/32 134/232/32 284/303/32 155/260/32
f 134/232/32 86/231/32 252/304/32 284/303/32
f 347/379/29 503/380/29 402/381/29 162/371/29
f 83/261/32 253/306/32 285/50/32 131/49/32
f 253/306/32 122/305/32 251/382/32 285/50/32
f 248/292/30 286/109/30 250/112/30 121/293/30
f 82/265/30 154/349/30 286/109/30 248/292/30
f 174/48/31 384/47/31 509/270/31 271/269/31
f 151/286/30 287/291/30 249/294/30 79/287/30
f 73/43/30 130/266/30 287/291/30 151/286/30
f 130/266/30 82/265/30 248/292/30 287/291/30
f 162/371/29 402/381/29 527/300/29 280/299/29
f 79/287/30 249/294/30 288/38/30 127/37/30
f 249/294/30 121/293/30 247/289/30 288/38/30
f 244/283/30 289/285/30 246/288/30 120/284/30
f 81/275/30 153/44/30 289/285/30 244/283/30
f 153/44/30 73/43/30 151/286/30 289/285/30
f 419/240/30 245/239/30 291/251/30 473/383/30
f 166/364/28 396/367/28 521/384/28 277/362/28
f 129/276/30 81/275/30 244/283/30 290/238/30
f 358/176/28 472/385/28 374/386/28 552/177/28
f 262/363/28 420/387/28 472/385/28 358/176/28
f 245/239/30 120/284/30 243/252/30 291/251/30
f 240/388/30 292/279/30 242/282/30 119/389/30
f 266/354/27 414/390/27 466/391/27 359/392/27
f 341/393/27 491/394/27 390/395/27 170/355/27
f 443/310/30 241/309/30 293/273/30 498/377/30
f 565/396/28 555/397/28 652/398/28 653/396/28
f 274/353/27 515/399/27 414/390/27 266/354/27
f 395/378/30 129/276/30 290/238/30 522/237/30
f 202/400/28 444/401/28 497/366/28 344/365/28
f 241/309/30 119/389/30 239/274/30 293/273/30
f 233/258/32 117/257/32 231/402/32 567/403/32
f 190/404/27 438/405/27 491/394/27 341/393/27
f 359/392/27 466/406/27 377/407/27 544/408/27
f 152/280/30 294/147/30 237/268/30 80/281/30
f 170/355/27 390/395/27 515/399/27 274/353/27
f 263/361/27 359/392/27 544/408/27 440/409/27
f 128/42/30 295/263/30 130/266/30 73/43/30
f 80/281/30 237/268/30 295/263/30 128/42/30
f 237/268/30 118/267/30 235/264/30 295/263/30
f 232/256/32 296/259/32 234/262/32 117/257/32
f 85/243/32 157/56/32 296/259/32 232/256/32
f 157/56/32 74/55/32 155/260/32 296/259/32
f 507/375/31 406/410/31 176/106/31 336/105/31
f 483/411/31 382/374/31 172/122/31 332/121/31
f 133/244/32 85/243/32 232/256/32 297/255/32
f 562/412/28 542/413/28 586/414/28 591/415/28
f 453/416/31 333/117/31 181/120/31 404/372/31
f 569/417/32 228/418/32 116/419/32 229/420/32
f 228/418/32 298/247/32 230/250/32 116/419/32
f 413/421/30 516/356/30 292/279/30 240/388/30
f 387/422/32 490/423/32 300/233/32 156/248/32
f 532/424/31 430/425/31 180/118/31 333/117/31
f 457/426/33 563/427/33 592/428/33 577/429/33
f 411/430/32 514/431/32 298/247/32 228/418/32
f 379/432/32 133/244/32 297/255/32 506/433/32
f 481/434/31 330/129/31 185/132/31 428/435/31
f 229/420/32 116/419/32 227/242/32 299/241/32
f 122/305/32 254/376/32 575/436/32 251/382/32
f 437/145/30 543/437/30 564/438/30 236/146/30
f 465/439/31 559/440/31 590/441/31 581/442/31
f 156/248/32 300/233/32 225/236/32 84/249/32
f 389/357/30 492/144/30 294/147/30 152/280/30
f 435/443/32 540/444/32 573/445/32 224/234/32
f 132/54/32 301/229/32 134/232/32 74/55/32
f 84/249/32 225/236/32 301/229/32 132/54/32
f 225/236/32 115/235/32 223/230/32 301/229/32
f 220/222/29 302/225/29 222/228/29 114/223/29
f 89/211/29 161/68/29 302/225/29 220/222/29
f 161/68/29 75/67/29 159/226/29 302/225/29
f 567/446/32 231/402/32 447/447/32 556/448/32
f 525/449/29 307/209/29 137/212/29 400/450/29
f 137/212/29 89/211/29 220/222/29 303/221/29
f 554/451/29 362/452/29 622/453/29 650/454/29
f 231/402/32 352/455/32 502/456/32 447/447/32
f 221/224/29 114/223/29 219/217/29 304/457/29
f 216/189/29 305/74/29 218/216/29 113/213/29
f 424/458/29 217/214/29 307/209/29 525/449/29
f 400/450/29 137/212/29 303/221/29 501/459/29
f 285/50/32 251/382/32 423/460/32 526/51/32
f 370/461/29 478/462/29 635/463/29 638/461/29
f 421/188/29 524/71/29 305/74/29 216/189/29
f 352/455/32 131/49/32 399/52/32 502/456/32
f 251/382/32 575/464/32 476/465/32 423/460/32
f 217/214/29 113/213/29 215/210/29 307/209/29
f 212/203/29 308/24/29 214/466/29 112/204/29
f 448/467/29 221/224/29 304/457/29 554/468/29
f 538/469/27 322/470/27 467/471/27 376/472/27
f 160/73/29 309/80/29 213/205/29 88/215/29
f 139/368/28 279/370/28 499/473/28 398/369/28
f 445/319/29 553/21/29 308/24/29 212/203/29
f 136/66/29 310/199/29 138/202/29 75/67/29
f 88/215/29 213/205/29 310/199/29 136/66/29
f 213/205/29 112/204/29 211/200/29 310/199/29
f 208/192/28 311/195/28 210/198/28 111/193/28
f 93/181/28 165/78/28 311/195/28 208/192/28
f 165/78/28 76/77/28 163/196/28 311/195/28
f 283/60/32 496/59/32 441/474/32 254/376/32
f 519/475/28 316/179/28 141/182/28 394/476/28
f 141/182/28 93/181/28 208/192/28 312/191/28
f 547/477/28 371/478/28 640/479/28 647/477/28
f 495/480/28 312/191/28 209/194/28 442/481/28
f 209/194/28 111/193/28 207/324/28 313/482/28
f 204/158/28 314/84/28 206/186/28 110/183/28
f 226/246/32 417/483/32 520/484/32 350/485/32
f 394/476/28 141/182/28 312/191/28 495/480/28
f 573/486/32 469/487/32 417/483/32 226/246/32
f 375/488/28 471/489/28 629/490/28 632/488/28
f 415/157/28 518/81/28 314/84/28 204/158/28
f 350/485/32 520/484/32 393/58/32 158/57/32
f 471/491/28 315/159/28 205/184/28 418/492/28
f 205/184/28 110/183/28 203/180/28 316/179/28
f 200/172/28 317/20/28 202/400/28 109/173/28
f 254/376/32 441/474/32 546/493/32 575/494/32
f 549/495/28 378/18/28 584/496/28 587/497/28
f 164/83/28 318/90/28 201/174/28 92/185/28
f 143/358/27 276/360/27 493/498/27 392/359/27
f 439/328/28 545/17/28 317/20/28 200/172/28
f 140/76/28 319/168/28 142/171/28 76/77/28
f 92/185/28 201/174/28 319/168/28 140/76/28
f 201/174/28 109/173/28 199/169/28 319/168/28
f 196/161/27 320/164/27 198/167/27 108/162/27
f 97/150/27 169/88/27 320/164/27 196/161/27
f 169/88/27 77/87/27 167/165/27 320/164/27
f 490/423/32 435/443/32 224/234/32 300/233/32
f 513/499/27 325/148/27 145/151/27 388/500/27
f 145/151/27 97/150/27 196/161/27 321/160/27
f 538/501/27 376/472/27 634/502/27 644/503/27
f 489/504/27 321/160/27 197/163/27 436/505/27
f 197/163/27 108/162/27 195/333/27 322/470/27
f 192/127/27 323/94/27 194/155/27 107/152/27
f 412/506/27 193/153/27 325/148/27 513/499/27
f 388/500/27 145/151/27 321/160/27 489/504/27
f 461/507/32 411/430/32 228/418/32 569/508/32
f 366/509/27 463/510/27 623/511/27 626/509/27
f 409/126/27 512/91/27 323/94/27 192/127/27
f 514/431/32 387/422/32 156/248/32 298/247/32
f 463/512/27 324/128/27 193/153/27 412/506/27
f 193/153/27 107/152/27 191/149/27 325/148/27
f 188/141/27 326/16/27 190/404/27 106/142/27
f 436/505/27 197/163/27 322/470/27 538/513/27
f 541/514/27 369/14/27 580/14/27 585/514/27
f 168/93/27 327/100/27 189/143/27 96/154/27
f 147/350/31 273/352/31 487/515/31 386/351/31
f 433/337/27 537/13/27 326/16/27 188/141/27
f 144/86/27 328/137/27 146/140/27 77/87/27
f 96/154/27 189/143/27 328/137/27 144/86/27
f 189/143/27 106/142/27 187/138/27 328/137/27
f 184/130/31 329/133/31 186/136/31 105/131/31
f 101/115/31 173/98/31 329/133/31 184/130/31
f 173/98/31 78/97/31 171/134/31 329/133/31
f 531/516/32 569/508/32 229/420/32 427/517/32
f 505/373/31 334/113/31 149/116/31 380/518/31
f 149/116/31 101/115/31 184/130/31 330/129/31
f 529/519/31 367/36/31 628/520/31 641/521/31
f 427/517/32 229/420/32 299/241/32 482/522/32
f 185/132/31 105/131/31 183/342/31 331/34/31
f 180/118/31 332/121/31 182/124/31 104/119/31
f 250/112/30 431/111/30 535/26/30 356/25/30
f 349/218/29 135/61/29 381/64/29 484/219/29
f 506/433/32 297/255/32 233/258/32 403/523/32
f 554/524/29 304/457/29 533/525/29 362/452/29
f 304/457/29 219/217/29 429/220/29 533/525/29
f 482/522/32 299/241/32 133/244/32 379/432/32
f 403/523/32 233/258/32 567/403/32 451/526/32
f 181/120/31 104/119/31 179/114/31 334/113/31
f 176/106/31 335/527/31 178/528/31 103/107/31
f 238/278/30 407/529/30 510/347/30 353/346/30
f 357/312/29 479/530/29 364/531/29 455/313/29
f 172/122/31 336/105/31 177/108/31 100/123/31
f 154/349/30 383/348/30 486/110/30 286/109/30
f 282/62/29 255/311/29 405/314/29 508/63/29
f 148/96/31 337/101/31 150/104/31 78/97/31
f 100/123/31 177/108/31 337/101/31 148/96/31
f 177/108/31 103/107/31 175/102/31 337/101/31
f 175/102/31 338/45/31 174/48/31 102/103/31
f 103/107/31 178/528/31 338/45/31 175/102/31
f 335/527/31 534/532/31 432/533/31 178/528/31
f 179/114/31 339/95/31 173/98/31 101/115/31
f 104/119/31 182/124/31 339/95/31 179/114/31
f 182/124/31 100/123/31 148/96/31 339/95/31
f 331/34/31 183/342/31 410/345/31 459/35/31
f 105/131/31 186/136/31 340/343/31 183/342/31
f 186/136/31 99/135/31 147/350/31 340/343/31
f 187/138/27 341/393/27 170/355/27 98/139/27
f 106/142/27 190/404/27 341/393/27 187/138/27
f 326/16/27 541/534/27 438/405/27 190/404/27
f 191/149/27 342/85/27 169/88/27 97/150/27
f 107/152/27 194/155/27 342/85/27 191/149/27
f 194/155/27 96/154/27 144/86/27 342/85/27
f 322/470/27 195/333/27 416/336/27 467/471/27
f 108/162/27 198/167/27 343/334/27 195/333/27
f 198/167/27 95/166/27 143/358/27 343/334/27
f 199/169/28 344/365/28 166/364/28 94/170/28
f 109/173/28 202/400/28 344/365/28 199/169/28
f 317/20/28 549/535/28 444/401/28 202/400/28
f 203/180/28 345/75/28 165/78/28 93/181/28
f 110/183/28 206/186/28 345/75/28 203/180/28
f 206/186/28 92/185/28 140/76/28 345/75/28
f 313/482/28 207/324/28 422/327/28 474/536/28
f 111/193/28 210/198/28 346/325/28 207/324/28
f 210/198/28 91/197/28 139/368/28 346/325/28
f 211/200/29 347/379/29 162/371/29 90/201/29
f 112/204/29 214/466/29 347/379/29 211/200/29
f 308/24/29 557/23/29 450/537/29 214/466/29
f 215/210/29 348/65/29 161/68/29 89/211/29
f 113/213/29 218/216/29 348/65/29 215/210/29
f 218/216/29 88/215/29 136/66/29 348/65/29
f 430/425/31 483/411/31 332/121/31 180/118/31
f 114/223/29 222/228/29 349/218/29 219/217/29
f 222/228/29 87/227/29 135/61/29 349/218/29
f 223/230/32 350/485/32 158/57/32 86/231/32
f 115/235/32 226/246/32 350/485/32 223/230/32
f 418/492/28 205/184/28 316/179/28 519/475/28
f 227/242/32 351/53/32 157/56/32 85/243/32
f 116/419/32 230/250/32 351/53/32 227/242/32
f 230/250/32 84/249/32 132/54/32 351/53/32
f 501/459/29 303/221/29 221/224/29 448/467/29
f 117/257/32 234/262/32 352/455/32 231/402/32
f 234/262/32 83/261/32 131/49/32 352/455/32
f 235/264/30 353/346/30 154/349/30 82/265/30
f 118/267/30 238/278/30 353/346/30 235/264/30
f 270/272/31 408/271/31 458/538/31 360/296/31
f 239/274/30 354/41/30 153/44/30 81/275/30
f 119/389/30 242/282/30 354/41/30 239/274/30
f 242/282/30 80/281/30 128/42/30 354/41/30
f 214/466/29 450/537/29 503/380/29 347/379/29
f 120/284/30 246/288/30 355/69/30 243/252/30
f 246/288/30 79/287/30 127/37/30 355/69/30
f 258/302/29 426/301/29 479/530/29 357/312/29
f 121/293/30 250/112/30 356/25/30 247/289/30
f 178/528/31 432/533/31 485/46/31 338/45/31
f 478/539/29 306/190/29 217/214/29 424/458/29
f 579/540/31 578/541/31 593/542/31 596/540/31
f 442/481/28 209/194/28 313/482/28 547/543/28
f 406/410/31 454/544/31 335/527/31 176/106/31
f 123/317/29 258/302/29 357/312/29 255/311/29
f 428/435/31 185/132/31 331/34/31 529/545/31
f 279/370/28 259/175/28 446/178/28 499/473/28
f 124/322/28 262/363/28 358/176/28 259/175/28
f 277/362/28 521/384/28 420/387/28 262/363/28
f 276/360/27 263/361/27 440/409/27 493/498/27
f 125/331/27 266/354/27 359/392/27 263/361/27
f 464/546/30 413/421/30 240/388/30 560/547/30
f 273/352/31 267/295/31 434/298/31 487/515/31
f 126/340/31 270/272/31 360/296/31 267/295/31
f 564/548/30 456/549/30 407/529/30 238/278/30
f 606/550/30 597/551/30 595/552/30 615/553/30
f 585/514/27 580/14/27 598/14/27 605/514/27
f 462/554/28 568/555/28 656/556/28 624/557/28
f 576/558/27 548/559/27 649/560/27 663/558/27
f 547/543/28 313/482/28 474/536/28 371/478/28
f 360/296/31 458/561/31 368/562/31 536/297/31
f 470/563/29 572/564/29 661/565/29 630/566/29
f 380/518/31 149/116/31 330/129/31 481/434/31
f 619/567/32 654/568/32 651/569/32 621/570/32
f 603/571/30 601/572/30 613/573/30 609/574/30
f 591/415/28 586/414/28 607/414/28 614/575/28
f 581/442/31 590/441/31 611/576/31 600/442/31
f 589/577/29 588/578/29 610/579/29 612/577/29
f 587/497/28 584/496/28 604/496/28 608/580/28
f 583/407/27 582/581/27 599/581/27 602/407/27
f 577/429/29 592/428/29 616/428/29 594/429/29
f 627/582/32 625/583/32 658/584/32 642/585/32
f 645/586/32 633/587/32 631/588/32 660/589/32
f 664/590/32 648/591/32 639/592/32 637/593/32
f 377/407/27 466/581/27 582/581/27 583/407/27
f 361/594/31 532/424/31 333/117/31 453/416/31
f 370/461/29 475/187/29 306/190/29 478/539/29
f 366/509/27 460/125/27 324/128/27 463/512/27
f 570/595/29 530/596/29 643/597/29 657/598/29
f 477/599/31 574/600/31 662/601/31 636/602/31
f 473/383/30 291/251/30 558/254/30 372/603/30
f 454/544/31 363/604/31 534/532/31 335/527/31
f 561/605/33 550/606/33 588/578/33 589/577/33
f 368/562/31 458/607/31 578/541/31 579/540/31
f 560/608/30 240/388/30 119/389/30 241/309/30
f 375/488/28 468/156/28 315/159/28 471/491/28
f 363/604/34 364/609/34 365/610/34
f 372/611/35 373/22/35 374/612/35
f 451/613/36 452/613/36 453/614/36
f 456/615/37 457/616/37 458/617/37
f 461/618/38 462/618/38 463/510/38
f 464/619/39 465/620/39 466/621/39
f 469/487/40 470/563/40 471/491/40
f 476/622/41 477/599/41 478/623/41
f 529/519/42 530/624/42 531/624/42
f 538/625/43 539/30/43 540/626/43
f 541/627/44 542/628/44 543/629/44
f 546/493/45 547/477/45 548/559/45
f 549/495/46 550/606/46 551/307/46
f 554/451/47 555/630/47 556/630/47
f 559/440/48 560/308/48 561/605/48
f 562/412/49 563/427/49 564/438/49
f 565/396/50 566/207/50 567/446/50
f 568/555/51 569/508/51 570/595/51
f 571/29/52 572/564/52 573/445/52
f 574/600/53 575/494/53 576/558/53
f 593/542/34 594/616/34 595/631/34
f 596/540/54 597/540/54 598/632/54
f 599/633/54 600/442/54 601/442/54
f 602/407/55 603/407/55 604/634/55
f 605/514/55 606/514/55 607/635/55
f 608/580/35 609/574/35 610/579/35
f 611/576/34 612/577/34 613/573/34
f 614/575/35 615/553/35 616/428/35
f 617/636/56 618/637/56 619/567/56
f 620/638/57 621/570/57 622/639/57
f 623/640/58 624/641/58 625/583/58
f 626/642/56 627/582/56 628/643/56
f 629/490/59 630/566/59 631/588/59
f 632/488/58 633/587/58 634/644/58
f 635/645/57 636/622/57 637/593/57
f 638/646/59 639/592/59 640/478/59
f 641/647/57 642/585/57 643/648/57
f 644/649/56 645/586/56 646/626/56
f 647/477/58 648/591/58 649/560/58
f 650/650/59 651/569/59 652/398/59
f 653/396/58 654/568/58 655/208/58
f 656/556/59 657/598/59 658/584/59
f 659/32/57 660/589/57 661/565/57
f 662/601/56 663/558/56 664/590/56
f 455/651/60 364/609/60 363/604/60 454/544/60
f 460/125/61 366/509/61 367/36/61 459/35/61
f 468/156/62 375/488/62 376/472/62 467/471/62
f 473/383/63 372/603/63 374/386/63 472/385/63
f 475/187/64 370/461/64 371/478/64 474/536/64
f 480/652/65 365/653/65 364/531/65 479/530/65
f 482/522/66 379/432/66 380/654/66 481/655/66
f 484/656/60 381/657/60 382/374/60 483/411/60
f 486/658/67 383/659/67 384/47/67 485/46/67
f 488/99/61 385/92/61 386/351/61 487/515/61
f 490/423/68 387/422/68 388/660/68 489/661/68
f 492/662/69 389/663/69 390/395/69 491/394/69
f 494/89/62 391/82/62 392/359/62 493/498/62
f 496/59/70 393/58/70 394/476/70 495/480/70
f 498/377/63 395/378/63 396/367/63 497/366/63
f 500/79/64 397/72/64 398/369/64 499/473/64
f 502/456/71 399/52/71 400/664/71 501/665/71
f 504/666/65 401/667/65 402/381/65 503/380/65
f 506/433/66 403/523/66 404/668/66 505/669/66
f 508/670/60 405/671/60 406/410/60 507/375/60
f 510/672/67 407/673/67 408/271/67 509/270/67
f 512/91/61 409/126/61 410/345/61 511/344/61
f 514/431/68 411/430/68 412/674/68 513/675/68
f 516/676/69 413/677/69 414/390/69 515/399/69
f 518/81/62 415/157/62 416/336/62 517/335/62
f 520/484/70 417/483/70 418/492/70 519/475/70
f 522/237/63 419/240/63 420/387/63 521/384/63
f 524/71/64 421/188/64 422/327/64 523/326/64
f 526/51/71 423/460/71 424/678/71 525/679/71
f 528/680/65 425/681/65 426/301/65 527/300/65
f 531/516/66 427/517/66 428/682/66 529/683/66
f 533/684/60 429/685/60 430/425/60 532/424/60
f 535/686/67 431/687/67 432/533/67 534/532/67
f 537/13/61 433/337/61 434/298/61 536/297/61
f 540/444/68 435/443/68 436/688/68 538/625/68
f 543/629/69 437/689/69 438/405/69 541/534/69
f 545/17/62 439/328/62 440/409/62 544/408/62
f 546/493/70 441/474/70 442/481/70 547/543/70
f 551/307/63 443/310/63 444/401/63 549/535/63
f 553/21/64 445/319/64 446/178/64 552/177/64
f 556/448/71 447/447/71 448/690/71 554/691/71
f 558/692/65 449/693/65 450/537/65 557/23/65
f 403/523/66 451/526/66 453/694/66 404/668/66
f 405/671/60 455/651/60 454/544/60 406/410/60
f 407/673/67 456/615/67 458/538/67 408/271/67
f 409/126/61 460/125/61 459/35/61 410/345/61
f 411/430/68 461/507/68 463/695/68 412/674/68
f 413/677/69 464/619/69 466/391/69 414/390/69
f 415/157/62 468/156/62 467/471/62 416/336/62
f 417/483/70 469/487/70 471/491/70 418/492/70
f 419/240/63 473/383/63 472/385/63 420/387/63
f 421/188/64 475/187/64 474/536/64 422/327/64
f 423/460/71 476/465/71 478/623/71 424/678/71
f 425/681/65 480/652/65 479/530/65 426/301/65
f 427/517/66 482/522/66 481/655/66 428/682/66
f 429/685/60 484/656/60 483/411/60 430/425/60
f 431/687/67 486/658/67 485/46/67 432/533/67
f 433/337/61 488/99/61 487/515/61 434/298/61
f 435/443/68 490/423/68 489/661/68 436/688/68
f 437/689/69 492/662/69 491/394/69 438/405/69
f 439/328/62 494/89/62 493/498/62 440/409/62
f 441/474/70 496/59/70 495/480/70 442/481/70
f 443/310/63 498/377/63 497/366/63 444/401/63
f 445/319/64 500/79/64 499/473/64 446/178/64
f 447/447/71 502/456/71 501/665/71 448/690/71
f 449/693/65 504/666/65 503/380/65 450/537/65
f 379/432/66 506/433/66 505/669/66 380/654/66
f 381/657/60 508/670/60 507/375/60 382/374/60
f 383/659/67 510/672/67 509/270/67 384/47/67
f 385/92/61 512/91/61 511/344/61 386/351/61
f 387/422/68 514/431/68 513/675/68 388/660/68
f 389/663/69 516/676/69 515/399/69 390/395/69
f 391/82/62 518/81/62 517/335/62 392/359/62
f 393/58/70 520/484/70 519/475/70 394/476/70
f 395/378/63 522/237/63 521/384/63 396/367/63
f 397/72/64 524/71/64 523/326/64 398/369/64
f 399/52/71 526/51/71 525/679/71 400/664/71
f 401/667/65 528/680/65 527/300/65 402/381/65
f 362/696/60 533/684/60 532/424/60 361/594/60
f 365/610/67 535/686/67 534/532/67 363/604/67
f 369/14/61 537/13/61 536/297/61 368/562/61
f 378/18/62 545/17/62 544/408/62 377/407/62
f 373/22/64 553/21/64 552/177/64 374/386/64
f 372/611/65 558/692/65 557/23/65 373/22/65
f 464/546/67 560/547/67 559/440/67 465/439/67
f 560/308/72 551/307/72 550/606/72 561/605/72
f 542/413/63 562/412/63 564/438/63 543/437/63
f 456/549/72 564/548/72 563/427/72 457/426/72
f 567/446/70 556/448/70 555/397/70 565/396/70
f 566/207/68 452/206/68 451/526/68 567/403/68
f 461/507/70 569/508/70 568/555/70 462/554/70
f 569/508/71 531/516/71 530/596/71 570/595/71
f 539/30/66 571/29/66 573/445/66 540/444/66
f 469/487/71 573/486/71 572/564/71 470/563/71
f 574/600/66 477/599/66 476/465/66 575/464/66
f 548/559/68 576/558/68 575/494/68 546/493/68
f 465/439/61 581/442/61 582/633/61 466/633/61
f 584/496/62 378/18/62 377/407/62 583/407/62
f 549/495/73 587/497/73 588/578/73 550/606/73
f 590/441/74 559/440/74 561/605/74 589/577/74
f 562/412/73 591/415/73 592/428/73 563/427/73
f 578/541/74 458/607/74 457/616/74 577/616/74
f 541/514/62 585/514/62 586/628/62 542/628/62
f 368/562/61 579/540/61 580/14/61 369/14/61
f 595/631/67 597/540/67 596/540/67 593/542/67
f 601/581/69 603/407/69 602/407/69 599/581/69
f 597/14/69 606/514/69 605/514/69 598/14/69
f 603/571/63 609/574/63 608/580/63 604/496/63
f 600/442/67 611/576/67 613/573/67 601/572/67
f 612/577/65 610/579/65 609/574/65 613/573/65
f 606/550/63 615/553/63 614/575/63 607/414/63
f 594/429/65 616/428/65 615/553/65 595/552/65
f 591/415/75 614/575/75 616/428/75 592/428/75
f 593/542/76 578/541/76 577/616/76 594/616/76
f 587/497/75 608/580/75 610/579/75 588/578/75
f 611/576/76 590/441/76 589/577/76 612/577/76
f 583/407/62 602/407/62 604/496/62 584/496/62
f 581/442/61 600/442/61 599/633/61 582/633/61
f 585/514/62 605/514/62 607/635/62 586/628/62
f 579/540/61 596/540/61 598/14/61 580/14/61
f 619/567/66 621/570/66 620/638/66 617/636/66
f 625/583/68 627/582/68 626/642/68 623/640/68
f 631/588/70 633/587/70 632/488/70 629/490/70
f 637/593/71 639/592/71 638/646/71 635/645/71
f 627/582/66 642/585/66 641/647/66 628/643/66
f 633/587/68 645/586/68 644/649/68 634/644/68
f 639/592/70 648/591/70 647/477/70 640/479/70
f 621/570/71 651/569/71 650/650/71 622/639/71
f 653/396/70 652/398/70 651/569/70 654/568/70
f 654/568/68 619/567/68 618/206/68 655/208/68
f 624/557/70 656/556/70 658/584/70 625/583/70
f 657/598/71 643/597/71 642/585/71 658/584/71
f 645/586/66 660/589/66 659/32/66 646/31/66
f 630/566/71 661/565/71 660/589/71 631/588/71
f 664/590/66 637/593/66 636/602/66 662/601/66
f 648/591/68 664/590/68 663/558/68 649/560/68
f 570/595/64 657/598/64 656/556/64 568/555/64
f 623/511/62 463/510/62 462/618/62 624/618/62
f 565/396/62 653/396/62 655/208/62 566/207/62
f 617/697/61 453/614/61 452/613/61 618/613/61
f 538/625/61 644/625/61 646/31/61 539/30/61
f 661/565/60 572/564/60 571/29/60 659/32/60
f 529/519/60 641/521/60 643/624/60 530/624/60
f 470/563/64 630/566/64 629/490/64 471/489/64
f 634/502/62 376/472/62 375/488/62 632/488/62
f 622/698/60 362/696/60 361/594/60 620/699/60
f 370/461/64 638/461/64 640/479/64 371/478/64
f 649/560/62 548/559/62 547/477/62 647/477/62
f 366/509/61 626/509/61 628/520/61 367/36/61
f 576/558/61 663/558/61 662/601/61 574/600/61
f 635/700/60 478/623/60 477/599/60 636/602/60
f 652/701/64 555/630/64 554/451/64 650/454/64
f 361/594/31 453/614/31 617/697/31 620/699/31
