# Blender 4.3.2
# www.blender.org
mtllib washer.mtl
o Cube
v 0.962584 0.962584 -1.000000
v 0.962584 1.000000 -0.962584
v 1.000000 0.962584 -0.962584
v 0.962584 -1.000000 -0.962584
v 0.962584 -0.962584 -1.000000
v 1.000000 -0.962584 -0.962584
v 1.000000 0.962584 0.962584
v 0.962584 1.000000 0.962584
v 0.962584 0.962584 1.000000
v 1.000000 -0.962584 0.962584
v 0.962584 -0.962584 1.000000
v 0.962584 -1.000000 0.962584
v -0.962584 0.962584 -1.000000
v -1.000000 0.962584 -0.962584
v -0.962584 1.000000 -0.962584
v -1.000000 -0.962584 -0.962584
v -0.962584 -0.962584 -1.000000
v -0.962584 -1.000000 -0.962584
v -1.000000 0.962584 0.962584
v -0.962584 0.962584 1.000000
v -0.962584 1.000000 0.962584
v -0.962584 -1.000000 0.962584
v -0.962584 -0.962584 1.000000
v -1.000000 -0.962584 0.962584
vn -0.0000 -1.0000 -0.0000
vn -1.0000 -0.0000 -0.0000
vn -0.0000 -0.0000 1.0000
vn -0.0000 1.0000 -0.0000
vn 1.0000 -0.0000 -0.0000
vn 0.5774 0.5774 -0.5774
vn 0.5774 -0.5774 -0.5774
vn 0.5774 0.5774 0.5774
vn 0.5774 -0.5774 0.5774
vn -0.5774 0.5774 -0.5774
vn -0.5774 -0.5774 -0.5774
vn -0.5774 0.5774 0.5774
vn -0.5774 -0.5774 0.5774
vn -0.7071 -0.7071 -0.0000
vn -0.0000 -0.7071 -0.7071
vn 0.7071 -0.0000 -0.7071
vn -0.7071 -0.0000 0.7071
vn 0.7071 -0.0000 0.7071
vn -0.7071 -0.0000 -0.7071
vn -0.0000 0.7071 0.7071
vn 0.7071 0.7071 -0.0000
vn -0.0000 -0.7071 0.7071
vn -0.7071 0.7071 -0.0000
vn -0.0000 0.7071 -0.7071
vn 0.7071 -0.7071 -0.0000
vn -0.0000 -0.0000 -1.0000
vt 0.129677 0.504677
vt 0.370323 0.504677
vt 0.370323 0.745323
vt 0.129677 0.745323
vt 0.379677 0.004677
vt 0.620323 0.004677
vt 0.620323 0.245323
vt 0.379677 0.245323
vt 0.379677 0.754677
vt 0.620323 0.754677
vt 0.620323 0.995323
vt 0.379677 0.995323
vt 0.629677 0.504677
vt 0.870323 0.504677
vt 0.870323 0.745323
vt 0.629677 0.745323
vt 0.379677 0.504677
vt 0.620323 0.504677
vt 0.620323 0.745323
vt 0.379677 0.745323
vt 0.620323 0.495323
vt 0.625000 0.495323
vt 0.620323 0.500000
vt 0.375000 0.495323
vt 0.379677 0.495323
vt 0.379677 0.500000
vt 0.620323 0.750000
vt 0.625000 0.754677
vt 0.379677 0.750000
vt 0.375000 0.754677
vt 0.620323 0.250000
vt 0.625000 0.245323
vt 0.379677 0.250000
vt 0.375000 0.245323
vt 0.620323 0.000000
vt 0.625000 0.004677
vt 0.375000 0.004677
vt 0.379677 0.000000
vt 0.375000 0.254677
vt 0.379677 0.254677
vt 0.620323 0.254677
vt 0.625000 0.995323
vt 0.375000 0.995323
vt 0.625000 0.254677
s 0
usemtl Material
f 18/1/1 4/2/1 12/3/1 22/4/1
f 24/5/2 19/6/2 14/7/2 16/8/2
f 11/9/3 9/10/3 20/11/3 23/12/3
f 2/13/4 15/14/4 21/15/4 8/16/4
f 6/17/5 3/18/5 7/19/5 10/20/5
f 1/21/6 2/22/6 3/23/6
f 4/24/7 5/25/7 6/26/7
f 7/27/8 8/28/8 9/10/8
f 10/29/9 11/9/9 12/30/9
f 13/31/10 14/7/10 15/32/10
f 16/8/11 17/33/11 18/34/11
f 19/6/12 20/35/12 21/36/12
f 22/37/13 23/38/13 24/5/13
f 18/34/14 22/37/14 24/5/14 16/8/14
f 4/24/15 18/39/15 17/40/15 5/25/15
f 3/18/16 6/17/16 5/25/16 1/21/16
f 23/38/17 20/35/17 19/6/17 24/5/17
f 9/10/18 11/9/18 10/20/18 7/19/18
f 13/41/19 17/40/19 16/8/19 14/7/19
f 8/28/20 21/42/20 20/11/20 9/10/20
f 2/13/21 8/16/21 7/19/21 3/18/21
f 22/43/22 12/30/22 11/9/22 23/12/22
f 21/36/23 15/32/23 14/7/23 19/6/23
f 15/44/24 2/22/24 1/21/24 13/41/24
f 12/3/25 4/2/25 6/17/25 10/20/25
f 17/40/26 13/41/26 1/21/26 5/25/26
o Cylinder
v 1.264315 0.312508 -0.467702
v 1.264316 0.215259 -0.519682
v 1.264316 0.109738 -0.551692
v 1.264315 0.551692 0.109738
v 1.264315 0.467702 0.312508
v 1.264315 0.519682 0.215259
v 1.264316 -0.109738 0.551692
v 1.264316 -0.312508 0.467702
v 1.264316 -0.215259 0.519682
v 1.264316 -0.467702 -0.312508
v 1.264316 -0.551692 -0.109738
v 1.264316 -0.519682 -0.215259
v 1.264315 0.562500 0.000000
v 1.264315 0.551692 -0.109738
v 1.264315 0.467702 -0.312508
v 1.264315 0.519682 -0.215259
v 1.264315 0.397748 -0.397748
v 1.264315 0.312508 0.467702
v 1.264316 0.000000 -0.562500
v 1.264316 -0.215259 -0.519682
v 1.264316 -0.109738 -0.551692
v 1.264315 0.397748 0.397748
v 1.264316 0.215259 0.519682
v 1.264316 0.109738 0.551692
v 1.264316 0.000000 0.562500
v 1.264316 -0.312508 -0.467702
v 1.264316 -0.467702 0.312508
v 1.264316 -0.397748 -0.397748
v 1.264316 -0.551692 0.109738
v 1.264316 -0.562500 0.000000
v 1.264316 -0.519682 0.215259
v 1.264316 -0.397748 0.397748
v 1.050985 -0.215259 -0.519682
v 1.050985 -0.397748 -0.397748
v 1.050985 -0.312508 -0.467702
v 1.050985 -0.397748 0.397748
v 1.050985 -0.467702 0.312508
v 1.050985 -0.519682 0.215259
v 1.050985 0.397748 0.397748
v 1.050985 0.312508 0.467702
v 1.050985 0.215259 0.519682
v 1.050985 0.519682 -0.215259
v 1.050985 0.397748 -0.397748
v 1.050985 0.467702 -0.312508
v 1.050985 -0.000000 -0.562500
v 1.050985 -0.215259 0.519682
v 1.050985 -0.109738 0.551692
v 1.050985 -0.109738 -0.551692
v 1.050985 -0.519682 -0.215259
v 1.050985 -0.467702 -0.312508
v 1.050985 -0.562500 0.000000
v 1.050985 -0.551692 0.109738
v 1.050985 -0.551692 -0.109738
v 1.050985 -0.312508 0.467702
v 1.050985 0.562500 0.000000
v 1.050985 0.551692 0.109738
v 1.050985 0.551692 -0.109738
v 1.050985 0.467702 0.312508
v 1.050985 0.519682 0.215259
v 1.050985 0.215259 -0.519682
v 1.050985 0.312508 -0.467702
v 1.050985 -0.000000 0.562500
v 1.050985 0.109738 0.551692
v 1.050985 0.109738 -0.551692
v 1.050985 -0.000000 -0.728558
v 1.054020 0.021236 -0.747908
v 1.054020 -0.021236 -0.747908
v 1.261281 0.021236 -0.747908
v 1.264316 0.000000 -0.728558
v 1.261281 -0.021236 -0.747908
v 1.050985 -0.142135 -0.714559
v 1.054020 -0.125081 -0.737681
v 1.054020 -0.166738 -0.729394
v 1.264316 -0.142135 -0.714559
v 1.261281 -0.166738 -0.729394
v 1.261281 -0.125081 -0.737681
v 1.050985 -0.278807 -0.673100
v 1.054020 -0.266592 -0.699104
v 1.054020 -0.305832 -0.682850
v 1.264316 -0.278807 -0.673099
v 1.261281 -0.305832 -0.682850
v 1.261281 -0.266592 -0.699104
v 1.054020 -0.397858 -0.633661
v 1.054020 -0.433173 -0.610065
v 1.050985 -0.404765 -0.605774
v 1.264316 -0.404765 -0.605774
v 1.261281 -0.433173 -0.610065
v 1.261281 -0.397858 -0.633661
v 1.050985 -0.515168 -0.515168
v 1.054020 -0.513835 -0.543867
v 1.054020 -0.543867 -0.513835
v 1.264316 -0.515168 -0.515168
v 1.261281 -0.543867 -0.513835
v 1.261281 -0.513835 -0.543867
v 1.050985 -0.605774 -0.404765
v 1.054020 -0.610065 -0.433173
v 1.054020 -0.633661 -0.397858
v 1.264316 -0.605774 -0.404765
v 1.261281 -0.633661 -0.397858
v 1.261281 -0.610065 -0.433173
v 1.050985 -0.673100 -0.278807
v 1.054020 -0.682850 -0.305832
v 1.054020 -0.699104 -0.266592
v 1.264316 -0.673099 -0.278807
v 1.261281 -0.699104 -0.266592
v 1.261281 -0.682850 -0.305832
v 1.050985 -0.714559 -0.142135
v 1.054020 -0.729394 -0.166738
v 1.054020 -0.737681 -0.125081
v 1.264316 -0.714559 -0.142135
v 1.261281 -0.737681 -0.125081
v 1.261281 -0.729394 -0.166738
v 1.050985 -0.728558 -0.000000
v 1.054020 -0.747908 -0.021236
v 1.054020 -0.747908 0.021236
v 1.264316 -0.728558 0.000000
v 1.261281 -0.747908 0.021236
v 1.261281 -0.747908 -0.021236
v 1.050985 -0.714559 0.142135
v 1.054020 -0.737681 0.125081
v 1.054020 -0.729394 0.166738
v 1.264316 -0.714559 0.142135
v 1.261281 -0.729394 0.166738
v 1.261281 -0.737681 0.125081
v 1.050985 -0.673100 0.278807
v 1.054020 -0.699104 0.266592
v 1.054020 -0.682850 0.305832
v 1.264316 -0.673100 0.278807
v 1.261281 -0.682850 0.305832
v 1.261281 -0.699104 0.266592
v 1.054020 -0.633661 0.397858
v 1.054020 -0.610065 0.433173
v 1.050985 -0.605774 0.404765
v 1.264316 -0.605774 0.404765
v 1.261281 -0.610065 0.433173
v 1.261281 -0.633661 0.397858
v 1.050985 -0.515168 0.515168
v 1.054020 -0.543867 0.513835
v 1.054020 -0.513835 0.543867
v 1.264316 -0.515168 0.515168
v 1.261281 -0.513835 0.543867
v 1.261281 -0.543867 0.513835
v 1.050985 -0.404765 0.605774
v 1.054020 -0.433173 0.610065
v 1.054020 -0.397858 0.633661
v 1.264316 -0.404765 0.605774
v 1.261281 -0.397858 0.633661
v 1.261281 -0.433173 0.610065
v 1.050985 -0.278807 0.673100
v 1.054020 -0.305832 0.682850
v 1.054020 -0.266592 0.699104
v 1.264316 -0.278807 0.673100
v 1.261281 -0.266592 0.699104
v 1.261281 -0.305832 0.682850
v 1.050985 -0.142135 0.714559
v 1.054020 -0.166738 0.729394
v 1.054020 -0.125081 0.737681
v 1.264316 -0.142135 0.714559
v 1.261281 -0.125081 0.737681
v 1.261281 -0.166738 0.729394
v 1.050985 -0.000000 0.728558
v 1.054020 -0.021236 0.747908
v 1.054020 0.021236 0.747908
v 1.264316 0.000000 0.728558
v 1.261281 0.021236 0.747908
v 1.261281 -0.021236 0.747908
v 1.050985 0.142135 0.714559
v 1.054020 0.125081 0.737681
v 1.054020 0.166738 0.729394
v 1.264316 0.142135 0.714559
v 1.261281 0.166738 0.729394
v 1.261281 0.125081 0.737681
v 1.050985 0.278807 0.673100
v 1.054020 0.266592 0.699104
v 1.054020 0.305832 0.682850
v 1.264315 0.278807 0.673100
v 1.261281 0.305832 0.682850
v 1.261281 0.266592 0.699104
v 1.050985 0.404765 0.605774
v 1.054020 0.397858 0.633661
v 1.054020 0.433173 0.610065
v 1.264315 0.404765 0.605774
v 1.261281 0.433173 0.610065
v 1.261281 0.397858 0.633661
v 1.050985 0.515168 0.515168
v 1.054020 0.513835 0.543867
v 1.054020 0.543867 0.513835
v 1.264315 0.515168 0.515168
v 1.261281 0.543867 0.513835
v 1.261281 0.513835 0.543867
v 1.050985 0.605774 0.404765
v 1.054020 0.610065 0.433173
v 1.054020 0.633661 0.397858
v 1.264315 0.605774 0.404765
v 1.261281 0.633661 0.397858
v 1.261281 0.610065 0.433173
v 1.050985 0.673100 0.278807
v 1.054020 0.682850 0.305832
v 1.054020 0.699104 0.266592
v 1.264315 0.673100 0.278807
v 1.261281 0.699104 0.266592
v 1.261281 0.682850 0.305832
v 1.050985 0.714559 0.142135
v 1.054020 0.729394 0.166738
v 1.054020 0.737681 0.125081
v 1.264315 0.714559 0.142135
v 1.261281 0.737681 0.125081
v 1.261281 0.729394 0.166738
v 1.050985 0.728558 0.000000
v 1.054020 0.747908 0.021236
v 1.054020 0.747908 -0.021236
v 1.264315 0.728558 -0.000000
v 1.261281 0.747908 -0.021236
v 1.261281 0.747908 0.021236
v 1.050985 0.714559 -0.142135
v 1.054020 0.737681 -0.125081
v 1.054020 0.729394 -0.166738
v 1.264315 0.714559 -0.142135
v 1.261281 0.729394 -0.166738
v 1.261281 0.737681 -0.125081
v 1.050985 0.673100 -0.278807
v 1.054020 0.699104 -0.266592
v 1.054020 0.682850 -0.305832
v 1.264315 0.673100 -0.278807
v 1.261281 0.682850 -0.305832
v 1.261281 0.699104 -0.266592
v 1.050985 0.605774 -0.404765
v 1.054020 0.633661 -0.397858
v 1.054020 0.610065 -0.433173
v 1.264315 0.605774 -0.404765
v 1.261281 0.610065 -0.433173
v 1.261281 0.633661 -0.397858
v 1.050985 0.515168 -0.515168
v 1.054020 0.543867 -0.513835
v 1.054020 0.513835 -0.543867
v 1.264315 0.515168 -0.515168
v 1.261281 0.513835 -0.543867
v 1.261281 0.543867 -0.513835
v 1.050985 0.404765 -0.605774
v 1.054020 0.433173 -0.610065
v 1.054020 0.397858 -0.633661
v 1.264315 0.404765 -0.605774
v 1.261281 0.397858 -0.633661
v 1.261281 0.433173 -0.610065
v 1.050985 0.278807 -0.673100
v 1.054020 0.305832 -0.682850
v 1.054020 0.266592 -0.699104
v 1.264315 0.278807 -0.673100
v 1.261281 0.266592 -0.699104
v 1.261281 0.305832 -0.682850
v 1.050985 0.142135 -0.714559
v 1.054020 0.166738 -0.729394
v 1.054020 0.125081 -0.737681
v 1.261281 0.125081 -0.737681
v 1.261281 0.166738 -0.729394
v 1.264316 0.142135 -0.714559
v -0.261175 1.785261 1.000000
v -0.263088 1.337791 1.000000
v -0.261175 1.785261 -1.000000
v -0.263088 1.337791 -1.000000
v -0.148356 1.785261 1.000000
v 0.008641 1.337791 1.000000
v -0.148356 1.785261 -1.000000
v 0.008641 1.337791 -1.000000
vn -0.0000 0.0980 -0.9952
vn -0.0000 -0.4714 -0.8819
vn 1.0000 -0.0000 -0.0000
vn -1.0000 -0.0000 -0.0000
vn -0.0000 -0.8819 -0.4714
vn -0.0000 -0.9569 -0.2903
vn -0.0000 -0.9952 -0.0980
vn -0.0000 -0.9952 0.0980
vn -0.0000 -0.9569 0.2903
vn -0.0000 -0.8819 0.4714
vn -0.0000 -0.7730 0.6344
vn -0.0000 -0.6344 0.7730
vn -0.0000 -0.4714 0.8819
vn -0.0000 -0.2903 0.9569
vn -0.0000 -0.0980 0.9952
vn -0.0000 0.0980 0.9952
vn -0.0000 0.2903 0.9569
vn -0.0000 0.4714 0.8819
vn -0.0000 0.6344 0.7730
vn -0.0000 0.7730 0.6344
vn -0.0000 0.8819 0.4714
vn -0.0000 0.9569 0.2903
vn -0.0000 0.9952 0.0980
vn -0.0000 0.9952 -0.0980
vn -0.0000 0.9569 -0.2903
vn -0.0000 0.8819 -0.4714
vn -0.0000 0.7730 -0.6344
vn -0.0000 0.6344 -0.7730
vn -0.0000 0.4714 -0.8819
vn -0.0000 0.2903 -0.9569
vn -0.0000 -0.6344 -0.7730
vn -0.0000 -0.2903 -0.9569
vn -0.0000 -0.7730 -0.6344
vn -0.0000 -0.0980 -0.9952
vn -0.9879 -0.0000 -0.1549
vn 0.9879 -0.0000 -0.1549
vn -0.9879 -0.0302 -0.1520
vn 0.9879 -0.0302 -0.1520
vn -0.9879 -0.0593 -0.1431
vn 0.9879 -0.0593 -0.1431
vn -0.9879 -0.0861 -0.1288
vn 0.9879 -0.0861 -0.1288
vn -0.9879 -0.1096 -0.1096
vn 0.9879 -0.1096 -0.1096
vn -0.9879 -0.1288 -0.0861
vn 0.9879 -0.1288 -0.0861
vn -0.9879 -0.1431 -0.0593
vn 0.9879 -0.1431 -0.0593
vn -0.9879 -0.1520 -0.0302
vn 0.9879 -0.1520 -0.0302
vn -0.9879 -0.1549 -0.0000
vn 0.9879 -0.1549 -0.0000
vn -0.9879 -0.1520 0.0302
vn 0.9879 -0.1520 0.0302
vn -0.9879 -0.1431 0.0593
vn 0.9879 -0.1431 0.0593
vn -0.9879 -0.1288 0.0861
vn 0.9879 -0.1288 0.0861
vn -0.9879 -0.1096 0.1096
vn 0.9879 -0.1096 0.1096
vn -0.9879 -0.0861 0.1288
vn 0.9879 -0.0861 0.1288
vn -0.9879 -0.0593 0.1431
vn 0.9879 -0.0593 0.1431
vn -0.9879 -0.0302 0.1520
vn 0.9879 -0.0302 0.1520
vn -0.9879 -0.0000 0.1549
vn 0.9879 -0.0000 0.1549
vn -0.9879 0.0302 0.1520
vn 0.9879 0.0302 0.1520
vn -0.9879 0.0593 0.1431
vn 0.9879 0.0593 0.1431
vn -0.9879 0.0861 0.1288
vn 0.9879 0.0861 0.1288
vn -0.9879 0.1096 0.1096
vn 0.9879 0.1096 0.1096
vn -0.9879 0.1288 0.0861
vn 0.9879 0.1288 0.0861
vn -0.9879 0.1431 0.0593
vn 0.9879 0.1431 0.0593
vn -0.9879 0.1520 0.0302
vn 0.9879 0.1520 0.0302
vn -0.9879 0.1549 -0.0000
vn 0.9879 0.1549 -0.0000
vn -0.9879 0.1520 -0.0302
vn 0.9879 0.1520 -0.0302
vn -0.9879 0.1431 -0.0593
vn 0.9879 0.1431 -0.0593
vn -0.9879 0.1288 -0.0861
vn 0.9879 0.1288 -0.0861
vn -0.9879 0.1096 -0.1096
vn 0.9879 0.1096 -0.1096
vn -0.9879 0.0861 -0.1288
vn 0.9879 0.0861 -0.1288
vn -0.9879 0.0593 -0.1431
vn 0.9879 0.0593 -0.1431
vn -0.9879 0.0302 -0.1520
vn 0.9879 0.0302 -0.1520
vn -0.9900 -0.0138 -0.1401
vn -0.0000 -0.0000 -1.0000
vn 0.9900 -0.0138 -0.1401
vn -0.0000 -0.1951 -0.9808
vn -0.9900 -0.0409 -0.1347
vn 0.9900 -0.0409 -0.1347
vn -0.0000 -0.3827 -0.9239
vn -0.9900 -0.0664 -0.1242
vn 0.9900 -0.0664 -0.1242
vn -0.0000 -0.5556 -0.8315
vn -0.9900 -0.0893 -0.1088
vn 0.9900 -0.0893 -0.1088
vn -0.0000 -0.7071 -0.7071
vn -0.9900 -0.1088 -0.0893
vn 0.9900 -0.1088 -0.0893
vn -0.0000 -0.8315 -0.5556
vn -0.9900 -0.1242 -0.0664
vn 0.9900 -0.1242 -0.0664
vn -0.0000 -0.9239 -0.3827
vn -0.9900 -0.1347 -0.0409
vn 0.9900 -0.1347 -0.0409
vn -0.0000 -0.9808 -0.1951
vn -0.9900 -0.1401 -0.0138
vn 0.9900 -0.1401 -0.0138
vn -0.0000 -1.0000 -0.0000
vn -0.9900 -0.1401 0.0138
vn 0.9900 -0.1401 0.0138
vn -0.0000 -0.9808 0.1951
vn -0.9900 -0.1347 0.0409
vn 0.9900 -0.1347 0.0409
vn -0.0000 -0.9239 0.3827
vn -0.9900 -0.1242 0.0664
vn 0.9900 -0.1242 0.0664
vn -0.0000 -0.8315 0.5556
vn -0.9900 -0.1088 0.0893
vn 0.9900 -0.1088 0.0893
vn -0.0000 -0.7071 0.7071
vn -0.9900 -0.0893 0.1088
vn 0.9900 -0.0893 0.1088
vn -0.0000 -0.5556 0.8315
vn -0.9900 -0.0664 0.1242
vn 0.9900 -0.0664 0.1242
vn -0.0000 -0.3827 0.9239
vn -0.9900 -0.0409 0.1347
vn 0.9900 -0.0409 0.1347
vn -0.0000 -0.1951 0.9808
vn -0.9900 -0.0138 0.1401
vn 0.9900 -0.0138 0.1401
vn -0.0000 -0.0000 1.0000
vn -0.9900 0.0138 0.1401
vn 0.9900 0.0138 0.1401
vn -0.0000 0.1951 0.9808
vn -0.9900 0.0409 0.1347
vn 0.9900 0.0409 0.1347
vn -0.0000 0.3827 0.9239
vn -0.9900 0.0664 0.1242
vn 0.9900 0.0664 0.1242
vn -0.0000 0.5556 0.8315
vn -0.9900 0.0893 0.1088
vn 0.9900 0.0893 0.1088
vn -0.0000 0.7071 0.7071
vn -0.9900 0.1088 0.0893
vn 0.9900 0.1088 0.0893
vn -0.0000 0.8315 0.5556
vn -0.9900 0.1242 0.0664
vn 0.9900 0.1242 0.0664
vn -0.0000 0.9239 0.3827
vn -0.9900 0.1347 0.0409
vn 0.9900 0.1347 0.0409
vn -0.0000 0.9808 0.1951
vn -0.9900 0.1401 0.0138
vn 0.9900 0.1401 0.0138
vn -0.0000 1.0000 -0.0000
vn -0.9900 0.1401 -0.0138
vn 0.9900 0.1401 -0.0138
vn -0.0000 0.9808 -0.1951
vn -0.9900 0.1347 -0.0409
vn 0.9900 0.1347 -0.0409
vn -0.0000 0.9239 -0.3827
vn -0.9900 0.1242 -0.0664
vn 0.9900 0.1242 -0.0664
vn -0.0000 0.8315 -0.5556
vn -0.9900 0.1088 -0.0893
vn 0.9900 0.1088 -0.0893
vn -0.0000 0.7071 -0.7071
vn -0.9900 0.0893 -0.1088
vn 0.9900 0.0893 -0.1088
vn -0.0000 0.5556 -0.8315
vn -0.9900 0.0664 -0.1242
vn 0.9900 0.0664 -0.1242
vn -0.0000 0.3827 -0.9239
vn 0.9900 0.0138 -0.1401
vn 0.9900 0.0409 -0.1347
vn -0.9900 0.0409 -0.1347
vn -0.0000 0.1951 -0.9808
vn -0.9900 0.0138 -0.1401
vt 0.026714 0.507113
vt 0.026714 0.992887
vt 0.004536 0.992887
vt 0.004536 0.507113
vt 0.932964 0.507113
vt 0.932964 0.992887
vt 0.910786 0.992887
vt 0.910786 0.507113
vt 0.416298 0.318883
vt 0.465392 0.339218
vt 0.443847 0.379525
vt 0.414854 0.414854
vt 0.379525 0.443848
vt 0.339218 0.465392
vt 0.318883 0.416298
vt 0.350003 0.399665
vt 0.377279 0.377279
vt 0.399665 0.350003
vt 0.850003 0.399665
vt 0.879525 0.443848
vt 0.914854 0.414854
vt 0.943847 0.379525
vt 0.965392 0.339218
vt 0.978659 0.295483
vt 0.983138 0.250000
vt 0.978659 0.204517
vt 0.965392 0.160782
vt 0.943848 0.120475
vt 0.899664 0.149997
vt 0.916298 0.181117
vt 0.926541 0.214884
vt 0.930000 0.250000
vt 0.926541 0.285116
vt 0.916298 0.318883
vt 0.899664 0.350003
vt 0.877279 0.377279
vt 0.839214 0.507113
vt 0.839214 0.992887
vt 0.817036 0.992887
vt 0.817036 0.507113
vt 0.807964 0.507113
vt 0.807964 0.992887
vt 0.785786 0.992887
vt 0.785786 0.507113
vt 0.776714 0.507113
vt 0.776714 0.992887
vt 0.754536 0.992887
vt 0.754536 0.507113
vt 0.745465 0.507113
vt 0.745465 0.992887
vt 0.723286 0.992887
vt 0.723286 0.507113
vt 0.714215 0.507113
vt 0.714215 0.992887
vt 0.692036 0.992887
vt 0.692036 0.507113
vt 0.682965 0.507113
vt 0.682964 0.992887
vt 0.660786 0.992887
vt 0.660786 0.507113
vt 0.651714 0.507113
vt 0.651714 0.992887
vt 0.629536 0.992887
vt 0.629536 0.507113
vt 0.620464 0.507113
vt 0.620464 0.992887
vt 0.598286 0.992887
vt 0.598286 0.507113
vt 0.589214 0.507113
vt 0.589214 0.992887
vt 0.567036 0.992887
vt 0.567036 0.507113
vt 0.557964 0.507113
vt 0.557964 0.992887
vt 0.535786 0.992887
vt 0.535786 0.507113
vt 0.526714 0.507113
vt 0.526714 0.992887
vt 0.504536 0.992887
vt 0.504536 0.507113
vt 0.495464 0.507113
vt 0.495464 0.992887
vt 0.473286 0.992887
vt 0.473286 0.507113
vt 0.464214 0.507113
vt 0.464214 0.992887
vt 0.442036 0.992887
vt 0.442036 0.507113
vt 0.432964 0.507113
vt 0.432964 0.992887
vt 0.410786 0.992887
vt 0.410786 0.507113
vt 0.401714 0.507113
vt 0.401714 0.992887
vt 0.379536 0.992887
vt 0.379536 0.507113
vt 0.370464 0.507113
vt 0.370464 0.992887
vt 0.348286 0.992887
vt 0.348286 0.507113
vt 0.339214 0.507113
vt 0.339214 0.992887
vt 0.317036 0.992887
vt 0.317036 0.507113
vt 0.307964 0.507113
vt 0.307964 0.992887
vt 0.285786 0.992887
vt 0.285786 0.507113
vt 0.276714 0.507113
vt 0.276714 0.992887
vt 0.254536 0.992887
vt 0.254536 0.507113
vt 0.245464 0.507113
vt 0.245464 0.992887
vt 0.223286 0.992887
vt 0.223286 0.507113
vt 0.214214 0.507113
vt 0.214214 0.992887
vt 0.192036 0.992887
vt 0.192036 0.507113
vt 0.182964 0.507113
vt 0.182964 0.992887
vt 0.160786 0.992887
vt 0.160786 0.507113
vt 0.151714 0.507113
vt 0.151714 0.992887
vt 0.129536 0.992887
vt 0.129536 0.507113
vt 0.120464 0.507113
vt 0.120464 0.992887
vt 0.098286 0.992887
vt 0.098286 0.507113
vt 0.089214 0.507113
vt 0.089214 0.992887
vt 0.067036 0.992887
vt 0.067036 0.507113
vt 0.057964 0.507113
vt 0.057964 0.992887
vt 0.035786 0.992887
vt 0.035786 0.507113
vt 0.901714 0.507113
vt 0.901714 0.992887
vt 0.879536 0.992887
vt 0.879536 0.507113
vt 0.964215 0.507113
vt 0.964215 0.992887
vt 0.942036 0.992887
vt 0.942036 0.507113
vt 0.295483 0.478659
vt 0.250000 0.483138
vt 0.204517 0.478659
vt 0.160782 0.465392
vt 0.120475 0.443847
vt 0.085146 0.414854
vt 0.056152 0.379525
vt 0.034608 0.339218
vt 0.021341 0.295483
vt 0.016862 0.250000
vt 0.021341 0.204517
vt 0.034608 0.160782
vt 0.056152 0.120475
vt 0.085146 0.085146
vt 0.120475 0.056152
vt 0.160782 0.034608
vt 0.204517 0.021341
vt 0.250000 0.016862
vt 0.295483 0.021341
vt 0.339218 0.034608
vt 0.379525 0.056152
vt 0.414854 0.085146
vt 0.443847 0.120475
vt 0.465392 0.160782
vt 0.478659 0.204517
vt 0.483138 0.250000
vt 0.478659 0.295483
vt 0.465392 0.339218
vt 0.426541 0.285116
vt 0.430000 0.250000
vt 0.426541 0.214884
vt 0.416298 0.181117
vt 0.399665 0.149997
vt 0.377279 0.122721
vt 0.350003 0.100335
vt 0.318883 0.083702
vt 0.285116 0.073459
vt 0.250000 0.070000
vt 0.214884 0.073459
vt 0.181117 0.083702
vt 0.149997 0.100335
vt 0.122721 0.122721
vt 0.100335 0.149997
vt 0.083702 0.181117
vt 0.073459 0.214884
vt 0.070000 0.250000
vt 0.073459 0.285116
vt 0.083702 0.318883
vt 0.100335 0.350003
vt 0.122721 0.377279
vt 0.149997 0.399665
vt 0.181117 0.416298
vt 0.214884 0.426541
vt 0.250000 0.430000
vt 0.285116 0.426541
vt 0.870464 0.507113
vt 0.870464 0.992887
vt 0.848286 0.992887
vt 0.848286 0.507113
vt 0.995465 0.507113
vt 0.995465 0.992887
vt 0.973286 0.992887
vt 0.973286 0.507113
vt 0.968750 0.557925
vt 0.968750 0.916360
vt 1.000000 0.916360
vt 1.000000 0.557925
vt 0.937500 0.557925
vt 0.937500 0.916360
vt 0.906250 0.557925
vt 0.906250 0.916360
vt 0.875000 0.557925
vt 0.875000 0.916360
vt 0.843750 0.916360
vt 0.843750 0.557925
vt 0.812500 0.916360
vt 0.812500 0.557925
vt 0.781250 0.916360
vt 0.781250 0.557925
vt 0.750000 0.916360
vt 0.750000 0.557925
vt 0.718750 0.916360
vt 0.718750 0.557925
vt 0.687500 0.916360
vt 0.687500 0.557925
vt 0.656250 0.916360
vt 0.656250 0.557925
vt 0.625000 0.916360
vt 0.625000 0.557925
vt 0.593750 0.916360
vt 0.593750 0.557925
vt 0.562500 0.916360
vt 0.562500 0.557925
vt 0.531250 0.916360
vt 0.531250 0.557925
vt 0.500000 0.916360
vt 0.500000 0.557925
vt 0.468750 0.916360
vt 0.468750 0.557925
vt 0.437500 0.916360
vt 0.437500 0.557925
vt 0.406250 0.916360
vt 0.406250 0.557925
vt 0.375000 0.916360
vt 0.375000 0.557925
vt 0.343750 0.557925
vt 0.343750 0.916360
vt 0.312500 0.557925
vt 0.312500 0.916360
vt 0.281250 0.557925
vt 0.281250 0.916360
vt 0.250000 0.557925
vt 0.250000 0.916360
vt 0.218750 0.557925
vt 0.218750 0.916360
vt 0.187500 0.557925
vt 0.187500 0.916360
vt 0.156250 0.557925
vt 0.156250 0.916360
vt 0.125000 0.557925
vt 0.125000 0.916360
vt 0.093750 0.557925
vt 0.093750 0.916360
vt 0.062500 0.557925
vt 0.062500 0.916360
vt 0.031250 0.557925
vt 0.031250 0.916360
vt 0.000000 0.557925
vt 0.000000 0.916360
vt 0.750000 0.483138
vt 0.743204 0.489331
vt 0.756796 0.489331
vt 0.243204 0.489331
vt 0.256796 0.489331
vt 0.795483 0.478659
vt 0.790026 0.486058
vt 0.803356 0.483406
vt 0.303356 0.483406
vt 0.290026 0.486058
vt 0.839218 0.465392
vt 0.835310 0.473713
vt 0.847866 0.468512
vt 0.341588 0.471113
vt 0.335310 0.473713
vt 0.877315 0.452772
vt 0.882965 0.448996
vt 0.879525 0.443848
vt 0.388615 0.445221
vt 0.377315 0.452772
vt 0.914427 0.424038
vt 0.924038 0.414427
vt 0.424038 0.414427
vt 0.414427 0.424038
vt 0.945221 0.388615
vt 0.952772 0.377315
vt 0.452772 0.377315
vt 0.445221 0.388615
vt 0.968512 0.347866
vt 0.973713 0.335310
vt 0.473713 0.335310
vt 0.471113 0.341588
vt 0.983406 0.303356
vt 0.986058 0.290026
vt 0.486058 0.290026
vt 0.483406 0.303356
vt 0.989331 0.256796
vt 0.989331 0.243204
vt 0.489331 0.243204
vt 0.489331 0.256796
vt 0.986058 0.209974
vt 0.983406 0.196644
vt 0.483406 0.196644
vt 0.486058 0.209974
vt 0.973713 0.164690
vt 0.968512 0.152134
vt 0.468512 0.152134
vt 0.473713 0.164690
vt 0.948996 0.117035
vt 0.945221 0.111385
vt 0.943848 0.120475
vt 0.445221 0.111385
vt 0.452772 0.122685
vt 0.914854 0.085146
vt 0.924038 0.085573
vt 0.914427 0.075962
vt 0.414427 0.075962
vt 0.424038 0.085573
vt 0.879525 0.056152
vt 0.888615 0.054779
vt 0.877315 0.047228
vt 0.377315 0.047228
vt 0.388615 0.054779
vt 0.839218 0.034608
vt 0.847866 0.031488
vt 0.835310 0.026287
vt 0.335310 0.026287
vt 0.347866 0.031488
vt 0.795483 0.021341
vt 0.803356 0.016594
vt 0.790026 0.013942
vt 0.290026 0.013942
vt 0.303356 0.016594
vt 0.750000 0.016862
vt 0.756796 0.010669
vt 0.743204 0.010669
vt 0.243204 0.010669
vt 0.256796 0.010669
vt 0.704517 0.021341
vt 0.709974 0.013942
vt 0.696644 0.016594
vt 0.196644 0.016594
vt 0.209974 0.013942
vt 0.660782 0.034608
vt 0.664690 0.026287
vt 0.652134 0.031488
vt 0.152134 0.031488
vt 0.164690 0.026287
vt 0.620475 0.056152
vt 0.622685 0.047228
vt 0.611385 0.054779
vt 0.111385 0.054779
vt 0.122685 0.047228
vt 0.585146 0.085146
vt 0.585573 0.075962
vt 0.575962 0.085573
vt 0.075962 0.085573
vt 0.085573 0.075962
vt 0.556153 0.120475
vt 0.554779 0.111385
vt 0.547228 0.122685
vt 0.047228 0.122685
vt 0.054779 0.111385
vt 0.534608 0.160782
vt 0.531488 0.152134
vt 0.526287 0.164690
vt 0.026287 0.164690
vt 0.031488 0.152134
vt 0.521341 0.204517
vt 0.516594 0.196644
vt 0.513942 0.209974
vt 0.013942 0.209974
vt 0.016594 0.196644
vt 0.516861 0.250000
vt 0.510669 0.243204
vt 0.510669 0.256796
vt 0.010669 0.256796
vt 0.010669 0.243204
vt 0.521341 0.295483
vt 0.513942 0.290026
vt 0.516594 0.303356
vt 0.016594 0.303356
vt 0.013942 0.290026
vt 0.534608 0.339218
vt 0.526287 0.335310
vt 0.531488 0.347866
vt 0.031488 0.347866
vt 0.026287 0.335310
vt 0.556152 0.379525
vt 0.547228 0.377315
vt 0.554779 0.388615
vt 0.054779 0.388615
vt 0.047228 0.377315
vt 0.585146 0.414854
vt 0.575962 0.414427
vt 0.585573 0.424038
vt 0.085573 0.424038
vt 0.075962 0.414427
vt 0.620475 0.443848
vt 0.611385 0.445221
vt 0.622685 0.452772
vt 0.122685 0.452772
vt 0.111385 0.445221
vt 0.660782 0.465392
vt 0.652134 0.468512
vt 0.664690 0.473713
vt 0.164690 0.473713
vt 0.152134 0.468512
vt 0.704517 0.478659
vt 0.696644 0.483406
vt 0.709974 0.486058
vt 0.209974 0.486058
vt 0.196644 0.483406
vt 0.790026 0.486058
vt 0.000000 0.992887
vt 0.000000 0.507113
vt 0.290026 0.486058
vt 0.879525 0.443848
vt 0.347866 0.468512
vt 0.888615 0.445221
vt 0.468512 0.347866
vt 0.952772 0.122685
vt 0.709974 0.013942
vt 0.709974 0.486058
vt 0.818883 0.416298
vt 0.785116 0.426541
vt 0.750000 0.430000
vt 0.714884 0.426541
vt 0.681117 0.416298
vt 0.649997 0.399665
vt 0.622721 0.377279
vt 0.600335 0.350003
vt 0.583702 0.318883
vt 0.573459 0.285116
vt 0.570000 0.250000
vt 0.573459 0.214884
vt 0.583702 0.181117
vt 0.600336 0.149997
vt 0.622721 0.122721
vt 0.649997 0.100335
vt 0.681117 0.083702
vt 0.714884 0.073459
vt 0.750000 0.070000
vt 0.785116 0.073459
vt 0.818883 0.083702
vt 0.850003 0.100335
vt 0.877279 0.122721
s 0
f 277/45/27 278/46/27 92/47/27 90/48/27
f 103/49/28 105/50/28 112/51/28 107/52/28
f 36/53/29 128/54/29 122/55/29 116/56/29 110/57/29 104/58/29 44/59/29 50/60/29 52/61/29 34/62/29
f 59/63/30 109/64/30 113/65/30 119/66/30 125/67/30 131/68/30 137/69/30 143/70/30 149/71/30 157/72/30 61/73/30 62/74/30 76/75/30 75/76/30 77/77/30 73/78/30 74/79/30 58/80/30
f 121/81/31 123/82/31 130/83/31 126/84/31
f 127/85/32 129/86/32 136/87/32 132/88/32
f 133/89/33 135/90/33 142/91/33 138/92/33
f 139/93/34 141/94/34 148/95/34 144/96/34
f 145/97/35 147/98/35 154/99/35 150/100/35
f 151/101/36 153/102/36 160/103/36 155/104/36
f 156/105/37 159/106/37 166/107/37 162/108/37
f 163/109/38 165/110/38 172/111/38 168/112/38
f 169/113/39 171/114/39 178/115/39 174/116/39
f 175/117/40 177/118/40 184/119/40 180/120/40
f 181/121/41 183/122/41 190/123/41 186/124/41
f 187/125/42 189/126/42 196/127/42 192/128/42
f 193/129/43 195/130/43 202/131/43 198/132/43
f 199/133/44 201/134/44 208/135/44 204/136/44
f 205/137/45 207/138/45 214/139/45 210/140/45
f 211/141/46 213/142/46 220/143/46 216/144/46
f 217/145/47 219/146/47 226/147/47 222/148/47
f 223/149/48 225/150/48 232/151/48 228/152/48
f 229/153/49 231/154/49 238/155/49 234/156/49
f 235/157/50 237/158/50 244/159/50 240/160/50
f 241/161/51 243/162/51 250/163/51 246/164/51
f 247/165/52 249/166/52 256/167/52 252/168/52
f 253/169/53 255/170/53 262/171/53 258/172/53
f 259/173/54 261/174/54 268/175/54 264/176/54
f 265/177/55 267/178/55 274/179/55 270/180/55
f 271/181/56 273/182/56 279/183/56 276/184/56
f 108/185/57 111/186/57 118/187/57 114/188/57
f 97/189/58 99/190/58 106/191/58 102/192/58
f 44/59/29 104/58/29 98/193/29 93/194/29 280/195/29 272/196/29 266/197/29 260/198/29 254/199/29 248/200/29 242/201/29 236/202/29 230/203/29 224/204/29 218/205/29 212/206/29 206/207/29 200/208/29 194/209/29 188/210/29 182/211/29 176/212/29 170/213/29 164/214/29 158/215/29 152/216/29 146/217/29 140/218/29 134/219/29 128/220/29 36/53/29 35/221/29 54/222/29 53/223/29 55/224/29 51/225/29 56/226/29 32/227/29 33/228/29 31/229/29 49/230/29 48/231/29 47/232/29 42/233/29 46/234/29 29/235/29 30/236/29 28/237/29 37/238/29 38/239/29 40/240/29 39/241/29 41/242/29 25/243/29 26/244/29 27/245/29 43/246/29 45/247/29
f 115/248/59 117/249/59 124/250/59 120/251/59
f 91/252/60 94/253/60 100/254/60 96/255/60
f 72/256/42 45/257/42 43/258/42 69/259/42
f 57/260/43 44/261/43 45/257/43 72/256/43
f 59/262/44 50/263/44 44/261/44 57/260/44
f 58/264/45 52/265/45 50/263/45 59/262/45
f 34/266/46 52/265/46 58/264/46 74/267/46
f 36/268/47 34/266/47 74/267/47 73/269/47
f 35/270/48 36/268/48 73/269/48 77/271/48
f 54/272/49 35/270/49 77/271/49 75/273/49
f 53/274/50 54/272/50 75/273/50 76/275/50
f 55/276/51 53/274/51 76/275/51 62/277/51
f 51/278/52 55/276/52 62/277/52 61/279/52
f 56/280/53 51/278/53 61/279/53 60/281/53
f 32/282/54 56/280/54 60/281/54 78/283/54
f 33/284/55 32/282/55 78/283/55 70/285/55
f 31/286/56 33/284/56 70/285/56 71/287/56
f 49/288/27 31/286/27 71/287/27 86/289/27
f 48/290/60 49/288/60 86/289/60 87/291/60
f 47/292/58 48/290/58 87/291/58 65/293/58
f 42/294/28 47/292/28 65/293/28 64/295/28
f 46/296/57 42/294/57 64/295/57 63/297/57
f 82/298/59 29/299/59 46/296/59 63/297/59
f 83/300/31 30/301/31 29/299/31 82/298/31
f 80/302/32 28/303/32 30/301/32 83/300/32
f 79/304/33 37/305/33 28/303/33 80/302/33
f 81/306/34 38/307/34 37/305/34 79/304/34
f 66/308/35 40/309/35 38/307/35 81/306/35
f 68/310/36 39/311/36 40/309/36 66/308/36
f 67/312/37 41/313/37 39/311/37 68/310/37
f 85/314/38 25/315/38 41/313/38 67/312/38
f 84/316/39 26/317/39 25/315/39 85/314/39
f 88/318/40 27/319/40 26/317/40 84/316/40
f 69/320/41 43/321/41 27/319/41 88/318/41
f 89/322/61 90/323/61 91/324/61
f 92/325/62 93/194/62 94/326/62
f 95/327/63 96/328/63 97/329/63
f 98/193/64 99/330/64 100/331/64
f 101/332/65 102/333/65 103/334/65
f 104/58/66 105/335/66 106/336/66
f 107/337/67 108/338/67 109/339/67
f 110/57/68 111/340/68 112/341/68
f 113/65/69 114/342/69 115/343/69
f 116/56/70 117/344/70 118/345/70
f 119/66/71 120/346/71 121/347/71
f 122/55/72 123/348/72 124/349/72
f 125/67/73 126/350/73 127/351/73
f 128/220/74 129/352/74 130/353/74
f 131/68/75 132/354/75 133/355/75
f 134/219/76 135/356/76 136/357/76
f 137/69/77 138/358/77 139/359/77
f 140/218/78 141/360/78 142/361/78
f 143/70/79 144/362/79 145/363/79
f 146/217/80 147/364/80 148/365/80
f 149/71/81 150/366/81 151/367/81
f 152/216/82 153/368/82 154/369/82
f 155/370/83 156/371/83 157/372/83
f 158/215/84 159/373/84 160/374/84
f 161/375/85 162/376/85 163/377/85
f 164/214/86 165/378/86 166/379/86
f 167/380/87 168/381/87 169/382/87
f 170/213/88 171/383/88 172/384/88
f 173/385/89 174/386/89 175/387/89
f 176/212/90 177/388/90 178/389/90
f 179/390/91 180/391/91 181/392/91
f 182/211/92 183/393/92 184/394/92
f 185/395/93 186/396/93 187/397/93
f 188/210/94 189/398/94 190/399/94
f 191/400/95 192/401/95 193/402/95
f 194/209/96 195/403/96 196/404/96
f 197/405/97 198/406/97 199/407/97
f 200/208/98 201/408/98 202/409/98
f 203/410/99 204/411/99 205/412/99
f 206/207/100 207/413/100 208/414/100
f 209/415/101 210/416/101 211/417/101
f 212/206/102 213/418/102 214/419/102
f 215/420/103 216/421/103 217/422/103
f 218/205/104 219/423/104 220/424/104
f 221/425/105 222/426/105 223/427/105
f 224/204/106 225/428/106 226/429/106
f 227/430/107 228/431/107 229/432/107
f 230/203/108 231/433/108 232/434/108
f 233/435/109 234/436/109 235/437/109
f 236/202/110 237/438/110 238/439/110
f 239/440/111 240/441/111 241/442/111
f 242/201/112 243/443/112 244/444/112
f 245/445/113 246/446/113 247/447/113
f 248/200/114 249/448/114 250/449/114
f 251/450/115 252/451/115 253/452/115
f 254/199/116 255/453/116 256/454/116
f 257/455/117 258/456/117 259/457/117
f 260/198/118 261/458/118 262/459/118
f 263/460/119 264/461/119 265/462/119
f 266/197/120 267/463/120 268/464/120
f 269/465/121 270/466/121 271/467/121
f 272/196/122 273/468/122 274/469/122
f 275/470/123 276/471/123 277/472/123
f 278/473/124 279/474/124 280/195/124
f 91/324/125 96/475/125 95/327/125 89/322/125
f 90/48/126 92/47/126 94/476/126 91/477/126
f 93/194/127 98/193/127 100/478/127 94/326/127
f 96/255/128 100/254/128 99/190/128 97/189/128
f 97/329/129 102/333/129 101/332/129 95/327/129
f 98/193/130 104/58/130 106/336/130 99/330/130
f 102/192/131 106/191/131 105/50/131 103/49/131
f 103/334/132 107/337/132 109/479/132 101/332/132
f 104/58/133 110/57/133 112/341/133 105/480/133
f 107/52/134 112/51/134 111/186/134 108/185/134
f 108/481/135 114/342/135 113/65/135 109/64/135
f 110/57/136 116/56/136 118/345/136 111/340/136
f 114/188/137 118/187/137 117/249/137 115/248/137
f 115/343/138 120/346/138 119/66/138 113/65/138
f 116/56/139 122/55/139 124/349/139 117/344/139
f 120/251/140 124/250/140 123/82/140 121/81/140
f 121/347/141 126/350/141 125/67/141 119/66/141
f 122/55/142 128/54/142 130/482/142 123/348/142
f 126/84/143 130/83/143 129/86/143 127/85/143
f 127/351/144 132/354/144 131/68/144 125/67/144
f 128/220/145 134/219/145 136/357/145 129/352/145
f 132/88/146 136/87/146 135/90/146 133/89/146
f 133/355/147 138/358/147 137/69/147 131/68/147
f 134/219/148 140/218/148 142/361/148 135/356/148
f 138/92/149 142/91/149 141/94/149 139/93/149
f 139/359/150 144/362/150 143/70/150 137/69/150
f 140/218/151 146/217/151 148/365/151 141/360/151
f 144/96/152 148/95/152 147/98/152 145/97/152
f 145/363/153 150/366/153 149/71/153 143/70/153
f 146/217/154 152/216/154 154/369/154 147/364/154
f 150/100/155 154/99/155 153/102/155 151/101/155
f 151/367/156 155/483/156 157/72/156 149/71/156
f 152/216/157 158/215/157 160/374/157 153/368/157
f 155/104/158 160/103/158 159/106/158 156/105/158
f 156/371/159 162/376/159 161/375/159 157/372/159
f 158/215/160 164/214/160 166/379/160 159/373/160
f 162/108/161 166/107/161 165/110/161 163/109/161
f 163/377/162 168/381/162 167/380/162 161/375/162
f 164/214/163 170/213/163 172/384/163 165/378/163
f 168/112/164 172/111/164 171/114/164 169/113/164
f 169/382/165 174/386/165 173/385/165 167/380/165
f 170/213/166 176/212/166 178/389/166 171/383/166
f 174/116/167 178/115/167 177/118/167 175/117/167
f 175/387/168 180/391/168 179/390/168 173/385/168
f 176/212/169 182/211/169 184/394/169 177/388/169
f 180/120/170 184/119/170 183/122/170 181/121/170
f 181/392/171 186/396/171 185/395/171 179/390/171
f 182/211/172 188/210/172 190/399/172 183/393/172
f 186/124/173 190/123/173 189/126/173 187/125/173
f 187/397/174 192/484/174 191/400/174 185/395/174
f 188/210/175 194/209/175 196/404/175 189/398/175
f 192/128/176 196/127/176 195/130/176 193/129/176
f 193/402/177 198/406/177 197/405/177 191/400/177
f 194/209/178 200/208/178 202/409/178 195/403/178
f 198/132/179 202/131/179 201/134/179 199/133/179
f 199/407/180 204/411/180 203/410/180 197/405/180
f 200/208/181 206/207/181 208/414/181 201/408/181
f 204/136/182 208/135/182 207/138/182 205/137/182
f 205/412/183 210/416/183 209/415/183 203/410/183
f 206/207/184 212/206/184 214/419/184 207/413/184
f 210/140/185 214/139/185 213/142/185 211/141/185
f 211/417/186 216/421/186 215/420/186 209/415/186
f 212/206/187 218/205/187 220/424/187 213/418/187
f 216/144/188 220/143/188 219/146/188 217/145/188
f 217/422/189 222/426/189 221/425/189 215/420/189
f 218/205/190 224/204/190 226/429/190 219/423/190
f 222/148/191 226/147/191 225/150/191 223/149/191
f 223/427/192 228/431/192 227/430/192 221/425/192
f 224/204/193 230/203/193 232/434/193 225/428/193
f 228/152/194 232/151/194 231/154/194 229/153/194
f 229/432/195 234/436/195 233/435/195 227/430/195
f 230/203/196 236/202/196 238/439/196 231/433/196
f 234/156/197 238/155/197 237/158/197 235/157/197
f 235/437/198 240/441/198 239/440/198 233/435/198
f 236/202/199 242/201/199 244/444/199 237/438/199
f 240/160/200 244/159/200 243/162/200 241/161/200
f 241/442/201 246/446/201 245/445/201 239/440/201
f 242/201/202 248/200/202 250/449/202 243/443/202
f 246/164/203 250/163/203 249/166/203 247/165/203
f 247/447/204 252/451/204 251/450/204 245/445/204
f 248/200/205 254/199/205 256/454/205 249/448/205
f 252/168/206 256/167/206 255/170/206 253/169/206
f 253/452/207 258/456/207 257/455/207 251/450/207
f 254/199/208 260/198/208 262/459/208 255/453/208
f 258/172/209 262/171/209 261/174/209 259/173/209
f 259/457/210 264/461/210 263/460/210 257/455/210
f 260/198/211 266/197/211 268/464/211 261/458/211
f 264/176/212 268/175/212 267/178/212 265/177/212
f 265/462/213 270/466/213 269/465/213 263/460/213
f 266/197/214 272/196/214 274/469/214 267/463/214
f 270/180/215 274/179/215 273/182/215 271/181/215
f 92/325/216 278/473/216 280/195/216 93/194/216
f 272/196/217 280/195/217 279/474/217 273/468/217
f 271/467/218 276/471/218 275/470/218 269/465/218
f 276/184/219 279/183/219 278/46/219 277/45/219
f 89/322/220 275/470/220 277/485/220 90/323/220
f 157/372/30 161/375/30 167/380/30 173/385/30 179/390/30 185/395/30 191/400/30 197/405/30 203/410/30 209/415/30 215/420/30 221/425/30 227/430/30 233/435/30 239/440/30 245/445/30 251/450/30 257/455/30 263/460/30 269/465/30 275/470/30 89/322/30 95/327/30 101/332/30 109/479/30 59/63/30 57/486/30 72/487/30 69/488/30 88/489/30 84/490/30 85/491/30 67/492/30 68/493/30 66/494/30 81/495/30 79/496/30 80/497/30 83/498/30 82/499/30 63/500/30 64/501/30 65/502/30 87/503/30 86/504/30 71/505/30 70/506/30 78/507/30 60/508/30 61/73/30
o Cylinder.001
v -0.235105 -0.000000 -0.562500
v 1.108100 0.000000 -0.562500
v -0.235105 -0.109738 -0.551692
v 1.108100 -0.109738 -0.551692
v -0.235105 -0.215259 -0.519682
v 1.108100 -0.215259 -0.519682
v -0.235105 -0.312508 -0.467702
v 1.108100 -0.312508 -0.467702
v -0.235105 -0.397748 -0.397748
v 1.108100 -0.397747 -0.397748
v -0.235105 -0.467702 -0.312508
v 1.108100 -0.467702 -0.312508
v -0.235105 -0.519682 -0.215259
v 1.108100 -0.519682 -0.215259
v -0.235105 -0.551692 -0.109738
v 1.108100 -0.551692 -0.109738
v -0.235105 -0.562500 0.000000
v 1.108100 -0.562500 0.000000
v -0.235105 -0.551692 0.109738
v 1.108100 -0.551692 0.109738
v -0.235105 -0.519682 0.215259
v 1.108100 -0.519682 0.215259
v -0.235105 -0.467702 0.312508
v 1.108100 -0.467702 0.312508
v -0.235105 -0.397748 0.397748
v 1.108100 -0.397747 0.397748
v -0.235105 -0.312508 0.467702
v 1.108100 -0.312508 0.467702
v -0.235105 -0.215259 0.519682
v 1.108100 -0.215259 0.519682
v -0.235105 -0.109738 0.551692
v 1.108100 -0.109738 0.551692
v -0.235105 -0.000000 0.562500
v 1.108100 0.000000 0.562500
v -0.235105 0.109738 0.551692
v 1.108100 0.109738 0.551692
v -0.235105 0.215259 0.519682
v 1.108100 0.215259 0.519682
v -0.235105 0.312508 0.467702
v 1.108100 0.312508 0.467702
v -0.235105 0.397747 0.397748
v 1.108100 0.397748 0.397748
v -0.235105 0.467702 0.312508
v 1.108100 0.467702 0.312508
v -0.235105 0.519682 0.215259
v 1.108100 0.519682 0.215259
v -0.235105 0.551692 0.109738
v 1.108100 0.551692 0.109738
v -0.235105 0.562500 0.000000
v 1.108100 0.562500 0.000000
v -0.235105 0.551692 -0.109738
v 1.108100 0.551692 -0.109738
v -0.235105 0.519682 -0.215259
v 1.108100 0.519682 -0.215259
v -0.235105 0.467702 -0.312508
v 1.108100 0.467702 -0.312508
v -0.235105 0.397747 -0.397748
v 1.108100 0.397748 -0.397748
v -0.235105 0.312508 -0.467702
v 1.108100 0.312508 -0.467702
v -0.235105 0.215259 -0.519682
v 1.108100 0.215259 -0.519682
v -0.235105 0.109738 -0.551692
v 1.108100 0.109738 -0.551692
vn -0.0000 -0.0980 -0.9952
vn -0.0000 -0.2903 -0.9569
vn -0.0000 -0.4714 -0.8819
vn -0.0000 -0.6344 -0.7730
vn -0.0000 -0.7730 -0.6344
vn -0.0000 -0.8819 -0.4714
vn -0.0000 -0.9569 -0.2903
vn -0.0000 -0.9952 -0.0980
vn -0.0000 -0.9952 0.0980
vn -0.0000 -0.9569 0.2903
vn -0.0000 -0.8819 0.4714
vn -0.0000 -0.7730 0.6344
vn -0.0000 -0.6344 0.7730
vn -0.0000 -0.4714 0.8819
vn -0.0000 -0.2903 0.9569
vn -0.0000 -0.0980 0.9952
vn -0.0000 0.0980 0.9952
vn -0.0000 0.2903 0.9569
vn -0.0000 0.4714 0.8819
vn -0.0000 0.6344 0.7730
vn -0.0000 0.7730 0.6344
vn -0.0000 0.8819 0.4714
vn -0.0000 0.9569 0.2903
vn -0.0000 0.9952 0.0980
vn -0.0000 0.9952 -0.0980
vn -0.0000 0.9569 -0.2903
vn -0.0000 0.8819 -0.4714
vn -0.0000 0.7730 -0.6344
vn -0.0000 0.6344 -0.7730
vn -0.0000 0.4714 -0.8819
vn 1.0000 -0.0000 -0.0000
vn -0.0000 0.2903 -0.9569
vn -0.0000 0.0980 -0.9952
vn -1.0000 -0.0000 -0.0000
vt 1.000000 0.500000
vt 1.000000 1.000000
vt 0.968750 1.000000
vt 0.968750 0.500000
vt 0.937500 1.000000
vt 0.937500 0.500000
vt 0.906250 1.000000
vt 0.906250 0.500000
vt 0.875000 1.000000
vt 0.875000 0.500000
vt 0.843750 1.000000
vt 0.843750 0.500000
vt 0.812500 1.000000
vt 0.812500 0.500000
vt 0.781250 1.000000
vt 0.781250 0.500000
vt 0.750000 1.000000
vt 0.750000 0.500000
vt 0.718750 1.000000
vt 0.718750 0.500000
vt 0.687500 1.000000
vt 0.687500 0.500000
vt 0.656250 1.000000
vt 0.656250 0.500000
vt 0.625000 1.000000
vt 0.625000 0.500000
vt 0.593750 1.000000
vt 0.593750 0.500000
vt 0.562500 1.000000
vt 0.562500 0.500000
vt 0.531250 1.000000
vt 0.531250 0.500000
vt 0.500000 1.000000
vt 0.500000 0.500000
vt 0.468750 1.000000
vt 0.468750 0.500000
vt 0.437500 1.000000
vt 0.437500 0.500000
vt 0.406250 1.000000
vt 0.406250 0.500000
vt 0.375000 1.000000
vt 0.375000 0.500000
vt 0.343750 1.000000
vt 0.343750 0.500000
vt 0.312500 1.000000
vt 0.312500 0.500000
vt 0.281250 1.000000
vt 0.281250 0.500000
vt 0.250000 1.000000
vt 0.250000 0.500000
vt 0.218750 1.000000
vt 0.218750 0.500000
vt 0.187500 1.000000
vt 0.187500 0.500000
vt 0.156250 1.000000
vt 0.156250 0.500000
vt 0.125000 1.000000
vt 0.125000 0.500000
vt 0.093750 1.000000
vt 0.093750 0.500000
vt 0.062500 1.000000
vt 0.062500 0.500000
vt 0.296822 0.485388
vt 0.250000 0.490000
vt 0.203178 0.485388
vt 0.158156 0.471731
vt 0.116663 0.449553
vt 0.080294 0.419706
vt 0.050447 0.383337
vt 0.028269 0.341844
vt 0.014612 0.296822
vt 0.010000 0.250000
vt 0.014612 0.203178
vt 0.028269 0.158156
vt 0.050447 0.116663
vt 0.080294 0.080294
vt 0.116663 0.050447
vt 0.158156 0.028269
vt 0.203178 0.014612
vt 0.250000 0.010000
vt 0.296822 0.014612
vt 0.341844 0.028269
vt 0.383337 0.050447
vt 0.419706 0.080294
vt 0.449553 0.116663
vt 0.471731 0.158156
vt 0.485388 0.203178
vt 0.490000 0.250000
vt 0.485388 0.296822
vt 0.471731 0.341844
vt 0.449553 0.383337
vt 0.419706 0.419706
vt 0.383337 0.449553
vt 0.341844 0.471731
vt 0.031250 1.000000
vt 0.031250 0.500000
vt 0.000000 1.000000
vt 0.000000 0.500000
vt 0.750000 0.490000
vt 0.796822 0.485388
vt 0.841844 0.471731
vt 0.883337 0.449553
vt 0.919706 0.419706
vt 0.949553 0.383337
vt 0.971731 0.341844
vt 0.985388 0.296822
vt 0.990000 0.250000
vt 0.985388 0.203178
vt 0.971731 0.158156
vt 0.949553 0.116663
vt 0.919706 0.080294
vt 0.883337 0.050447
vt 0.841844 0.028269
vt 0.796822 0.014612
vt 0.750000 0.010000
vt 0.703178 0.014612
vt 0.658156 0.028269
vt 0.616663 0.050447
vt 0.580294 0.080294
vt 0.550447 0.116663
vt 0.528269 0.158156
vt 0.514612 0.203178
vt 0.510000 0.250000
vt 0.514612 0.296822
vt 0.528269 0.341844
vt 0.550447 0.383337
vt 0.580294 0.419706
vt 0.616663 0.449553
vt 0.658156 0.471731
vt 0.703178 0.485388
s 0
f 289/509/221 290/510/221 292/511/221 291/512/221
f 291/512/222 292/511/222 294/513/222 293/514/222
f 293/514/223 294/513/223 296/515/223 295/516/223
f 295/516/224 296/515/224 298/517/224 297/518/224
f 297/518/225 298/517/225 300/519/225 299/520/225
f 299/520/226 300/519/226 302/521/226 301/522/226
f 301/522/227 302/521/227 304/523/227 303/524/227
f 303/524/228 304/523/228 306/525/228 305/526/228
f 305/526/229 306/525/229 308/527/229 307/528/229
f 307/528/230 308/527/230 310/529/230 309/530/230
f 309/530/231 310/529/231 312/531/231 311/532/231
f 311/532/232 312/531/232 314/533/232 313/534/232
f 313/534/233 314/533/233 316/535/233 315/536/233
f 315/536/234 316/535/234 318/537/234 317/538/234
f 317/538/235 318/537/235 320/539/235 319/540/235
f 319/540/236 320/539/236 322/541/236 321/542/236
f 321/542/237 322/541/237 324/543/237 323/544/237
f 323/544/238 324/543/238 326/545/238 325/546/238
f 325/546/239 326/545/239 328/547/239 327/548/239
f 327/548/240 328/547/240 330/549/240 329/550/240
f 329/550/241 330/549/241 332/551/241 331/552/241
f 331/552/242 332/551/242 334/553/242 333/554/242
f 333/554/243 334/553/243 336/555/243 335/556/243
f 335/556/244 336/555/244 338/557/244 337/558/244
f 337/558/245 338/557/245 340/559/245 339/560/245
f 339/560/246 340/559/246 342/561/246 341/562/246
f 341/562/247 342/561/247 344/563/247 343/564/247
f 343/564/248 344/563/248 346/565/248 345/566/248
f 345/566/249 346/565/249 348/567/249 347/568/249
f 347/568/250 348/567/250 350/569/250 349/570/250
f 292/571/251 290/572/251 352/573/251 350/574/251 348/575/251 346/576/251 344/577/251 342/578/251 340/579/251 338/580/251 336/581/251 334/582/251 332/583/251 330/584/251 328/585/251 326/586/251 324/587/251 322/588/251 320/589/251 318/590/251 316/591/251 314/592/251 312/593/251 310/594/251 308/595/251 306/596/251 304/597/251 302/598/251 300/599/251 298/600/251 296/601/251 294/602/251
f 349/570/252 350/569/252 352/603/252 351/604/252
f 351/604/253 352/603/253 290/605/253 289/606/253
f 289/607/254 291/608/254 293/609/254 295/610/254 297/611/254 299/612/254 301/613/254 303/614/254 305/615/254 307/616/254 309/617/254 311/618/254 313/619/254 315/620/254 317/621/254 319/622/254 321/623/254 323/624/254 325/625/254 327/626/254 329/627/254 331/628/254 333/629/254 335/630/254 337/631/254 339/632/254 341/633/254 343/634/254 345/635/254 347/636/254 349/637/254 351/638/254
o Plane
v 1.239458 0.565134 -0.230554
v 1.239458 0.508607 -0.334712
v 1.239458 -0.234086 -0.556606
v 1.239458 -0.119336 -0.590889
v 1.239458 0.599943 -0.117535
v 1.239459 -0.432535 -0.426007
v 1.239458 -0.339840 0.500932
v 1.239458 -0.234086 0.556606
v 1.239459 -0.508607 -0.334712
v 1.239458 -0.119336 0.590889
v 1.239458 0.234086 0.556606
v 1.239458 0.611696 0.000000
v 1.239458 0.234086 -0.556606
v 1.239458 0.339840 0.500932
v 1.239459 -0.599943 0.117535
v 1.239459 -0.432535 0.426007
v 1.239459 -0.565134 0.230554
v 1.239459 -0.611696 0.000000
v 1.239458 0.432535 -0.426007
v 1.239458 0.339840 -0.500932
v 1.239458 0.000000 0.602465
v 1.239458 0.000000 -0.602465
v 1.239459 -0.599943 -0.117535
v 1.239458 -0.339840 -0.500932
v 1.239459 -0.565134 -0.230554
v 1.239458 0.565134 0.230554
v 1.239458 0.508607 0.334712
v 1.239458 0.599943 0.117535
v 1.239458 0.432535 0.426007
v 1.239458 0.119336 0.590889
v 1.239459 -0.508607 0.334712
v 1.239458 0.119336 -0.590889
vn 1.0000 -0.0000 -0.0000
vt 0.775846 0.554869
vt 0.759841 0.607630
vt 0.733851 0.656254
vt 0.698874 0.698874
vt 0.656254 0.733851
vt 0.607630 0.759841
vt 0.554869 0.775846
vt 0.500000 0.781250
vt 0.445131 0.775846
vt 0.392370 0.759841
vt 0.343746 0.733851
vt 0.301126 0.698874
vt 0.266149 0.656254
vt 0.240159 0.607630
vt 0.224154 0.554869
vt 0.218750 0.500000
vt 0.224154 0.445131
vt 0.240159 0.392370
vt 0.266149 0.343746
vt 0.301126 0.301126
vt 0.343746 0.266149
vt 0.392370 0.240159
vt 0.445131 0.224154
vt 0.500000 0.218750
vt 0.554869 0.224154
vt 0.607630 0.240159
vt 0.656254 0.266149
vt 0.698874 0.301126
vt 0.733851 0.343746
vt 0.759841 0.392370
vt 0.775846 0.445131
vt 0.781250 0.500000
s 0
f 375/639/255 377/640/255 361/641/255 358/642/255 376/643/255 355/644/255 356/645/255 374/646/255 384/647/255 365/648/255 372/649/255 371/650/255 354/651/255 353/652/255 357/653/255 364/654/255 380/655/255 378/656/255 379/657/255 381/658/255 366/659/255 363/660/255 382/661/255 373/662/255 362/663/255 360/664/255 359/665/255 368/666/255 383/667/255 369/668/255 367/669/255 370/670/255
o Cube.001
v -0.757146 1.420151 0.918018
v -0.486875 0.870266 0.852882
v -0.497618 0.870266 0.918018
v -0.757146 1.420151 -0.918018
v -0.497618 0.870266 -0.918018
v -0.486875 0.870266 -0.852882
v -0.902415 1.420151 0.852882
v -0.896877 1.420151 0.918018
v -0.891546 0.870266 0.918018
v -0.897084 0.870266 0.852882
v -0.896877 1.420151 -0.918018
v -0.902415 1.420151 -0.852882
v -0.897084 0.870266 -0.852882
v -0.891546 0.870266 -0.918018
v -0.696102 1.313574 0.852882
v -0.757146 1.420151 0.918018
v -0.757146 1.420151 -0.918018
v -0.696102 1.313574 -0.852882
vn -0.0000 -0.0000 1.0000
vn -1.0000 -0.0097 -0.0000
vn -0.0000 -1.0000 -0.0000
vn 0.8944 0.4221 -0.1475
vn -0.0000 -0.0000 -1.0000
vn 0.9043 0.4268 -0.0000
vn -0.9964 -0.0097 -0.0847
vn -0.9964 -0.0097 0.0847
vn 0.8944 0.4221 0.1475
vn 0.8677 0.4970 -0.0000
vn -0.0000 1.0000 -0.0000
vt 0.375000 0.758874
vt 0.625000 0.753375
vt 0.625000 0.993453
vt 0.375000 0.982785
vt 0.375000 0.508869
vt 0.625000 0.508869
vt 0.625000 0.741131
vt 0.375000 0.741131
vt 0.628375 0.500000
vt 0.868453 0.500000
vt 0.875000 0.508869
vt 0.875000 0.741131
vt 0.868453 0.750000
vt 0.628375 0.750000
vt 0.625000 0.256547
vt 0.375000 0.267215
vt 0.423454 0.241131
vt 0.625000 0.241131
vt 0.625000 0.496625
vt 0.375000 0.491126
vt 0.423454 0.008869
vt 0.625000 0.008869
vt 0.375000 0.000000
vt 0.617399 0.000000
vt 0.125000 0.741131
vt 0.125000 0.508869
vt 0.142215 0.500000
vt 0.142215 0.750000
vt 0.366126 0.500000
vt 0.366126 0.750000
s 0
f 392/671/256 393/672/256 387/673/256 385/674/256
f 396/675/257 397/676/257 394/677/257 391/678/257
f 397/676/258 398/679/258 389/680/258 390/681/258 386/682/258 387/683/258 393/684/258 394/677/258
f 389/685/259 388/686/259 401/686/259 402/687/259 390/688/259
f 388/686/260 389/685/260 398/689/260 395/690/260
f 399/691/261 386/692/261 390/688/261 402/687/261
f 397/676/262 396/675/262 395/690/262 398/689/262
f 393/672/263 392/671/263 391/678/263 394/677/263
f 385/693/264 387/694/264 386/692/264 399/691/264 400/693/264
f 399/695/265 402/696/265 401/697/265 400/698/265
f 401/697/266 388/697/266 395/699/266 396/675/266 391/678/266 392/700/266 385/698/266 400/698/266
